<?xml version="1.0" encoding="UTF-8"?>
<svg id="Layer_2" data-name="Layer 2" xmlns="http://www.w3.org/2000/svg" xmlns:xlink="http://www.w3.org/1999/xlink" viewBox="0 0 850 248">
  <defs>
    <style>
      .cls-1 {
        clip-path: url(#clippath);
      }

      .cls-2 {
        fill: none;
      }

      .cls-2, .cls-3, .cls-4, .cls-5, .cls-6, .cls-7 {
        stroke-width: 0px;
      }

      .cls-3 {
        fill: #0af;
      }

      .cls-8 {
        mask: url(#mask);
      }

      .cls-4 {
        fill: #ade4ff;
      }

      .cls-5 {
        fill: #4040bf;
      }

      .cls-6 {
        fill: #003093;
      }

      .cls-7 {
        fill: #fff;
      }
    </style>
    <clipPath id="clippath">
      <rect class="cls-2" width="246" height="248"/>
    </clipPath>
    <mask id="mask" x="0" y="0" width="246" height="248" maskUnits="userSpaceOnUse">
      <g id="mask0_0_1" data-name="mask0 0 1">
        <path class="cls-7" d="M246,0H0v248h246V0Z"/>
      </g>
    </mask>
  </defs>
  <g id="_1" data-name=" 1">
    <g>
      <g class="cls-1">
        <g class="cls-8">
          <g>
            <path class="cls-4" d="M179.88,143.75c0,2.26.67,4.47,1.92,6.35,1.25,1.88,3.04,3.35,5.12,4.21s4.38,1.09,6.6.65c2.21-.44,4.25-1.53,5.85-3.13,1.6-1.6,2.68-3.64,3.12-5.86.44-2.22.21-4.52-.65-6.61-.86-2.09-2.33-3.88-4.2-5.13-1.88-1.26-4.09-1.93-6.34-1.93-1.5,0-2.98.3-4.37.87-1.39.58-2.64,1.42-3.7,2.48-1.06,1.06-1.9,2.32-2.47,3.71-.57,1.39-.87,2.88-.87,4.38Z"/>
            <path class="cls-4" d="M211.53,152.09c0,1.62.48,3.2,1.38,4.54.9,1.34,2.17,2.39,3.66,3.01,1.49.62,3.13.78,4.71.46,1.58-.32,3.04-1.09,4.18-2.24,1.14-1.14,1.92-2.6,2.23-4.18.31-1.59.15-3.23-.46-4.72-.62-1.49-1.66-2.77-3-3.67-1.34-.9-2.92-1.38-4.53-1.38-2.16,0-4.24.86-5.77,2.4-1.53,1.53-2.39,3.61-2.39,5.78Z"/>
            <path class="cls-4" d="M220.84,175.76c-.24,1.29-.09,2.62.43,3.82.52,1.2,1.38,2.22,2.48,2.94,1.1.71,2.38,1.08,3.69,1.06,1.31-.02,2.58-.43,3.66-1.17,1.08-.74,1.91-1.79,2.39-3.01.48-1.22.59-2.55.32-3.83-.27-1.28-.92-2.45-1.86-3.37-.94-.91-2.12-1.53-3.41-1.76-.85-.16-1.73-.14-2.58.04-.85.18-1.65.53-2.37,1.02-.71.49-1.32,1.12-1.8,1.85-.47.73-.79,1.55-.95,2.4Z"/>
            <path class="cls-4" d="M101.19,51.73c-1.51-1.68-3.48-2.88-5.67-3.43-2.19-.56-4.49-.45-6.62.3-2.13.75-3.99,2.13-5.34,3.94s-2.14,3.99-2.25,6.25c-.12,2.26.43,4.5,1.59,6.45,1.15,1.94,2.86,3.5,4.9,4.48,2.04.97,4.32,1.32,6.55,1,2.23-.32,4.32-1.31,6-2.82,2.25-2.03,3.6-4.87,3.76-7.9.16-3.03-.89-6-2.91-8.25Z"/>
            <path class="cls-4" d="M57.58,63.89c1.73,1.09,3.74,1.65,5.78,1.59,2.04-.05,4.02-.71,5.68-1.89,1.67-1.18,2.95-2.83,3.68-4.74s.88-3.99.43-5.99c-.45-1.99-1.48-3.81-2.96-5.22-1.48-1.41-3.34-2.34-5.36-2.69-2.01-.35-4.08-.09-5.94.75-1.86.83-3.44,2.2-4.53,3.93-1.46,2.32-1.94,5.12-1.34,7.8.6,2.67,2.24,5,4.56,6.46Z"/>
            <path class="cls-4" d="M33.81,78c1.56.42,3.21.36,4.74-.16,1.53-.52,2.87-1.48,3.85-2.77.98-1.28,1.56-2.83,1.67-4.44.11-1.61-.27-3.22-1.08-4.62-.81-1.4-2.01-2.53-3.46-3.24-1.45-.72-3.07-.98-4.67-.77-1.6.21-3.1.89-4.32,1.96-1.21,1.07-2.08,2.47-2.5,4.03-.28,1.04-.35,2.12-.21,3.18.14,1.06.49,2.09,1.02,3.02s1.25,1.74,2.1,2.4c.85.65,1.82,1.13,2.86,1.41Z"/>
            <path class="cls-4" d="M13.17,104.62c-.17-1.3-.73-2.52-1.59-3.5-.86-.98-2-1.69-3.26-2.03-1.26-.34-2.6-.29-3.84.13-1.24.42-2.32,1.2-3.12,2.25-.79,1.04-1.26,2.29-1.35,3.6-.08,1.31.22,2.61.88,3.74.66,1.13,1.63,2.05,2.81,2.62,1.17.58,2.49.79,3.79.62.86-.11,1.69-.4,2.44-.83.75-.44,1.41-1.02,1.94-1.71.53-.69.91-1.48,1.14-2.32.22-.84.28-1.72.16-2.58Z"/>
            <path class="cls-4" d="M19.9,81.15c.12-1.3-.15-2.62-.77-3.77-.62-1.15-1.57-2.09-2.73-2.7-1.16-.61-2.47-.86-3.77-.73s-2.53.66-3.54,1.49c-1.01.84-1.74,1.95-2.11,3.21-.37,1.26-.36,2.59.02,3.85.39,1.25,1.14,2.36,2.15,3.19,1.02.83,2.25,1.33,3.56,1.45,1.75.16,3.48-.38,4.83-1.5,1.35-1.12,2.2-2.74,2.36-4.49Z"/>
            <path class="cls-6" d="M131.01,183.27c-2.01,1.03-3.67,2.63-4.77,4.6-1.1,1.97-1.6,4.23-1.42,6.48.18,2.25,1.02,4.4,2.42,6.18,1.4,1.77,3.29,3.1,5.43,3.79,2.15.7,4.45.74,6.62.13,2.17-.61,4.11-1.86,5.58-3.58,1.47-1.72,2.39-3.83,2.66-6.08.27-2.24-.14-4.52-1.16-6.53-.68-1.34-1.62-2.53-2.76-3.51-1.14-.98-2.46-1.72-3.89-2.18-1.43-.46-2.93-.64-4.42-.52-1.5.12-2.95.53-4.29,1.21Z"/>
            <path class="cls-6" d="M157,198.93c-1.5,1.39-2.55,3.19-3.03,5.18-.48,1.99-.35,4.07.35,5.99.71,1.92,1.96,3.58,3.61,4.79,1.65,1.2,3.62,1.89,5.66,1.97,2.04.08,4.06-.45,5.79-1.51,1.74-1.07,3.12-2.63,3.98-4.49.85-1.86,1.14-3.93.82-5.95-.32-2.02-1.23-3.9-2.61-5.4-.92-1-2.03-1.8-3.26-2.37-1.23-.57-2.56-.89-3.91-.94-1.35-.05-2.7.16-3.98.63-1.27.47-2.44,1.19-3.43,2.11Z"/>
            <path class="cls-6" d="M185.19,192.87c-.81,1.4-1.18,3.01-1.08,4.62.1,1.61.68,3.16,1.67,4.44.98,1.28,2.32,2.24,3.85,2.77,1.53.52,3.18.57,4.73.16,1.56-.42,2.96-1.29,4.02-2.51,1.07-1.21,1.74-2.72,1.96-4.32.21-1.6-.06-3.23-.77-4.68-.71-1.45-1.84-2.66-3.24-3.46-.93-.54-1.95-.89-3.01-1.03-1.06-.14-2.14-.07-3.18.21-1.04.28-2.01.76-2.86,1.41-.85.65-1.56,1.47-2.1,2.4Z"/>
            <path class="cls-6" d="M158.92,64.84c-.92,2.07-1.21,4.36-.82,6.59.38,2.23,1.41,4.3,2.97,5.94,1.55,1.64,3.56,2.78,5.76,3.28,2.2.5,4.5.33,6.61-.48,2.11-.81,3.93-2.23,5.23-4.08,1.3-1.85,2.03-4.04,2.09-6.3.06-2.26-.55-4.49-1.76-6.4-1.21-1.91-2.95-3.43-5.01-4.34-1.37-.61-2.84-.95-4.34-.99-1.5-.04-2.99.22-4.39.76-1.4.54-2.68,1.35-3.77,2.38-1.09,1.03-1.96,2.27-2.57,3.64Z"/>
            <path class="cls-6" d="M193.22,68.38c-1.35,1.54-2.2,3.44-2.47,5.47-.27,2.03.07,4.09.98,5.92.9,1.83,2.33,3.36,4.09,4.38,1.77,1.02,3.8,1.5,5.83,1.36,2.04-.13,3.99-.87,5.6-2.11s2.83-2.94,3.49-4.88c.65-1.94.72-4.02.19-6s-1.63-3.75-3.16-5.1c-2.06-1.81-4.75-2.72-7.48-2.54-2.73.18-5.28,1.44-7.08,3.5Z"/>
            <path class="cls-6" d="M212.85,98.8c.88,1.36,2.14,2.42,3.62,3.06,1.48.64,3.12.82,4.71.53,1.59-.29,3.05-1.05,4.21-2.18,1.16-1.13,1.95-2.58,2.29-4.16.34-1.58.2-3.23-.4-4.73-.6-1.5-1.63-2.79-2.96-3.71-1.33-.92-2.9-1.42-4.52-1.44-1.61-.02-3.2.44-4.55,1.32-.9.58-1.68,1.34-2.28,2.22-.61.88-1.03,1.88-1.26,2.93-.22,1.05-.24,2.13-.04,3.19.2,1.06.6,2.06,1.18,2.96Z"/>
            <path class="cls-6" d="M233.29,113.77c.5,1.21,1.35,2.24,2.44,2.97,1.09.72,2.37,1.11,3.67,1.11,1.31,0,2.58-.39,3.67-1.12,1.09-.73,1.93-1.76,2.43-2.98.5-1.21.63-2.54.37-3.83-.26-1.28-.89-2.46-1.81-3.39-.93-.93-2.1-1.55-3.39-1.81-1.28-.25-2.61-.12-3.82.38-1.62.68-2.9,1.97-3.57,3.59-.67,1.63-.67,3.45,0,5.07Z"/>
            <path class="cls-6" d="M63.18,121.88c-.7-2.15-2.02-4.04-3.79-5.44-1.77-1.4-3.92-2.24-6.17-2.42-2.25-.18-4.5.32-6.47,1.42-1.97,1.11-3.57,2.77-4.59,4.78-1.02,2.02-1.43,4.29-1.16,6.53.26,2.24,1.19,4.36,2.65,6.08,1.47,1.72,3.41,2.96,5.58,3.58,2.17.61,4.48.57,6.62-.13,1.43-.46,2.75-1.2,3.89-2.18,1.14-.98,2.08-2.17,2.76-3.5.68-1.34,1.09-2.8,1.21-4.29.12-1.5-.06-3-.52-4.43Z"/>
            <path class="cls-6" d="M44.57,145.65c-1.13-1.7-2.74-3.03-4.63-3.81-1.88-.78-3.96-.99-5.96-.59-2,.4-3.84,1.38-5.28,2.83-1.44,1.44-2.43,3.29-2.83,5.29-.4,2-.2,4.08.58,5.97.78,1.89,2.1,3.5,3.8,4.64,1.7,1.14,3.69,1.74,5.73,1.75,2.04,0,4.03-.6,5.73-1.74,2.27-1.52,3.85-3.89,4.39-6.58.53-2.69-.02-5.48-1.54-7.76Z"/>
            <path class="cls-6" d="M45.15,185.95c1.02-1.26,1.64-2.79,1.78-4.4.15-1.61-.18-3.23-.95-4.65-.77-1.42-1.94-2.58-3.37-3.33-1.43-.75-3.05-1.06-4.65-.89-1.61.17-3.12.81-4.36,1.85-1.24,1.03-2.15,2.41-2.61,3.96-.46,1.55-.45,3.2.03,4.75.48,1.54,1.4,2.91,2.66,3.93.83.68,1.79,1.18,2.82,1.49,1.03.3,2.11.4,3.17.29,1.07-.11,2.1-.43,3.04-.95.94-.51,1.77-1.21,2.45-2.04"/>
            <path class="cls-6" d="M65.17,224.37c.37-1.26.36-2.59-.03-3.85-.39-1.25-1.14-2.36-2.16-3.18-1.02-.82-2.26-1.32-3.56-1.44-1.3-.12-2.61.15-3.76.78-1.15.63-2.08,1.58-2.69,2.74-.61,1.16-.86,2.48-.72,3.78.14,1.3.66,2.53,1.5,3.54.84,1.01,1.95,1.74,3.21,2.11,1.68.49,3.49.3,5.03-.54,1.54-.84,2.68-2.26,3.18-3.94Z"/>
            <path class="cls-6" d="M43.98,209.5c.64-1.14.93-2.45.83-3.76-.1-1.31-.59-2.55-1.4-3.58-.81-1.03-1.9-1.79-3.15-2.2-1.24-.4-2.58-.43-3.84-.08-1.26.35-2.38,1.07-3.23,2.07-.85.99-1.39,2.22-1.54,3.52-.15,1.3.08,2.62.67,3.79.59,1.17,1.52,2.13,2.66,2.77,1.53.86,3.34,1.07,5.02.6,1.69-.48,3.12-1.6,3.98-3.13Z"/>
            <path class="cls-6" d="M151.64,39.33c-.29,2.02.02,4.09.9,5.93.88,1.85,2.28,3.39,4.04,4.43,1.75,1.05,3.78,1.55,5.81,1.44,2.04-.11,4-.82,5.63-2.04,1.64-1.22,2.87-2.9,3.55-4.83.68-1.93.78-4.01.28-5.99-.5-1.98-1.58-3.77-3.09-5.14-1.52-1.37-3.4-2.26-5.42-2.55-2.71-.39-5.46.31-7.65,1.95-2.19,1.64-3.65,4.08-4.04,6.8"/>
            <path class="cls-6" d="M143.73,21.15c-.25-1.6-.97-3.08-2.07-4.27-1.1-1.19-2.52-2.02-4.09-2.4-1.57-.38-3.22-.28-4.73.28-1.51.56-2.83,1.56-3.78,2.87-.95,1.31-1.49,2.87-1.55,4.49-.06,1.62.35,3.21,1.2,4.59.84,1.38,2.08,2.48,3.54,3.15,1.46.68,3.1.9,4.69.65,1.06-.17,2.07-.54,2.99-1.1.91-.56,1.71-1.3,2.34-2.17.63-.87,1.08-1.85,1.33-2.9.25-1.04.29-2.13.12-3.19Z"/>
            <path class="cls-6" d="M97.68,6.64c-.68-1.12-1.68-2-2.87-2.55-1.19-.55-2.51-.73-3.8-.52-1.29.21-2.49.79-3.45,1.68-.96.89-1.63,2.05-1.94,3.32-.3,1.27-.22,2.61.23,3.84s1.26,2.29,2.32,3.06,2.32,1.2,3.63,1.25c1.31.05,2.6-.29,3.71-.98.74-.46,1.38-1.05,1.89-1.76s.88-1.5,1.08-2.35c.2-.85.23-1.72.1-2.58-.14-.86-.44-1.68-.9-2.42Z"/>
            <path class="cls-6" d="M115.69.35c-1.24.42-2.32,1.2-3.12,2.24-.8,1.04-1.27,2.29-1.35,3.6-.09,1.31.22,2.61.87,3.75.65,1.14,1.63,2.05,2.8,2.63,1.17.58,2.49.8,3.79.63,1.3-.17,2.51-.72,3.5-1.59.98-.86,1.69-2,2.03-3.27.34-1.27.29-2.6-.13-3.85-.28-.82-.72-1.58-1.29-2.24-.57-.65-1.27-1.19-2.04-1.57-.78-.38-1.62-.61-2.49-.67-.87-.06-1.73.06-2.56.34Z"/>
            <path class="cls-5" d="M84.75,188.05c-.24,2.25.2,4.52,1.25,6.52,1.05,2,2.67,3.64,4.65,4.72,1.98,1.08,4.24,1.54,6.49,1.34,2.25-.21,4.38-1.08,6.14-2.5,1.75-1.42,3.05-3.34,3.71-5.5.67-2.16.68-4.47.04-6.64-.64-2.17-1.91-4.1-3.65-5.54-1.74-1.45-3.86-2.34-6.1-2.58-1.49-.16-3-.02-4.43.41-1.44.43-2.78,1.13-3.94,2.08-1.16.94-2.13,2.11-2.85,3.43-.71,1.32-1.16,2.77-1.32,4.26Z"/>
            <path class="cls-5" d="M114.46,225.53c2.01-.35,3.88-1.28,5.36-2.69,1.48-1.41,2.51-3.22,2.96-5.22.45-1.99.3-4.08-.43-5.99-.73-1.91-2.01-3.56-3.68-4.74-1.67-1.18-3.64-1.84-5.68-1.89s-4.05.5-5.78,1.59c-1.73,1.09-3.09,2.67-3.92,4.54-.83,1.87-1.09,3.94-.74,5.96.23,1.34.72,2.62,1.44,3.77.72,1.15,1.66,2.14,2.77,2.93,1.11.78,2.36,1.34,3.68,1.64,1.32.3,2.69.34,4.02.11"/>
            <path class="cls-5" d="M148.18,219.46c-.73-1.44-1.88-2.63-3.28-3.42-1.41-.79-3.02-1.14-4.63-1.02-1.61.13-3.14.73-4.41,1.73-1.27,1-2.21,2.36-2.71,3.89-.5,1.54-.53,3.19-.09,4.75s1.33,2.95,2.55,4c1.23,1.05,2.74,1.71,4.34,1.9,1.6.19,3.22-.1,4.66-.83,1.93-.98,3.39-2.7,4.06-4.76.67-2.06.49-4.31-.49-6.24Z"/>
            <path class="cls-5" d="M181.7,217.99c-.85,1-1.38,2.22-1.53,3.53-.15,1.3.08,2.62.68,3.79.6,1.17,1.52,2.13,2.67,2.77,1.14.64,2.45.92,3.75.82,1.3-.11,2.55-.6,3.57-1.41,1.03-.81,1.79-1.91,2.19-3.16.4-1.25.43-2.58.07-3.85-.36-1.26-1.08-2.39-2.07-3.24-1.34-1.14-3.07-1.7-4.82-1.56-1.75.14-3.37.97-4.51,2.31Z"/>
            <path class="cls-5" d="M159,229.3c-1.05.78-1.84,1.86-2.28,3.1-.44,1.24-.5,2.57-.18,3.84.32,1.27,1.01,2.42,1.98,3.29.97.88,2.18,1.45,3.47,1.63,1.29.19,2.62-.01,3.8-.57,1.18-.56,2.17-1.46,2.84-2.59.67-1.12.99-2.42.92-3.73-.07-1.31-.52-2.57-1.3-3.62-.52-.7-1.17-1.29-1.92-1.73-.75-.45-1.57-.74-2.43-.87-.86-.12-1.74-.08-2.58.13-.84.21-1.63.59-2.33,1.11Z"/>
            <path class="cls-5" d="M57.6,172.71c1.75,1.42,3.89,2.29,6.14,2.5,2.25.21,4.5-.26,6.49-1.34,1.98-1.08,3.6-2.72,4.65-4.72,1.05-2,1.49-4.27,1.25-6.52-.24-2.25-1.13-4.38-2.57-6.11-1.44-1.74-3.37-3.01-5.53-3.65-2.16-.64-4.47-.63-6.62.04-2.16.67-4.06,1.96-5.48,3.72-.94,1.17-1.65,2.51-2.08,3.95-.43,1.44-.57,2.95-.41,4.45.16,1.49.61,2.94,1.32,4.26.72,1.32,1.68,2.49,2.85,3.43Z"/>
            <path class="cls-5" d="M60.82,204.25c1.87.81,3.95,1.04,5.95.67,2.01-.37,3.86-1.33,5.32-2.76,1.46-1.43,2.47-3.26,2.89-5.26.42-2,.25-4.08-.51-5.98s-2.06-3.53-3.74-4.69c-1.68-1.16-3.67-1.79-5.71-1.82-2.04-.03-4.04.55-5.75,1.67-1.71,1.11-3.06,2.71-3.86,4.59-1.08,2.52-1.12,5.37-.1,7.91,1.01,2.55,2.99,4.59,5.51,5.67Z"/>
            <path class="cls-5" d="M84.45,209.01c-1.6-.17-3.22.14-4.65.9-1.43.75-2.6,1.91-3.37,3.33-.77,1.42-1.1,3.04-.96,4.65.15,1.61.77,3.14,1.78,4.4,1.02,1.26,2.38,2.18,3.92,2.66,1.54.48,3.19.49,4.74.03s2.92-1.37,3.96-2.61c1.03-1.24,1.67-2.76,1.84-4.37.23-2.16-.41-4.32-1.77-6-1.36-1.69-3.34-2.76-5.49-2.99Z"/>
            <path class="cls-5" d="M120.93,235.03c-1.25.37-2.37,1.11-3.2,2.12-.83,1.01-1.35,2.24-1.49,3.55-.13,1.3.12,2.62.73,3.78.61,1.16,1.55,2.11,2.7,2.73,1.15.62,2.46.89,3.76.77s2.54-.63,3.55-1.45c1.01-.83,1.76-1.94,2.15-3.19.39-1.25.39-2.59.02-3.85-.5-1.68-1.65-3.1-3.19-3.93-1.54-.84-3.35-1.02-5.03-.52Z"/>
            <path class="cls-5" d="M102.99,238.51c-.09-1.31-.56-2.56-1.35-3.6-.79-1.04-1.88-1.82-3.12-2.24-1.24-.42-2.57-.46-3.83-.13-1.26.34-2.4,1.04-3.26,2.03-.86.99-1.41,2.2-1.58,3.5-.17,1.3.05,2.62.62,3.79.58,1.18,1.49,2.15,2.62,2.81,1.13.65,2.43.96,3.74.88,1.75-.12,3.38-.92,4.54-2.24,1.16-1.32,1.74-3.05,1.63-4.8"/>
            <path class="cls-5" d="M180.85,42.6c-.66,1.48-.86,3.12-.59,4.71.27,1.59,1.01,3.07,2.12,4.24,1.11,1.17,2.54,1.99,4.12,2.35,1.57.36,3.22.24,4.72-.34,1.51-.58,2.81-1.59,3.74-2.91.93-1.32,1.45-2.89,1.49-4.5.04-1.62-.4-3.21-1.26-4.58-.86-1.37-2.11-2.45-3.58-3.11-.98-.44-2.03-.68-3.1-.7-1.07-.03-2.14.16-3.14.54-1,.38-1.92.96-2.69,1.7-.78.74-1.4,1.62-1.84,2.61Z"/>
            <path class="cls-5" d="M152.12,11.59c-.03,1.31.32,2.6,1.02,3.71.7,1.11,1.71,1.98,2.91,2.51,1.19.53,2.52.69,3.81.47,1.29-.22,2.48-.83,3.43-1.73.95-.9,1.6-2.07,1.89-3.35.29-1.28.19-2.61-.28-3.84-.47-1.22-1.29-2.28-2.36-3.03-1.07-.75-2.34-1.17-3.64-1.21-.87-.02-1.73.13-2.54.44-.81.31-1.55.78-2.18,1.38-.63.6-1.13,1.32-1.49,2.11-.35.8-.54,1.65-.56,2.52Z"/>
            <path class="cls-5" d="M208.3,45.78c-.74,1.08-1.14,2.36-1.15,3.67-.01,1.31.36,2.59,1.07,3.69.71,1.1,1.74,1.96,2.94,2.47,1.2.51,2.53.66,3.81.42,1.28-.24,2.47-.86,3.4-1.77.93-.92,1.58-2.09,1.85-3.37.27-1.28.15-2.61-.33-3.83-.49-1.22-1.32-2.26-2.4-3-.72-.49-1.52-.84-2.37-1.02-.85-.18-1.73-.19-2.58-.03-.85.16-1.67.49-2.4.96-.73.48-1.35,1.09-1.84,1.81Z"/>
            <path class="cls-5" d="M176.04,21.48c-.32,1.27-.26,2.61.18,3.84.44,1.23,1.23,2.31,2.28,3.1,1.05.78,2.3,1.24,3.61,1.31,1.3.07,2.6-.25,3.72-.92,1.12-.67,2.02-1.66,2.59-2.84.56-1.18.76-2.5.58-3.8-.19-1.3-.75-2.51-1.63-3.48-.87-.97-2.02-1.67-3.28-1.99-1.7-.43-3.5-.17-5.01.73-1.51.9-2.6,2.36-3.03,4.06Z"/>
            <path class="cls-5" d="M222.85,76.7c.89.96,2.04,1.64,3.31,1.95,1.27.31,2.6.23,3.83-.22,1.23-.45,2.29-1.26,3.06-2.32.77-1.06,1.21-2.32,1.26-3.63s-.28-2.6-.97-3.72c-.68-1.12-1.68-2.01-2.87-2.56-1.19-.55-2.51-.73-3.8-.53-1.29.2-2.49.79-3.45,1.67-1.29,1.19-2.05,2.85-2.12,4.6-.07,1.76.56,3.47,1.75,4.76Z"/>
            <path class="cls-3" d="M65.71,75.36c-2.18-.59-4.49-.51-6.62.22-2.14.73-4.01,2.07-5.39,3.87-1.37,1.79-2.19,3.96-2.34,6.21s.37,4.51,1.5,6.47c1.13,1.96,2.81,3.54,4.84,4.54,2.02,1,4.3,1.38,6.54,1.08,2.24-.29,4.34-1.25,6.04-2.74s2.92-3.45,3.5-5.64c.78-2.93.38-6.05-1.14-8.68-1.51-2.63-4.01-4.55-6.93-5.33Z"/>
            <path class="cls-3" d="M35.44,109.58c2.04-.03,4.03-.66,5.71-1.82,1.68-1.16,2.98-2.79,3.74-4.69.76-1.9.93-3.98.51-5.98-.42-2-1.43-3.83-2.89-5.26-1.46-1.43-3.31-2.39-5.32-2.76-2.01-.37-4.08-.14-5.95.67-1.88.81-3.47,2.15-4.58,3.87-1.11,1.71-1.69,3.72-1.66,5.77.04,2.74,1.16,5.35,3.12,7.27,1.96,1.91,4.6,2.97,7.33,2.93Z"/>
            <path class="cls-3" d="M28.77,123.36c-.5-1.54-1.44-2.89-2.71-3.9-1.27-1-2.8-1.6-4.41-1.73s-3.22.23-4.63,1.02c-1.41.79-2.55,1.98-3.28,3.42-.73,1.44-1.02,3.07-.83,4.67.19,1.61.85,3.12,1.9,4.35,1.05,1.23,2.44,2.12,3.99,2.56s3.2.41,4.74-.09c2.06-.67,3.77-2.13,4.75-4.06.98-1.93,1.16-4.18.49-6.24Z"/>
            <path class="cls-3" d="M20.45,167.43c-.85-1-1.98-1.72-3.24-2.07-1.26-.35-2.6-.33-3.84.08-1.24.41-2.34,1.17-3.15,2.2-.81,1.03-1.29,2.28-1.39,3.59s.19,2.61.83,3.76c.64,1.14,1.61,2.07,2.77,2.66,1.17.59,2.48.83,3.78.67,1.3-.16,2.52-.7,3.51-1.55.66-.57,1.2-1.26,1.59-2.03s.63-1.62.7-2.49c.07-.87-.04-1.74-.31-2.57-.27-.83-.7-1.59-1.26-2.25Z"/>
            <path class="cls-3" d="M13.03,144.02c-.61-1.16-1.55-2.11-2.69-2.74-1.15-.63-2.46-.9-3.76-.78-1.3.12-2.54.62-3.56,1.45-1.02.82-1.77,1.93-2.16,3.18-.39,1.25-.4,2.59-.03,3.85.37,1.26,1.11,2.37,2.11,3.21,1.01.84,2.24,1.36,3.54,1.5,1.3.14,2.61-.12,3.77-.73,1.55-.82,2.71-2.22,3.23-3.9s.36-3.49-.46-5.05Z"/>
            <path class="cls-3" d="M143.79,51.28c-.35-2.23-1.36-4.31-2.89-5.98s-3.52-2.83-5.72-3.36c-2.2-.53-4.5-.39-6.62.39-2.12.78-3.96,2.18-5.29,4.01-1.33,1.83-2.08,4.01-2.17,6.27-.09,2.26.49,4.5,1.67,6.43,1.18,1.93,2.9,3.46,4.95,4.41,2.05.95,4.34,1.26,6.57.91,1.48-.23,2.9-.76,4.18-1.54,1.28-.78,2.39-1.81,3.27-3.03.88-1.22,1.52-2.59,1.87-4.05.35-1.46.41-2.98.17-4.46Z"/>
            <path class="cls-3" d="M119.72,29c-.85-1.86-2.24-3.42-3.98-4.48-1.74-1.07-3.76-1.59-5.79-1.51-2.04.08-4.01.76-5.66,1.97-1.65,1.2-2.91,2.87-3.61,4.78-.71,1.92-.83,4-.35,5.99.48,1.99,1.53,3.79,3.03,5.18,1.5,1.39,3.37,2.3,5.39,2.62,2.01.32,4.08.03,5.93-.82,1.23-.57,2.34-1.37,3.26-2.37.92-1,1.63-2.17,2.1-3.44s.68-2.63.63-3.98c-.05-1.36-.37-2.69-.94-3.92Z"/>
            <path class="cls-3" d="M84.21,37.55c1.2-1.08,2.05-2.5,2.45-4.06.4-1.57.32-3.22-.22-4.74-.54-1.52-1.52-2.85-2.81-3.82-1.29-.97-2.84-1.53-4.45-1.61s-3.21.31-4.6,1.14c-1.39.83-2.5,2.05-3.19,3.5-.7,1.46-.94,3.09-.71,4.69.23,1.6.93,3.1,2.01,4.3.72.8,1.58,1.45,2.55,1.91.97.46,2.02.73,3.09.79,1.07.06,2.14-.1,3.15-.46,1.01-.36,1.94-.91,2.74-1.63Z"/>
            <path class="cls-3" d="M41.2,47.97c.56-1.18.76-2.51.57-3.8-.19-1.3-.76-2.51-1.64-3.48-.88-.97-2.02-1.66-3.29-1.98-1.27-.32-2.6-.26-3.83.18-1.23.44-2.31,1.23-3.09,2.29-.78,1.05-1.23,2.31-1.3,3.62-.07,1.31.26,2.61.93,3.73.67,1.12,1.66,2.03,2.84,2.59.78.37,1.63.59,2.5.63.87.04,1.74-.08,2.55-.37.82-.29,1.57-.74,2.22-1.33.64-.58,1.17-1.29,1.54-2.08Z"/>
            <path class="cls-3" d="M59.83,32.18c.81-1.03,1.3-2.27,1.4-3.58.1-1.31-.18-2.61-.82-3.76s-1.6-2.07-2.77-2.67c-1.17-.6-2.48-.83-3.78-.68-1.3.15-2.52.69-3.52,1.54s-1.71,1.98-2.07,3.24c-.36,1.26-.33,2.6.08,3.85.4,1.25,1.17,2.34,2.19,3.16.68.54,1.46.94,2.3,1.17.84.24,1.71.31,2.57.2.86-.1,1.7-.37,2.45-.8.76-.42,1.42-1,1.96-1.68Z"/>
            <path class="cls-3" d="M185.08,93.77c-1.89,1.23-3.38,3-4.27,5.08-.89,2.08-1.15,4.37-.73,6.6.41,2.22,1.47,4.27,3.05,5.89,1.57,1.62,3.59,2.73,5.8,3.2,2.21.47,4.5.28,6.6-.56,2.1-.84,3.9-2.28,5.18-4.14,1.28-1.86,1.98-4.06,2.01-6.32.03-2.26-.61-4.48-1.84-6.38-1.65-2.54-4.24-4.33-7.2-4.96-2.96-.63-6.05-.06-8.59,1.59Z"/>
            <path class="cls-3" d="M212.3,115.44c-1.96.56-3.72,1.68-5.05,3.23-1.32,1.56-2.16,3.47-2.4,5.5-.24,2.03.12,4.09,1.05,5.91.93,1.82,2.37,3.33,4.15,4.33,1.78,1,3.82,1.45,5.85,1.29,2.03-.16,3.98-.92,5.58-2.19,1.6-1.26,2.79-2.98,3.43-4.92.63-1.94.67-4.03.12-6-.37-1.31-.99-2.53-1.83-3.59-.84-1.07-1.88-1.96-3.06-2.62-1.18-.66-2.48-1.09-3.83-1.25-1.35-.16-2.71-.05-4.01.32Z"/>
            <path class="cls-3" d="M232.45,139.2c.22,1.29.82,2.49,1.72,3.44.9.95,2.06,1.61,3.34,1.9,1.28.29,2.61.19,3.83-.28,1.22-.47,2.28-1.29,3.03-2.36.75-1.07,1.18-2.34,1.21-3.65.03-1.31-.32-2.6-1.02-3.71-.7-1.11-1.71-1.98-2.9-2.52-1.19-.53-2.52-.7-3.81-.48-.86.15-1.68.46-2.41.92-.73.47-1.37,1.07-1.87,1.78-.5.71-.86,1.51-1.05,2.36-.19.85-.21,1.73-.07,2.59Z"/>
            <path class="cls-3" d="M162.22,169.41c-1.13,1.96-1.65,4.21-1.51,6.47.15,2.26.96,4.42,2.34,6.22,1.38,1.79,3.25,3.14,5.39,3.87s4.44.8,6.62.22c2.18-.59,4.14-1.81,5.63-3.51,1.49-1.7,2.44-3.81,2.74-6.05.29-2.24-.08-4.52-1.08-6.55-1-2.03-2.58-3.72-4.53-4.85-2.62-1.52-5.74-1.93-8.66-1.14-2.92.79-5.42,2.7-6.93,5.33Z"/>
            <path class="cls-3" d="M189.8,172.12c-.6,1.95-.62,4.04-.04,6,.58,1.96,1.73,3.71,3.3,5.01,1.57,1.31,3.49,2.12,5.52,2.33,2.03.21,4.08-.18,5.88-1.13,1.81-.95,3.29-2.42,4.26-4.22.97-1.8,1.39-3.84,1.21-5.88-.19-2.04-.97-3.97-2.26-5.56-1.29-1.59-3.01-2.76-4.96-3.37-2.61-.81-5.44-.55-7.86.73-2.42,1.28-4.24,3.46-5.05,6.08Z"/>
            <path class="cls-3" d="M206.54,196.85c-.52,1.2-.67,2.53-.43,3.82.24,1.29.85,2.48,1.76,3.42.91.94,2.08,1.58,3.36,1.86,1.28.27,2.61.16,3.82-.33,1.21-.49,2.26-1.32,3-2.4.74-1.08,1.14-2.36,1.16-3.67.02-1.31-.35-2.6-1.06-3.69-.71-1.1-1.73-1.96-2.93-2.48-.8-.34-1.65-.53-2.52-.54-.87-.01-1.73.15-2.54.47-.81.32-1.54.8-2.16,1.41-.62.61-1.12,1.33-1.46,2.13Z"/>
          </g>
        </g>
      </g>
      <path class="cls-6" d="M814.32,182.19c-7.74,0-14.62-1.77-20.64-5.3-5.92-3.63-10.56-8.5-13.9-14.62-3.34-6.21-5.01-13.13-5.01-20.78s1.67-14.76,5.01-20.78c3.44-6.02,8.03-10.75,13.76-14.19,5.73-3.53,12.23-5.3,19.49-5.3,5.83,0,11.03,1,15.62,3.01,4.59,2.01,8.45,4.78,11.61,8.31,3.15,3.44,5.54,7.4,7.17,11.89,1.72,4.49,2.58,9.27,2.58,14.33,0,1.24-.05,2.53-.14,3.87-.1,1.34-.29,2.58-.57,3.72h-61.76v-12.9h52.59l-7.74,5.88c.96-4.68.62-8.84-1-12.47-1.53-3.73-3.92-6.64-7.17-8.74-3.15-2.2-6.88-3.3-11.18-3.3s-8.12,1.1-11.46,3.3c-3.34,2.1-5.92,5.16-7.74,9.17-1.82,3.92-2.53,8.69-2.15,14.33-.48,5.25.24,9.84,2.15,13.76,2.01,3.92,4.78,6.97,8.31,9.17,3.63,2.2,7.74,3.3,12.32,3.3s8.64-1.05,11.89-3.15c3.34-2.1,5.97-4.82,7.88-8.17l13.18,6.45c-1.53,3.63-3.92,6.93-7.17,9.89-3.15,2.87-6.97,5.16-11.46,6.88-4.39,1.62-9.22,2.44-14.47,2.44Z"/>
      <path class="cls-6" d="M733.26,182.19c-7.93,0-14.9-1.96-20.92-5.88-5.92-3.92-10.08-9.17-12.47-15.76l12.47-5.88c2.1,4.39,4.97,7.88,8.6,10.46,3.73,2.58,7.83,3.87,12.32,3.87,3.82,0,6.92-.86,9.31-2.58,2.39-1.72,3.58-4.06,3.58-7.02,0-1.91-.53-3.44-1.58-4.59-1.05-1.24-2.39-2.24-4.01-3.01-1.53-.76-3.1-1.34-4.73-1.72l-12.18-3.44c-6.69-1.91-11.7-4.78-15.05-8.6-3.25-3.92-4.87-8.45-4.87-13.61,0-4.68,1.19-8.74,3.58-12.18,2.39-3.53,5.68-6.26,9.89-8.17,4.2-1.91,8.93-2.87,14.19-2.87,7.07,0,13.37,1.77,18.91,5.3,5.54,3.44,9.46,8.26,11.75,14.47l-12.47,5.88c-1.53-3.73-3.96-6.69-7.31-8.88-3.25-2.2-6.93-3.3-11.03-3.3-3.53,0-6.35.86-8.45,2.58-2.1,1.62-3.15,3.77-3.15,6.45,0,1.81.48,3.34,1.43,4.58.96,1.15,2.2,2.1,3.73,2.87,1.53.67,3.11,1.24,4.73,1.72l12.61,3.73c6.4,1.81,11.32,4.68,14.76,8.6,3.44,3.82,5.16,8.41,5.16,13.76,0,4.59-1.24,8.65-3.73,12.18-2.39,3.44-5.73,6.16-10.03,8.17-4.3,1.91-9.32,2.87-15.05,2.87Z"/>
      <path class="cls-6" d="M669.47,180.48v-77.52h16.19v77.52h-16.19ZM669.47,92.35v-18.63h16.19v18.63h-16.19Z"/>
      <path class="cls-6" d="M609.3,182.19c-7.45,0-14.14-1.77-20.06-5.3-5.83-3.63-10.46-8.5-13.9-14.62-3.34-6.11-5.01-12.99-5.01-20.63s1.72-14.52,5.16-20.63c3.44-6.11,8.07-10.94,13.9-14.47,5.83-3.53,12.42-5.3,19.78-5.3,6.21,0,11.7,1.24,16.48,3.73,4.78,2.48,8.55,5.92,11.32,10.32l-2.44,3.73v-47h16.05v108.48h-15.33v-15.76l1.86,3.01c-2.68,4.68-6.5,8.26-11.46,10.75-4.97,2.48-10.41,3.73-16.34,3.73ZM610.88,167.15c4.49,0,8.5-1.1,12.04-3.3,3.63-2.2,6.45-5.21,8.46-9.03,2.1-3.92,3.15-8.31,3.15-13.18s-1.05-9.22-3.15-13.04c-2.01-3.82-4.82-6.83-8.46-9.03-3.53-2.2-7.55-3.3-12.04-3.3s-8.55,1.1-12.18,3.3c-3.63,2.2-6.45,5.21-8.46,9.03-2.01,3.82-3.01,8.17-3.01,13.04s1,9.27,3.01,13.18c2.01,3.82,4.78,6.83,8.31,9.03,3.63,2.2,7.74,3.3,12.32,3.3Z"/>
      <path class="cls-3" d="M499.29,212c-1.72,0-3.44-.14-5.16-.43-1.72-.29-3.34-.77-4.87-1.43v-11.89c1.05.19,2.34.38,3.87.57,1.62.29,3.2.43,4.73.43,4.49,0,7.88-1,10.17-3.01,2.39-1.91,4.63-5.25,6.74-10.03l4.87-11.61-.29,11.61-32.96-82.97h14.47l25.65,65.92h-4.3l25.51-65.92h14.76l-34.82,86.41c-1.62,4.11-3.73,7.83-6.3,11.18-2.48,3.44-5.54,6.16-9.17,8.17-3.63,2.01-7.93,3.01-12.9,3.01Z"/>
      <path class="cls-3" d="M413.2,180.48l27.08-38.69-26.94-38.55h16.05l23.07,33.53h-8.17l22.78-33.53h16.19l-26.94,38.55,26.8,38.69h-16.05l-22.78-33.53h8.02l-22.78,33.53h-16.34Z"/>
      <path class="cls-3" d="M351.53,182.19c-7.55,0-14.62-1.34-21.21-4.01-6.59-2.77-12.37-6.64-17.34-11.61-4.87-4.97-8.69-10.79-11.46-17.48-2.77-6.78-4.16-14.14-4.16-22.07s1.39-15.38,4.16-22.07c2.77-6.69,6.59-12.51,11.46-17.48,4.97-4.97,10.7-8.79,17.2-11.46,6.59-2.67,13.71-4.01,21.35-4.01s14.71,1.39,21.21,4.16c6.59,2.67,12.32,6.5,17.2,11.46,4.97,4.87,8.84,10.65,11.61,17.34,2.87,6.69,4.3,14.04,4.3,22.07s-1.43,15.28-4.3,22.07c-2.77,6.69-6.64,12.51-11.61,17.48-4.87,4.97-10.6,8.84-17.2,11.61-6.5,2.67-13.57,4.01-21.21,4.01ZM351.53,169.15c5.92,0,11.32-1.05,16.19-3.15,4.87-2.2,9.08-5.21,12.61-9.03,3.63-3.92,6.4-8.41,8.31-13.47,2.01-5.16,3.01-10.65,3.01-16.48s-1-11.27-3.01-16.33c-1.91-5.06-4.68-9.51-8.31-13.33-3.53-3.92-7.74-6.93-12.61-9.03-4.87-2.2-10.27-3.3-16.19-3.3s-11.18,1.1-16.05,3.3c-4.87,2.1-9.12,5.11-12.75,9.03-3.54,3.82-6.31,8.26-8.31,13.33-2.01,5.06-3.01,10.51-3.01,16.33s1,11.32,3.01,16.48c2.01,5.06,4.78,9.55,8.31,13.47,3.63,3.82,7.88,6.83,12.75,9.03,4.87,2.1,10.22,3.15,16.05,3.15Z"/>
    </g>
  </g>
</svg>