<svg width="524" height="153" viewBox="0 0 524 153" fill="none" xmlns="http://www.w3.org/2000/svg">
<g clip-path="url(#clip0_1_88)">
<mask id="mask0_1_88" style="mask-type:luminance" maskUnits="userSpaceOnUse" x="0" y="0" width="152" height="153">
<path d="M151.652 0H0V153H151.652V0Z" fill="white"/>
</mask>
<g mask="url(#mask0_1_88)">
<path d="M110.891 88.6845C110.891 90.0788 111.304 91.4422 112.074 92.602C112.845 93.7619 113.948 94.6688 115.231 95.1993C116.513 95.7299 117.931 95.8718 119.299 95.6003C120.662 95.3289 121.919 94.6564 122.906 93.6693C123.892 92.6822 124.558 91.4237 124.829 90.0541C125.1 88.6845 124.959 87.2655 124.428 85.9761C123.898 84.6867 122.992 83.5824 121.839 82.8113C120.68 82.0339 119.318 81.6206 117.931 81.6206C117.006 81.6206 116.094 81.8057 115.237 82.1573C114.38 82.5151 113.609 83.0334 112.956 83.6873C112.302 84.3413 111.785 85.1186 111.433 85.9761C111.082 86.8337 110.897 87.7529 110.897 88.6783L110.891 88.6845Z" fill="white"/>
<path d="M130.402 93.8297C130.402 94.8291 130.698 95.8039 131.253 96.6306C131.808 97.4573 132.591 98.1051 133.509 98.4876C134.428 98.8701 135.439 98.9688 136.413 98.7714C137.387 98.5739 138.287 98.0989 138.99 97.3894C139.692 96.6861 140.173 95.7854 140.364 94.8106C140.555 93.8297 140.457 92.8179 140.081 91.8987C139.698 90.9795 139.057 90.1898 138.231 89.6345C137.405 89.0793 136.431 88.7832 135.439 88.7832C134.107 88.7832 132.825 89.3137 131.882 90.2638C130.938 91.2077 130.408 92.491 130.408 93.8297H130.402Z" fill="white"/>
<path d="M136.135 108.433C135.987 109.228 136.08 110.049 136.4 110.789C136.721 111.53 137.251 112.159 137.929 112.603C138.607 113.041 139.396 113.269 140.204 113.257C141.012 113.245 141.794 112.992 142.46 112.535C143.126 112.079 143.638 111.431 143.934 110.678C144.23 109.926 144.297 109.105 144.131 108.315C143.964 107.526 143.564 106.804 142.984 106.236C142.405 105.675 141.677 105.292 140.882 105.15C140.358 105.052 139.816 105.064 139.292 105.175C138.768 105.286 138.274 105.502 137.831 105.804C137.393 106.107 137.017 106.495 136.721 106.946C136.431 107.396 136.234 107.902 136.135 108.426V108.433Z" fill="white"/>
<path d="M62.3808 31.9141C61.4499 30.8776 60.2354 30.1373 58.8854 29.798C57.5353 29.4525 56.1174 29.5204 54.8043 29.9831C53.4913 30.4458 52.3446 31.2971 51.5124 32.4138C50.6801 33.5304 50.1931 34.8754 50.1253 36.2696C50.0513 37.6639 50.3904 39.0458 51.1055 40.2489C51.8145 41.4457 52.8686 42.4081 54.1262 43.0127C55.3838 43.6112 56.7894 43.8271 58.1641 43.6297C59.5388 43.4323 60.8273 42.8215 61.8629 41.8899C63.25 40.6375 64.0822 38.8854 64.1809 37.0161C64.2795 35.1468 63.6322 33.3145 62.3869 31.9264L62.3808 31.9141Z" fill="white"/>
<path d="M35.4964 39.4222C36.5629 40.0946 37.802 40.4401 39.0596 40.4031C40.3172 40.3723 41.5378 39.9651 42.5611 39.2371C43.5906 38.5091 44.3797 37.4912 44.8297 36.3128C45.2797 35.1345 45.3722 33.8512 45.0948 32.6174C44.8174 31.3897 44.1824 30.2669 43.2701 29.397C42.3577 28.5271 41.211 27.9533 39.9658 27.7374C38.7267 27.5215 37.4506 27.6819 36.3039 28.2001C35.1573 28.7122 34.1833 29.5574 33.5113 30.6247C32.6113 32.056 32.3154 33.7834 32.6853 35.4368C33.0551 37.084 34.0661 38.5215 35.4964 39.4222Z" fill="white"/>
<path d="M20.8429 48.1271C21.8046 48.3862 22.8218 48.3492 23.765 48.0284C24.7082 47.7076 25.5343 47.1154 26.1384 46.3195C26.7426 45.5298 27.1001 44.5736 27.1679 43.5803C27.2357 42.587 27.0015 41.5938 26.5021 40.7301C26.0028 39.8664 25.263 39.1692 24.3691 38.7312C23.4753 38.287 22.4766 38.1266 21.4902 38.2562C20.5039 38.3857 19.5792 38.8052 18.8271 39.4654C18.0811 40.1255 17.5448 40.9892 17.2859 41.9516C17.1133 42.5932 17.0701 43.2595 17.1564 43.9135C17.2427 44.5674 17.4585 45.2029 17.7852 45.7766C18.112 46.3504 18.5558 46.8501 19.0798 47.2572C19.6038 47.6583 20.2018 47.9544 20.8429 48.1271Z" fill="white"/>
<path d="M8.11274 64.5438C8.00794 63.7418 7.66272 62.9891 7.13255 62.3845C6.60239 61.7799 5.89961 61.3419 5.12286 61.1321C4.34611 60.9224 3.52004 60.9532 2.75561 61.2123C1.99119 61.4715 1.3254 61.9527 0.832224 62.6005C0.345213 63.2421 0.0554713 64.0132 -1.10618e-05 64.8214C-0.0493287 65.6296 0.135612 66.4316 0.542483 67.1288C0.949354 67.8259 1.54733 68.3935 2.27477 68.7451C2.99604 69.103 3.80978 69.2325 4.61119 69.1276C5.14135 69.0598 5.65302 68.8809 6.11538 68.6156C6.57773 68.3441 6.9846 67.9863 7.31133 67.5606C7.63806 67.1349 7.87232 66.6476 8.01411 66.1293C8.14973 65.6111 8.18672 65.0682 8.11274 64.5376V64.5438Z" fill="white"/>
<path d="M12.2678 50.0705C12.3418 49.2685 12.1754 48.4541 11.7931 47.7446C11.4109 47.0352 10.8253 46.4552 10.1102 46.0789C9.39508 45.7026 8.5875 45.5483 7.78609 45.6286C6.98468 45.7088 6.22642 46.0357 5.60378 46.5478C4.98115 47.066 4.53112 47.7508 4.30303 48.5281C4.07494 49.3055 4.0811 50.126 4.31536 50.9034C4.55578 51.6745 5.01813 52.3593 5.64077 52.8714C6.26957 53.3834 7.02783 53.6919 7.83541 53.7659C8.91423 53.8646 9.98072 53.5315 10.813 52.8405C11.6452 52.1496 12.1692 51.1501 12.2678 50.0705Z" fill="white"/>
<path d="M80.7577 113.066C79.5185 113.701 78.4952 114.688 77.8171 115.904C77.139 117.119 76.8307 118.513 76.9417 119.901C77.0527 121.29 77.5705 122.616 78.4336 123.714C79.2966 124.806 80.4618 125.627 81.781 126.052C83.1064 126.484 84.5243 126.509 85.862 126.132C87.1998 125.756 88.3957 124.985 89.3019 123.924C90.2081 122.863 90.7753 121.561 90.9418 120.173C91.1082 118.791 90.8554 117.384 90.2266 116.144C89.8074 115.318 89.228 114.583 88.5252 113.979C87.8224 113.374 87.0087 112.918 86.1271 112.634C85.2456 112.35 84.3209 112.239 83.4023 112.313C82.4776 112.387 81.5837 112.64 80.7577 113.06V113.066Z" fill="white"/>
<path d="M96.7859 122.727C95.8612 123.584 95.2139 124.695 94.918 125.923C94.6221 127.15 94.7022 128.434 95.1338 129.618C95.5714 130.803 96.342 131.827 97.3592 132.573C98.3764 133.314 99.5908 133.739 100.848 133.789C102.106 133.838 103.351 133.511 104.418 132.857C105.49 132.197 106.341 131.234 106.871 130.087C107.395 128.939 107.574 127.662 107.377 126.416C107.18 125.17 106.619 124.01 105.768 123.085C105.201 122.468 104.516 121.974 103.758 121.623C103 121.271 102.18 121.074 101.348 121.043C100.516 121.012 99.6833 121.141 98.8942 121.431C98.1113 121.721 97.39 122.166 96.7797 122.733L96.7859 122.727Z" fill="white"/>
<path d="M114.164 118.988C113.665 119.852 113.437 120.845 113.498 121.839C113.56 122.832 113.918 123.788 114.528 124.578C115.132 125.367 115.958 125.96 116.901 126.287C117.845 126.607 118.862 126.638 119.817 126.385C120.779 126.126 121.642 125.59 122.295 124.837C122.955 124.09 123.368 123.159 123.504 122.172C123.633 121.185 123.467 120.179 123.029 119.284C122.591 118.39 121.895 117.643 121.032 117.15C120.458 116.817 119.83 116.601 119.176 116.514C118.523 116.428 117.857 116.471 117.216 116.644C116.575 116.817 115.977 117.113 115.453 117.514C114.929 117.915 114.491 118.421 114.158 118.995L114.164 118.988Z" fill="white"/>
<path d="M97.9634 40.0021C97.3963 41.2792 97.2175 42.6919 97.4579 44.0677C97.6922 45.4435 98.3271 46.7205 99.2888 47.7323C100.244 48.7441 101.483 49.4474 102.84 49.7558C104.196 50.0643 105.614 49.9594 106.915 49.4597C108.215 48.96 109.337 48.0839 110.139 46.9426C110.94 45.8013 111.39 44.4502 111.427 43.0559C111.464 41.6617 111.088 40.2859 110.342 39.1075C109.596 37.9292 108.524 36.9915 107.254 36.43C106.409 36.0537 105.503 35.844 104.578 35.8193C103.653 35.7946 102.735 35.955 101.872 36.2881C101.009 36.6213 100.22 37.121 99.5477 37.7565C98.8758 38.3919 98.3395 39.1569 97.9634 40.0021Z" fill="white"/>
<path d="M119.114 42.1922C118.282 43.1423 117.758 44.3145 117.592 45.5669C117.425 46.8192 117.635 48.0901 118.196 49.2191C118.751 50.3481 119.632 51.292 120.717 51.9213C121.808 52.5506 123.06 52.8467 124.311 52.7603C125.569 52.6801 126.771 52.2236 127.764 51.4586C128.756 50.6936 129.508 49.6448 129.915 48.4479C130.316 47.2511 130.359 45.9679 130.032 44.7463C129.705 43.5248 129.027 42.4328 128.084 41.6C126.814 40.4833 125.156 39.9219 123.473 40.0329C121.79 40.144 120.218 40.9213 119.108 42.1922H119.114Z" fill="white"/>
<path d="M131.216 60.9594C131.758 61.7984 132.535 62.4524 133.447 62.8472C134.36 63.2421 135.371 63.3531 136.351 63.1742C137.331 62.9953 138.231 62.5264 138.946 61.8293C139.661 61.1321 140.148 60.2376 140.358 59.2628C140.568 58.2881 140.481 57.2701 140.111 56.3447C139.742 55.4193 139.107 54.6235 138.287 54.0559C137.467 53.4883 136.499 53.1798 135.5 53.1675C134.508 53.1552 133.528 53.439 132.695 53.9819C132.14 54.3397 131.66 54.8085 131.29 55.3515C130.914 55.8944 130.655 56.5113 130.513 57.1591C130.377 57.8069 130.365 58.4731 130.488 59.1271C130.612 59.781 130.858 60.398 131.216 60.9532V60.9594Z" fill="white"/>
<path d="M143.81 70.1888C144.119 70.9353 144.643 71.5707 145.315 72.0211C145.986 72.4653 146.776 72.7059 147.577 72.7059C148.385 72.7059 149.167 72.4653 149.839 72.0149C150.511 71.5645 151.029 70.9291 151.337 70.1764C151.646 69.4299 151.726 68.6094 151.566 67.8136C151.405 67.0239 151.017 66.2959 150.45 65.7222C149.876 65.1484 149.155 64.7659 148.36 64.6055C147.571 64.4513 146.751 64.5315 146.005 64.8399C145.006 65.2594 144.217 66.0553 143.804 67.0547C143.391 68.0603 143.391 69.1832 143.804 70.1826L143.81 70.1888Z" fill="white"/>
<path d="M38.9487 75.1983C38.5172 73.8719 37.7034 72.7059 36.6123 71.8421C35.5211 70.9784 34.1957 70.4602 32.8086 70.3492C31.4216 70.2381 30.0345 70.5466 28.8201 71.2252C27.6056 71.91 26.6193 72.9341 25.9905 74.1742C25.3617 75.4204 25.1089 76.8208 25.2754 78.2027C25.4357 79.5847 26.009 80.8926 26.909 81.9537C27.8152 83.0148 29.0112 83.7798 30.3489 84.1623C31.6867 84.5387 33.1107 84.514 34.43 84.0821C35.3115 83.7983 36.1253 83.3418 36.828 82.7372C37.5308 82.1326 38.1103 81.3985 38.5295 80.5779C38.9487 79.7513 39.2014 78.8505 39.2754 77.9313C39.3494 77.0059 39.2384 76.0805 38.9549 75.1983H38.9487Z" fill="white"/>
<path d="M27.47 89.8567C26.7734 88.8079 25.7809 87.9873 24.6157 87.5061C23.4568 87.0249 22.1745 86.8954 20.9416 87.1421C19.7086 87.3889 18.5743 87.9935 17.6866 88.8881C16.7989 89.7765 16.1886 90.9178 15.942 92.1517C15.6954 93.3855 15.8187 94.6688 16.2995 95.8348C16.7804 97.0008 17.5941 97.994 18.6421 98.6973C19.6901 99.4007 20.9169 99.7708 22.1745 99.777C23.4321 99.777 24.6589 99.4068 25.7069 98.7035C27.1063 97.7658 28.0803 96.3036 28.4132 94.6441C28.7399 92.9845 28.4009 91.2633 27.4638 89.8567H27.47Z" fill="white"/>
<path d="M27.8337 114.719C28.4625 113.942 28.8448 112.998 28.9311 112.005C29.0235 111.011 28.8201 110.012 28.3454 109.136C27.8707 108.26 27.1495 107.544 26.2679 107.081C25.3864 106.619 24.3877 106.428 23.4013 106.532C22.4088 106.637 21.4779 107.032 20.7135 107.674C19.9491 108.309 19.3881 109.161 19.1045 110.117C18.8209 111.073 18.8271 112.091 19.123 113.047C19.4189 113.997 19.9861 114.843 20.7628 115.472C21.2745 115.891 21.8663 116.2 22.5013 116.391C23.1362 116.576 23.802 116.638 24.4555 116.57C25.1151 116.502 25.7501 116.305 26.3296 115.984C26.909 115.669 27.4207 115.237 27.8399 114.725" fill="white"/>
<path d="M40.1754 138.422C40.4035 137.644 40.3973 136.824 40.1569 136.047C39.9165 135.275 39.4541 134.591 38.8253 134.085C38.1965 133.579 37.4321 133.27 36.6307 133.196C35.8293 133.122 35.0217 133.289 34.3128 133.678C33.6038 134.066 33.0305 134.652 32.6545 135.368C32.2784 136.084 32.1243 136.898 32.2106 137.7C32.2969 138.502 32.6175 139.261 33.1353 139.884C33.6531 140.507 34.3374 140.957 35.1142 141.186C36.1498 141.488 37.2657 141.371 38.215 140.853C39.1644 140.334 39.8672 139.458 40.1754 138.422Z" fill="white"/>
<path d="M27.1062 129.248C27.5008 128.545 27.6795 127.736 27.6179 126.928C27.5562 126.12 27.2542 125.355 26.7548 124.72C26.2555 124.084 25.5835 123.615 24.8129 123.362C24.0485 123.116 23.2225 123.097 22.4457 123.313C21.6689 123.529 20.9785 123.973 20.4545 124.59C19.9305 125.201 19.5976 125.96 19.5051 126.762C19.4127 127.564 19.5545 128.378 19.9182 129.1C20.2819 129.822 20.8552 130.414 21.558 130.809C22.5012 131.339 23.617 131.469 24.6527 131.179C25.6945 130.883 26.5761 130.192 27.1062 129.248Z" fill="white"/>
<path d="M93.4816 24.2641C93.3028 25.5103 93.4939 26.7873 94.0364 27.9225C94.5789 29.0638 95.442 30.0139 96.5269 30.6555C97.6058 31.3033 98.8572 31.6118 100.109 31.5439C101.366 31.476 102.575 31.038 103.579 30.2854C104.59 29.5327 105.349 28.4962 105.768 27.3056C106.187 26.1149 106.249 24.8317 105.94 23.6101C105.632 22.3886 104.966 21.2843 104.036 20.4391C103.099 19.5939 101.94 19.0448 100.694 18.8659C99.0236 18.6253 97.3284 19.0571 95.9783 20.0689C94.6282 21.0807 93.7282 22.586 93.4877 24.2641" fill="white"/>
<path d="M88.5991 13.0482C88.445 12.0611 88.0012 11.148 87.323 10.4139C86.6449 9.67971 85.7695 9.16765 84.8017 8.93321C83.8338 8.69878 82.8166 8.76047 81.8858 9.10596C80.9549 9.45144 80.1412 10.0684 79.5555 10.8766C78.9699 11.6847 78.637 12.6472 78.6 13.6466C78.563 14.646 78.8157 15.627 79.3397 16.4783C79.8576 17.3297 80.622 18.0083 81.5221 18.4217C82.4221 18.8412 83.4331 18.9769 84.4133 18.8227C85.0668 18.7178 85.6894 18.4895 86.2565 18.1441C86.8175 17.7986 87.3107 17.342 87.6991 16.8053C88.0875 16.2686 88.3649 15.664 88.519 15.0162C88.6731 14.3746 88.6978 13.7021 88.593 13.0482H88.5991Z" fill="white"/>
<path d="M60.2108 4.10262C59.7916 3.41166 59.1751 2.86875 58.4415 2.52944C57.7079 2.19012 56.8942 2.07907 56.0989 2.20863C55.3037 2.33819 54.5639 2.69601 53.9721 3.24508C53.3803 3.79416 52.9673 4.5098 52.7761 5.29331C52.5912 6.07682 52.6405 6.90351 52.9179 7.66234C53.1953 8.42117 53.6947 9.07512 54.3481 9.55016C55.0016 10.0252 55.7784 10.2905 56.5859 10.3213C57.3935 10.3522 58.1888 10.1424 58.873 9.71674C59.3292 9.43295 59.7238 9.06895 60.0382 8.63093C60.3526 8.1929 60.5807 7.70553 60.704 7.18113C60.8273 6.65674 60.8457 6.12 60.7656 5.58944C60.6793 5.05887 60.4944 4.55299 60.2108 4.09645V4.10262Z" fill="white"/>
<path d="M71.3134 0.215927C70.549 0.47504 69.8832 0.956249 69.39 1.59786C68.8968 2.23948 68.6071 3.01064 68.5578 3.81883C68.5023 4.62702 68.6934 5.42903 69.0941 6.13234C69.4948 6.83564 70.0989 7.39706 70.8202 7.75488C71.5415 8.1127 72.3552 8.24843 73.1566 8.14355C73.958 8.03867 74.704 7.69935 75.3143 7.16262C75.9184 6.63206 76.3561 5.92875 76.5657 5.14524C76.7753 4.36173 76.7445 3.54121 76.4856 2.77004C76.313 2.26415 76.0417 1.79528 75.6903 1.3881C75.3389 0.987096 74.9074 0.653951 74.4327 0.419515C73.9519 0.18508 73.434 0.0431848 72.8977 0.00616865C72.3614 -0.0308475 71.8312 0.0431848 71.3195 0.215927H71.3134Z" fill="white"/>
<path d="M52.2459 116.015C52.098 117.403 52.3692 118.803 53.0165 120.037C53.6638 121.271 54.6625 122.283 55.8831 122.949C57.1037 123.615 58.497 123.899 59.884 123.776C61.2711 123.646 62.5842 123.109 63.6691 122.233C64.748 121.357 65.5494 120.173 65.9563 118.84C66.3693 117.508 66.3755 116.083 65.9809 114.744C65.5864 113.405 64.8035 112.214 63.7308 111.326C62.6581 110.431 61.3512 109.882 59.9703 109.734C59.0518 109.636 58.1209 109.722 57.2394 109.987C56.3516 110.253 55.5256 110.684 54.8105 111.27C54.0954 111.85 53.4974 112.572 53.0535 113.387C52.6158 114.201 52.3384 115.095 52.2398 116.015H52.2459Z" fill="white"/>
<path d="M70.5551 139.137C71.7942 138.922 72.947 138.348 73.8594 137.478C74.7718 136.608 75.4067 135.491 75.6841 134.258C75.9616 133.03 75.8691 131.74 75.4191 130.562C74.969 129.384 74.18 128.366 73.1505 127.638C72.1209 126.91 70.9065 126.503 69.6489 126.472C68.3913 126.441 67.1522 126.78 66.0857 127.453C65.0192 128.125 64.1808 129.1 63.6691 130.254C63.1575 131.407 62.9972 132.684 63.2129 133.931C63.3547 134.757 63.6568 135.547 64.1007 136.256C64.5445 136.966 65.124 137.577 65.8083 138.064C66.4926 138.545 67.2632 138.891 68.0769 139.076C68.8906 139.261 69.7352 139.286 70.5551 139.144" fill="white"/>
<path d="M91.3486 135.399C90.8986 134.51 90.1897 133.776 89.3266 133.289C88.4574 132.802 87.4649 132.586 86.4724 132.66C85.4798 132.74 84.5366 133.11 83.7537 133.727C82.9708 134.344 82.3913 135.183 82.0831 136.127C81.7749 137.077 81.7564 138.095 82.0276 139.057C82.2989 140.02 82.8475 140.877 83.5996 141.525C84.3579 142.173 85.2887 142.58 86.2751 142.697C87.2614 142.814 88.2601 142.635 89.1478 142.185C90.3376 141.581 91.2377 140.519 91.6507 139.249C92.0638 137.978 91.9528 136.59 91.3486 135.399Z" fill="white"/>
<path d="M112.013 134.492C111.489 135.109 111.162 135.862 111.07 136.67C110.977 137.472 111.119 138.286 111.489 139.008C111.859 139.73 112.426 140.322 113.135 140.717C113.837 141.112 114.645 141.284 115.446 141.223C116.248 141.155 117.018 140.853 117.647 140.353C118.282 139.853 118.751 139.174 118.997 138.403C119.244 137.632 119.262 136.812 119.041 136.028C118.819 135.251 118.375 134.554 117.764 134.029C116.938 133.326 115.872 132.98 114.793 133.067C113.714 133.153 112.716 133.665 112.013 134.492Z" fill="white"/>
<path d="M98.0188 141.463C97.3715 141.945 96.8845 142.611 96.6132 143.376C96.342 144.141 96.305 144.961 96.5023 145.745C96.6995 146.528 97.1249 147.238 97.7229 147.775C98.3209 148.317 99.0668 148.669 99.862 148.78C100.657 148.897 101.477 148.774 102.205 148.429C102.932 148.083 103.542 147.528 103.955 146.831C104.368 146.14 104.566 145.338 104.523 144.529C104.479 143.721 104.202 142.944 103.721 142.296C103.401 141.864 103 141.5 102.538 141.229C102.075 140.951 101.57 140.772 101.039 140.692C100.509 140.618 99.9668 140.643 99.449 140.772C98.9312 140.902 98.4442 141.136 98.0126 141.457L98.0188 141.463Z" fill="white"/>
<path d="M35.5088 106.557C36.5876 107.433 37.9068 107.97 39.2939 108.099C40.6809 108.229 42.068 107.939 43.2948 107.273C44.5154 106.606 45.5141 105.595 46.1614 104.361C46.8087 103.127 47.0799 101.726 46.932 100.338C46.784 98.9503 46.2353 97.6362 45.3476 96.5689C44.4599 95.4954 43.2701 94.7119 41.9385 94.3171C40.607 93.9222 39.1829 93.9284 37.8575 94.3418C36.5259 94.7551 35.3546 95.551 34.4792 96.6368C33.8998 97.3586 33.4621 98.1853 33.197 99.0737C32.9319 99.962 32.8456 100.894 32.9442 101.819C33.0429 102.738 33.3203 103.633 33.758 104.447C34.2018 105.262 34.7936 105.983 35.5149 106.563L35.5088 106.557Z" fill="white"/>
<path d="M37.4938 126.015C38.6466 126.515 39.9288 126.657 41.1618 126.429C42.4009 126.2 43.5414 125.608 44.4414 124.726C45.3415 123.844 45.9641 122.715 46.223 121.481C46.4819 120.247 46.3771 118.964 45.9086 117.791C45.4401 116.619 44.6387 115.614 43.603 114.898C42.5673 114.182 41.3406 113.794 40.083 113.775C38.8254 113.757 37.5924 114.115 36.5383 114.806C35.4841 115.49 34.6519 116.477 34.1587 117.637C33.4929 119.192 33.4682 120.95 34.097 122.517C34.7197 124.09 35.9403 125.349 37.4938 126.015Z" fill="white"/>
<path d="M52.061 128.946C51.0746 128.841 50.076 129.032 49.1944 129.501C48.3128 129.964 47.5916 130.679 47.1169 131.555C46.6422 132.431 46.4388 133.431 46.5251 134.424C46.6176 135.417 46.9998 136.361 47.6224 137.139C48.2512 137.916 49.0896 138.484 50.039 138.78C50.9883 139.076 52.0055 139.082 52.961 138.798C53.9166 138.514 54.7611 137.953 55.4023 137.188C56.0372 136.423 56.4318 135.485 56.5366 134.492C56.6783 133.159 56.2838 131.827 55.4454 130.79C54.607 129.748 53.3864 129.088 52.061 128.946Z" fill="white"/>
<path d="M74.5437 144.998C73.7731 145.227 73.0827 145.683 72.571 146.306C72.0593 146.929 71.7388 147.688 71.6525 148.496C71.5723 149.298 71.7264 150.113 72.1025 150.828C72.4785 151.544 73.058 152.13 73.767 152.513C74.4759 152.895 75.2835 153.062 76.0849 152.988C76.8863 152.914 77.6507 152.599 78.2734 152.093C78.896 151.581 79.3583 150.896 79.5988 150.125C79.8392 149.354 79.8392 148.527 79.6111 147.75C79.3029 146.713 78.5939 145.837 77.6446 145.325C76.6952 144.807 75.5794 144.696 74.5437 145.005V144.998Z" fill="white"/>
<path d="M63.4903 147.151C63.4348 146.343 63.1451 145.572 62.6581 144.93C62.171 144.289 61.4991 143.808 60.7347 143.549C59.9702 143.289 59.1503 143.265 58.3736 143.468C57.5968 143.678 56.8941 144.11 56.3639 144.721C55.8337 145.331 55.4947 146.078 55.3899 146.88C55.2851 147.682 55.4207 148.496 55.7721 149.218C56.1296 149.946 56.6906 150.545 57.3872 150.952C58.0838 151.353 58.8853 151.544 59.6928 151.495C60.7717 151.421 61.7765 150.927 62.4916 150.113C63.2067 149.298 63.5643 148.231 63.4965 147.151" fill="white"/>
<path d="M111.489 26.2814C111.082 27.1945 110.959 28.2063 111.125 29.1872C111.292 30.1681 111.748 31.0812 112.432 31.803C113.116 32.5248 113.998 33.0307 114.972 33.2528C115.94 33.4749 116.957 33.4009 117.882 33.0431C118.812 32.6852 119.614 32.0621 120.187 31.2478C120.761 30.4334 121.081 29.4648 121.106 28.4716C121.13 27.4721 120.859 26.4912 120.329 25.646C119.799 24.8008 119.028 24.1345 118.122 23.7273C117.518 23.4559 116.871 23.3078 116.211 23.2955C115.551 23.277 114.892 23.3942 114.275 23.6286C113.659 23.8631 113.092 24.2209 112.617 24.6774C112.136 25.1339 111.754 25.6769 111.483 26.2876L111.489 26.2814Z" fill="white"/>
<path d="M93.7776 7.15027C93.7591 7.95846 93.9749 8.7543 94.4064 9.4391C94.8379 10.1239 95.4606 10.6606 96.2003 10.9876C96.9339 11.3146 97.7538 11.4133 98.5491 11.2776C99.3443 11.1418 100.078 10.7655 100.664 10.2103C101.249 9.65503 101.65 8.93321 101.829 8.14354C102.007 7.35386 101.946 6.53333 101.656 5.7745C101.366 5.02184 100.861 4.36789 100.201 3.90519C99.5416 3.44249 98.7587 3.18338 97.9573 3.1587C97.4209 3.14636 96.8908 3.2389 96.3914 3.43015C95.8921 3.6214 95.4359 3.91136 95.0475 4.28152C94.6591 4.65168 94.3509 5.09588 94.129 5.58325C93.9132 6.0768 93.7961 6.6012 93.7838 7.13793L93.7776 7.15027Z" fill="white"/>
<path d="M128.411 28.2433C127.955 28.9096 127.708 29.6993 127.702 30.5074C127.696 31.3156 127.924 32.1053 128.362 32.7839C128.799 33.4626 129.434 33.9931 130.174 34.3078C130.914 34.6224 131.734 34.7149 132.523 34.5669C133.312 34.4188 134.045 34.0363 134.619 33.4749C135.192 32.9073 135.593 32.1855 135.759 31.3958C135.926 30.6062 135.852 29.7856 135.556 29.033C135.254 28.2803 134.742 27.6387 134.076 27.1822C133.632 26.8799 133.139 26.6639 132.615 26.5529C132.091 26.4418 131.549 26.4357 131.025 26.5344C130.501 26.6331 129.995 26.8367 129.545 27.1266C129.095 27.4228 128.713 27.7991 128.411 28.2433Z" fill="white"/>
<path d="M108.524 13.2518C108.326 14.0353 108.363 14.862 108.634 15.6208C108.906 16.3796 109.393 17.0459 110.04 17.5333C110.687 18.0145 111.458 18.2983 112.265 18.3415C113.067 18.3847 113.868 18.1873 114.559 17.7739C115.249 17.3606 115.804 16.7498 116.155 16.0218C116.501 15.2938 116.624 14.4795 116.513 13.6775C116.396 12.8754 116.051 12.129 115.508 11.5305C114.972 10.9321 114.263 10.5002 113.486 10.3028C112.438 10.0375 111.328 10.1979 110.398 10.7532C109.467 11.3084 108.795 12.2092 108.53 13.2579L108.524 13.2518Z" fill="white"/>
<path d="M137.381 47.3189C137.929 47.9112 138.638 48.3307 139.421 48.522C140.204 48.7132 141.024 48.6639 141.782 48.3862C142.54 48.1086 143.194 47.6089 143.669 46.955C144.143 46.301 144.414 45.5237 144.445 44.7155C144.476 43.9073 144.273 43.1115 143.847 42.4205C143.428 41.7295 142.812 41.1804 142.078 40.8411C141.344 40.5018 140.531 40.3908 139.735 40.5142C138.94 40.6375 138.2 41.0015 137.609 41.5444C136.813 42.2786 136.345 43.3027 136.302 44.3823C136.259 45.4681 136.647 46.5231 137.381 47.3189Z" fill="white"/>
<path d="M40.5083 46.4923C39.1644 46.1283 37.7403 46.1776 36.4273 46.628C35.108 47.0783 33.9552 47.905 33.1045 49.0155C32.2599 50.1198 31.7544 51.4586 31.6619 52.8467C31.5695 54.2348 31.89 55.6291 32.5866 56.8383C33.2833 58.0475 34.3189 59.0222 35.5704 59.6391C36.8156 60.2561 38.2212 60.4905 39.6021 60.3054C40.983 60.1265 42.2776 59.5343 43.3256 58.615C44.3736 57.6958 45.1257 56.4866 45.4832 55.1355C45.9641 53.3279 45.7175 51.4031 44.7804 49.7805C43.8496 48.158 42.3084 46.9735 40.5083 46.4923Z" fill="white"/>
<path d="M21.8478 67.6038C23.1054 67.5853 24.3321 67.1966 25.3678 66.481C26.4035 65.7653 27.2049 64.7597 27.6734 63.5875C28.1419 62.4154 28.2467 61.1321 27.9878 59.8983C27.7289 58.6644 27.1063 57.5354 26.2062 56.6532C25.3062 55.771 24.1657 55.1787 22.9266 54.9505C21.6875 54.7222 20.4114 54.8641 19.2586 55.3638C18.0996 55.8635 17.1194 56.6902 16.4352 57.7513C15.7509 58.8063 15.3933 60.0463 15.4118 61.3111C15.4365 63.0015 16.1269 64.6117 17.3352 65.7962C18.5435 66.9745 20.171 67.6285 21.8539 67.6038H21.8478Z" fill="white"/>
<path d="M17.7359 76.1052C17.4277 75.1551 16.8482 74.3222 16.0653 73.6991C15.2823 73.0822 14.3391 72.712 13.3466 72.6318C12.3541 72.5516 11.3616 72.7737 10.4924 73.2611C9.62314 73.7485 8.92037 74.4826 8.47034 75.371C8.02032 76.2594 7.84154 77.265 7.95867 78.2521C8.0758 79.2454 8.48267 80.177 9.12997 80.9358C9.77726 81.6946 10.6342 82.2437 11.5897 82.5151C12.5452 82.7866 13.5624 82.7681 14.5118 82.4596C15.7817 82.0463 16.8358 81.1455 17.44 79.9549C18.0441 78.7642 18.1551 77.3761 17.7421 76.1052H17.7359Z" fill="white"/>
<path d="M12.6007 103.293C12.0767 102.677 11.3801 102.232 10.6033 102.016C9.82659 101.801 9.00052 101.813 8.2361 102.066C7.47168 102.319 6.79356 102.788 6.29422 103.423C5.79488 104.058 5.49897 104.83 5.43732 105.638C5.37568 106.446 5.55445 107.248 5.94899 107.958C6.34353 108.661 6.94151 109.235 7.65662 109.599C8.37789 109.963 9.18546 110.111 9.98688 110.012C10.7883 109.913 11.5404 109.58 12.1507 109.056C12.5576 108.704 12.8905 108.278 13.1309 107.803C13.3713 107.328 13.5193 106.804 13.5624 106.267C13.6056 105.73 13.5377 105.194 13.3713 104.682C13.2049 104.17 12.9398 103.701 12.5945 103.293H12.6007Z" fill="white"/>
<path d="M8.0326 88.8511C7.65656 88.1354 7.07707 87.5493 6.3743 87.1607C5.66536 86.772 4.85778 86.6054 4.05637 86.6794C3.25496 86.7535 2.49053 87.0619 1.86173 87.574C1.23293 88.0799 0.770579 88.7647 0.530156 89.5359C0.289732 90.307 0.283567 91.1337 0.511662 91.9111C0.739756 92.6884 1.19594 93.3732 1.81241 93.8914C2.43505 94.4096 3.19331 94.7305 3.99472 94.8168C4.79613 94.9032 5.60371 94.7428 6.31881 94.3665C7.27434 93.8606 7.98945 92.9969 8.31001 91.9604C8.63058 90.924 8.53194 89.8073 8.02644 88.8449L8.0326 88.8511Z" fill="white"/>
<path d="M88.6424 31.6364C88.4266 30.2607 87.804 28.9775 86.8608 27.9472C85.9176 26.9169 84.6908 26.2012 83.3346 25.8743C81.9783 25.5473 80.5604 25.6337 79.2535 26.1149C77.9466 26.5961 76.8123 27.4598 75.9924 28.5888C75.1725 29.7178 74.7101 31.0627 74.6547 32.457C74.5992 33.8512 74.9567 35.2332 75.6842 36.4239C76.4116 37.6146 77.4719 38.5585 78.7357 39.1446C79.9995 39.7306 81.4112 39.9219 82.7859 39.706C83.6983 39.5641 84.5737 39.2371 85.3627 38.7559C86.1518 38.2747 86.8361 37.6392 87.3786 36.8866C87.9211 36.1339 88.3156 35.2887 88.5314 34.388C88.7472 33.4873 88.7842 32.5495 88.6362 31.6364H88.6424Z" fill="white"/>
<path d="M73.8039 17.8973C73.2799 16.7498 72.423 15.7874 71.3504 15.1334C70.2777 14.4733 69.0324 14.1525 67.781 14.2018C66.5234 14.2512 65.3089 14.6707 64.2918 15.4172C63.2746 16.1575 62.4978 17.1878 62.0663 18.3662C61.6286 19.5507 61.5546 20.8339 61.8505 22.0616C62.1465 23.2893 62.7937 24.3998 63.7185 25.2573C64.6432 26.1149 65.796 26.6763 67.0412 26.8737C68.2803 27.0711 69.5564 26.8922 70.6969 26.3678C71.4552 26.0162 72.1394 25.5226 72.7066 24.9057C73.2737 24.2887 73.7114 23.5669 74.0012 22.7834C74.2909 21.9999 74.4204 21.1609 74.3896 20.328C74.3587 19.489 74.1615 18.6685 73.8101 17.9096L73.8039 17.8973Z" fill="white"/>
<path d="M51.913 23.1659C52.6528 22.4996 53.1768 21.6236 53.4234 20.6612C53.6699 19.6926 53.6206 18.6746 53.2877 17.7369C52.9548 16.7991 52.3507 15.9786 51.5554 15.3802C50.7602 14.7818 49.8047 14.4363 48.8121 14.3869C47.8196 14.3376 46.8333 14.5782 45.9764 15.0902C45.1195 15.6023 44.4352 16.355 44.0098 17.2495C43.5783 18.1502 43.4304 19.1558 43.5721 20.1429C43.7139 21.13 44.1455 22.0554 44.8113 22.7958C45.2551 23.2893 45.7853 23.6903 46.3833 23.9741C46.9812 24.2579 47.6285 24.4245 48.2882 24.4615C48.9478 24.4985 49.6074 24.3998 50.23 24.1777C50.8527 23.9556 51.426 23.6163 51.9192 23.1721L51.913 23.1659Z" fill="white"/>
<path d="M25.3986 29.5944C25.7438 28.8664 25.8671 28.0459 25.75 27.25C25.6328 26.448 25.2815 25.7015 24.739 25.1031C24.1965 24.5047 23.4937 24.079 22.7108 23.8816C21.9279 23.6841 21.1079 23.7212 20.3497 23.9926C19.5914 24.2641 18.9256 24.7514 18.4448 25.4054C17.9639 26.0532 17.6865 26.8305 17.6434 27.6387C17.6002 28.4469 17.8037 29.2489 18.2167 29.9399C18.6297 30.6308 19.24 31.1923 19.9675 31.5377C20.4483 31.766 20.9723 31.9017 21.5087 31.9264C22.045 31.9511 22.5813 31.8771 23.0807 31.6981C23.5862 31.5192 24.0485 31.2416 24.4492 30.8776C24.8438 30.5198 25.1705 30.0818 25.3986 29.5944Z" fill="white"/>
<path d="M36.8834 19.8591C37.3828 19.2237 37.6848 18.4587 37.7465 17.6505C37.8081 16.8423 37.6355 16.0403 37.241 15.3308C36.8465 14.6214 36.2546 14.0538 35.5334 13.6836C34.8121 13.3135 34.0045 13.1716 33.2031 13.2641C32.4017 13.3566 31.6496 13.6898 31.0331 14.2142C30.4167 14.7386 29.979 15.4357 29.757 16.2131C29.5351 16.9904 29.5536 17.8171 29.8064 18.5883C30.0529 19.3594 30.5276 20.0319 31.1564 20.5378C31.5756 20.8709 32.0565 21.1177 32.5743 21.2596C33.0921 21.4077 33.6285 21.4508 34.1586 21.383C34.6888 21.3213 35.2066 21.1547 35.669 20.8894C36.1375 20.6303 36.5444 20.2725 36.8773 19.853L36.8834 19.8591Z" fill="white"/>
<path d="M114.096 57.85C112.931 58.6089 112.013 59.7008 111.464 60.9841C110.915 62.2673 110.755 63.6801 111.014 65.0558C111.267 66.4254 111.92 67.6902 112.894 68.6896C113.862 69.689 115.107 70.3738 116.47 70.6638C117.832 70.9537 119.244 70.8365 120.539 70.3183C121.833 69.8001 122.943 68.9117 123.732 67.7642C124.521 66.6167 124.952 65.2594 124.971 63.8652C124.989 62.4709 124.595 61.1013 123.837 59.9291C122.819 58.3621 121.223 57.2578 119.398 56.8691C117.573 56.4804 115.668 56.8321 114.103 57.85H114.096Z" fill="white"/>
<path d="M130.877 71.2252C129.668 71.5707 128.583 72.2617 127.764 73.2179C126.95 74.1803 126.432 75.3587 126.284 76.6111C126.136 77.8634 126.358 79.1343 126.931 80.2571C127.505 81.38 128.392 82.3115 129.49 82.9285C130.587 83.5454 131.845 83.823 133.096 83.7243C134.347 83.6256 135.55 83.1567 136.536 82.3732C137.522 81.5959 138.256 80.5348 138.65 79.3379C139.039 78.1411 139.063 76.8517 138.724 75.6363C138.496 74.8281 138.114 74.0755 137.596 73.4215C137.078 72.7614 136.437 72.2123 135.71 71.8051C134.982 71.398 134.181 71.1327 133.349 71.034C132.517 70.9353 131.678 71.0031 130.877 71.2314V71.2252Z" fill="white"/>
<path d="M143.299 85.8774C143.434 86.6733 143.804 87.4136 144.359 87.9997C144.914 88.5858 145.629 88.9929 146.418 89.1718C147.207 89.3508 148.027 89.2891 148.779 88.9991C149.531 88.7091 150.185 88.2033 150.647 87.5431C151.109 86.883 151.374 86.0995 151.393 85.2913C151.411 84.4831 151.196 83.6873 150.764 83.0025C150.332 82.3177 149.71 81.781 148.976 81.4478C148.243 81.1208 147.423 81.016 146.628 81.1517C146.097 81.2442 145.592 81.4355 145.142 81.7193C144.692 82.0092 144.297 82.3794 143.989 82.8174C143.681 83.2554 143.459 83.749 143.342 84.2734C143.225 84.7978 143.212 85.3407 143.299 85.8712V85.8774Z" fill="white"/>
<path d="M100.004 104.515C99.3072 105.724 98.9867 107.112 99.073 108.507C99.1654 109.901 99.6648 111.233 100.516 112.344C101.366 113.448 102.519 114.281 103.838 114.731C105.158 115.182 106.575 115.225 107.919 114.867C109.263 114.503 110.472 113.751 111.39 112.702C112.309 111.653 112.894 110.351 113.079 108.969C113.258 107.587 113.03 106.181 112.413 104.928C111.797 103.676 110.823 102.633 109.621 101.936C108.006 100.998 106.082 100.746 104.282 101.233C102.482 101.72 100.941 102.899 100.01 104.521L100.004 104.515Z" fill="white"/>
<path d="M117.006 106.193C116.636 107.396 116.624 108.686 116.981 109.895C117.339 111.104 118.048 112.184 119.016 112.986C119.984 113.794 121.167 114.293 122.419 114.423C123.67 114.553 124.934 114.312 126.044 113.726C127.159 113.14 128.072 112.233 128.67 111.122C129.268 110.012 129.527 108.753 129.416 107.495C129.299 106.236 128.818 105.046 128.022 104.065C127.227 103.084 126.167 102.362 124.965 101.986C123.356 101.486 121.611 101.646 120.119 102.436C118.627 103.226 117.505 104.571 117.006 106.187V106.193Z" fill="white"/>
<path d="M127.326 121.45C127.005 122.19 126.913 123.011 127.061 123.807C127.209 124.602 127.585 125.337 128.146 125.917C128.707 126.496 129.428 126.891 130.217 127.064C131.006 127.231 131.826 127.163 132.572 126.86C133.318 126.558 133.965 126.046 134.421 125.38C134.878 124.714 135.124 123.924 135.137 123.116C135.149 122.307 134.921 121.512 134.483 120.839C134.045 120.161 133.417 119.63 132.677 119.309C132.184 119.099 131.66 118.982 131.123 118.976C130.587 118.97 130.057 119.069 129.558 119.266C129.058 119.463 128.608 119.76 128.226 120.136C127.844 120.512 127.536 120.956 127.326 121.45Z" fill="white"/>
</g>
<path d="M502.004 112.406C497.233 112.406 492.992 111.314 489.28 109.136C485.631 106.896 482.77 103.892 480.711 100.116C478.652 96.2851 477.623 92.0159 477.623 87.2964C477.623 82.5768 478.652 78.1904 480.711 74.4765C482.832 70.7625 485.662 67.8444 489.194 65.7221C492.726 63.5444 496.734 62.4524 501.209 62.4524C504.803 62.4524 508.009 63.0693 510.838 64.3094C513.668 65.5494 516.048 67.2583 517.996 69.4361C519.937 71.5584 521.411 74.0014 522.416 76.7715C523.476 79.5415 524.006 82.4905 524.006 85.6122C524.006 86.3772 523.975 87.173 523.92 87.9997C523.858 88.8264 523.741 89.5914 523.568 90.2947H485.495V82.3362H517.915L513.144 85.9638C513.736 83.0765 513.526 80.5101 512.527 78.2706C511.584 75.9694 510.111 74.1742 508.107 72.8786C506.165 71.5213 503.866 70.8427 501.215 70.8427C498.564 70.8427 496.21 71.5213 494.15 72.8786C492.091 74.1742 490.501 76.062 489.379 78.5359C488.257 80.9543 487.819 83.8971 488.054 87.3766C487.758 90.6155 488.202 93.4472 489.379 95.8656C490.618 98.284 492.326 100.166 494.502 101.523C496.74 102.88 499.273 103.559 502.097 103.559C504.92 103.559 507.423 102.911 509.427 101.615C511.486 100.32 513.107 98.6418 514.284 96.5751L522.409 100.554C521.466 102.794 519.993 104.83 517.989 106.656C516.048 108.426 513.693 109.839 510.925 110.9C508.218 111.9 505.241 112.406 502.004 112.406Z" fill="white"/>
<path d="M452.027 112.406C447.138 112.406 442.842 111.196 439.131 108.778C435.481 106.36 432.916 103.121 431.443 99.0552L439.131 95.4276C440.425 98.1359 442.194 100.289 444.432 101.881C446.732 103.472 449.259 104.268 452.027 104.268C454.382 104.268 456.293 103.738 457.766 102.677C459.24 101.615 459.973 100.172 459.973 98.3457C459.973 97.1674 459.647 96.2234 458.999 95.514C458.352 94.749 457.526 94.132 456.527 93.657C455.584 93.1881 454.616 92.8303 453.611 92.5959L446.103 90.4736C441.979 89.2953 438.89 87.5247 436.825 85.168C434.821 82.7496 433.823 79.9549 433.823 76.7715C433.823 73.8842 434.556 71.3795 436.03 69.2572C437.503 67.0794 439.531 65.3952 442.127 64.2168C444.716 63.0385 447.632 62.4462 450.874 62.4462C455.233 62.4462 459.116 63.5382 462.532 65.716C465.947 67.8382 468.364 70.8119 469.775 74.643L462.088 78.2706C461.145 75.9695 459.647 74.1433 457.581 72.7922C455.578 71.435 453.309 70.7563 450.782 70.7563C448.606 70.7563 446.867 71.2869 445.573 72.348C444.278 73.3475 443.631 74.6739 443.631 76.3273C443.631 77.4439 443.927 78.3878 444.512 79.1528C445.104 79.8623 445.869 80.4484 446.812 80.9234C447.755 81.3368 448.729 81.6884 449.728 81.9846L457.501 84.2857C461.447 85.4024 464.48 87.173 466.6 89.5914C468.721 91.9481 469.781 94.7798 469.781 98.0804C469.781 100.912 469.017 103.417 467.482 105.595C466.009 107.717 463.95 109.395 461.299 110.635C458.648 111.813 455.553 112.406 452.021 112.406H452.027Z" fill="white"/>
<path d="M412.708 111.345V63.5197H422.689V111.345H412.708ZM412.708 56.974V45.4805H422.689V56.974H412.708Z" fill="white"/>
<path d="M375.616 112.406C371.023 112.406 366.899 111.314 363.249 109.136C359.655 106.896 356.801 103.892 354.68 100.116C352.621 96.3468 351.592 92.1023 351.592 87.3889C351.592 82.6755 352.652 78.431 354.773 74.6615C356.893 70.8921 359.748 67.9123 363.342 65.7345C366.936 63.5567 370.998 62.4647 375.535 62.4647C379.364 62.4647 382.748 63.2297 385.695 64.7659C388.642 66.2959 390.966 68.4182 392.673 71.1327L391.169 73.4338V44.4379H401.063V111.363H391.613V101.64L392.76 103.497C391.107 106.384 388.753 108.593 385.695 110.129C382.631 111.659 379.277 112.43 375.622 112.43L375.616 112.406ZM376.583 103.121C379.351 103.121 381.823 102.442 384.006 101.085C386.243 99.7276 387.982 97.8707 389.221 95.514C390.516 93.0956 391.163 90.3872 391.163 87.3827C391.163 84.3783 390.516 81.6946 389.221 79.3379C387.982 76.9812 386.25 75.1242 384.006 73.767C381.83 72.4097 379.351 71.7311 376.583 71.7311C373.815 71.7311 371.313 72.4097 369.075 73.767C366.837 75.1242 365.099 76.9812 363.859 79.3379C362.62 81.6946 362.004 84.3783 362.004 87.3827C362.004 90.3872 362.62 93.1017 363.859 95.514C365.099 97.8707 366.806 99.7276 368.982 101.085C371.22 102.442 373.754 103.121 376.577 103.121H376.583Z" fill="white"/>
<path d="M307.791 130.79C306.731 130.79 305.671 130.704 304.61 130.525C303.55 130.346 302.551 130.05 301.608 129.643V122.307C302.256 122.425 303.051 122.542 303.994 122.659C304.993 122.838 305.967 122.924 306.91 122.924C309.678 122.924 311.768 122.307 313.179 121.067C314.653 119.889 316.034 117.829 317.334 114.88L320.337 107.717L320.158 114.88L299.839 63.6924H308.759L324.572 104.361H321.921L337.647 63.6924H346.746L325.281 117.002C324.282 119.537 322.981 121.832 321.397 123.899C319.868 126.021 317.982 127.699 315.744 128.94C313.506 130.18 310.855 130.796 307.791 130.796V130.79Z" fill="white"/>
<path d="M254.726 111.345L271.42 87.4753L254.812 63.6924H264.706L278.928 84.3783H273.892L287.935 63.6924H297.916L281.308 87.4753L297.829 111.345H287.935L273.892 90.6587H278.836L264.793 111.345H254.719H254.726Z" fill="white"/>
<path d="M216.708 112.406C212.054 112.406 207.695 111.579 203.633 109.932C199.57 108.223 196.007 105.835 192.943 102.769C189.941 99.7029 187.586 96.1124 185.878 91.9851C184.171 87.8023 183.314 83.2616 183.314 78.3693C183.314 73.477 184.171 68.8808 185.878 64.7535C187.586 60.6262 189.941 57.0357 192.943 53.9695C196.007 50.9033 199.539 48.5466 203.546 46.8994C207.609 45.2522 211.998 44.4255 216.708 44.4255C221.418 44.4255 225.776 45.2831 229.783 46.992C233.846 48.6392 237.378 51.0021 240.387 54.0621C243.45 57.0665 245.836 60.6324 247.544 64.7597C249.313 68.887 250.195 73.4215 250.195 78.3755C250.195 83.3295 249.313 87.8023 247.544 91.9913C245.836 96.1185 243.45 99.7091 240.387 102.775C237.384 105.841 233.852 108.229 229.783 109.938C225.776 111.585 221.418 112.412 216.708 112.412V112.406ZM216.708 104.361C220.357 104.361 223.686 103.713 226.689 102.417C229.691 101.06 232.286 99.2032 234.462 96.8465C236.7 94.4281 238.408 91.6581 239.585 88.5364C240.824 85.353 241.441 81.966 241.441 78.3693C241.441 74.7726 240.824 71.4164 239.585 68.2948C238.408 65.1731 236.7 62.4277 234.462 60.071C232.286 57.6526 229.691 55.7956 226.689 54.5001C223.686 53.1428 220.357 52.4642 216.708 52.4642C213.058 52.4642 209.816 53.1428 206.814 54.5001C203.811 55.7956 201.191 57.6526 198.954 60.071C196.771 62.4277 195.064 65.1669 193.831 68.2948C192.592 71.4164 191.975 74.7787 191.975 78.3693C191.975 81.9599 192.592 85.353 193.831 88.5364C195.07 91.6581 196.777 94.4281 198.954 96.8465C201.191 99.2032 203.811 101.06 206.814 102.417C209.816 103.713 213.114 104.361 216.708 104.361Z" fill="white"/>
</g>
<defs>
<clipPath id="clip0_1_88">
<rect width="524" height="153" fill="white"/>
</clipPath>
</defs>
</svg>
