<svg width="152" height="153" viewBox="0 0 152 153" fill="none" xmlns="http://www.w3.org/2000/svg">
<mask id="mask0_13_2" style="mask-type:luminance" maskUnits="userSpaceOnUse" x="0" y="0" width="152" height="153">
<path d="M151.652 0H0V153H151.652V0Z" fill="white"/>
</mask>
<g mask="url(#mask0_13_2)">
<path d="M110.891 88.6845C110.891 90.0787 111.304 91.4422 112.074 92.602C112.845 93.7618 113.948 94.6687 115.231 95.1993C116.513 95.7299 117.931 95.8718 119.299 95.6003C120.662 95.3289 121.919 94.6564 122.906 93.6693C123.892 92.6822 124.558 91.4236 124.829 90.0541C125.1 88.6845 124.958 87.2655 124.428 85.9761C123.898 84.6867 122.992 83.5824 121.839 82.8112C120.68 82.0339 119.318 81.6205 117.931 81.6205C117.006 81.6205 116.094 81.8056 115.237 82.1573C114.38 82.5151 113.609 83.0333 112.956 83.6873C112.302 84.3412 111.785 85.1186 111.433 85.9761C111.082 86.8336 110.897 87.7529 110.897 88.6783L110.891 88.6845Z" fill="black"/>
<path d="M130.402 93.8297C130.402 94.8292 130.698 95.8039 131.253 96.6306C131.807 97.4573 132.59 98.1051 133.509 98.4876C134.427 98.8701 135.438 98.9688 136.412 98.7714C137.386 98.574 138.287 98.0989 138.989 97.3895C139.692 96.6861 140.173 95.7854 140.364 94.8107C140.555 93.8297 140.456 92.818 140.08 91.8987C139.698 90.9795 139.057 90.1898 138.231 89.6346C137.405 89.0793 136.431 88.7832 135.438 88.7832C134.107 88.7832 132.825 89.3138 131.881 90.2638C130.938 91.2078 130.408 92.491 130.408 93.8297H130.402Z" fill="black"/>
<path d="M136.135 108.433C135.987 109.228 136.08 110.049 136.4 110.789C136.721 111.53 137.251 112.159 137.929 112.603C138.607 113.041 139.396 113.269 140.204 113.257C141.011 113.245 141.794 112.992 142.46 112.535C143.126 112.079 143.637 111.431 143.933 110.678C144.229 109.926 144.297 109.105 144.131 108.315C143.964 107.526 143.564 106.804 142.984 106.236C142.405 105.675 141.677 105.292 140.882 105.15C140.358 105.052 139.815 105.064 139.291 105.175C138.767 105.286 138.274 105.502 137.83 105.804C137.393 106.107 137.017 106.495 136.721 106.946C136.431 107.396 136.234 107.902 136.135 108.426V108.433Z" fill="black"/>
<path d="M62.3806 31.914C61.4498 30.8776 60.2353 30.1373 58.8852 29.798C57.5352 29.4525 56.1173 29.5203 54.8042 29.983C53.4911 30.4457 52.3445 31.2971 51.5123 32.4138C50.68 33.5304 50.193 34.8753 50.1252 36.2696C50.0512 37.6639 50.3903 39.0458 51.1054 40.2488C51.8143 41.4457 52.8685 42.4081 54.1261 43.0127C55.3837 43.6111 56.7892 43.8271 58.164 43.6297C59.5387 43.4322 60.8271 42.8215 61.8628 41.8899C63.2499 40.6375 64.0821 38.8854 64.1807 37.0161C64.2794 35.1468 63.6321 33.3145 62.3868 31.9264L62.3806 31.914Z" fill="black"/>
<path d="M35.4964 39.4222C36.5629 40.0946 37.802 40.4401 39.0596 40.4031C40.3172 40.3722 41.5378 39.9651 42.5611 39.2371C43.5906 38.5091 44.3797 37.4912 44.8297 36.3128C45.2797 35.1345 45.3722 33.8512 45.0948 32.6174C44.8174 31.3897 44.1824 30.2668 43.2701 29.397C42.3577 28.5271 41.211 27.9533 39.9658 27.7374C38.7267 27.5215 37.4506 27.6819 36.3039 28.2001C35.1573 28.7122 34.1833 29.5574 33.5113 30.6247C32.6113 32.056 32.3154 33.7834 32.6853 35.4368C33.0551 37.084 34.0661 38.5214 35.4964 39.4222Z" fill="black"/>
<path d="M20.8427 48.1272C21.8044 48.3863 22.8216 48.3493 23.7648 48.0284C24.708 47.7076 25.534 47.1154 26.1382 46.3195C26.7423 45.5299 27.0999 44.5736 27.1677 43.5803C27.2355 42.5871 27.0012 41.5938 26.5019 40.7301C26.0025 39.8664 25.2628 39.1693 24.3689 38.7312C23.475 38.287 22.4763 38.1266 21.49 38.2562C20.5036 38.3857 19.5789 38.8053 18.8268 39.4654C18.0809 40.1255 17.5446 40.9892 17.2856 41.9516C17.113 42.5932 17.0699 43.2595 17.1562 43.9135C17.2425 44.5674 17.4583 45.2029 17.785 45.7766C18.1117 46.3504 18.5556 46.8501 19.0796 47.2573C19.6036 47.6583 20.2016 47.9544 20.8427 48.1272Z" fill="black"/>
<path d="M8.11274 64.5438C8.00794 63.7418 7.66272 62.9891 7.13255 62.3845C6.60239 61.7799 5.89961 61.3419 5.12286 61.1321C4.34611 60.9224 3.52004 60.9532 2.75561 61.2123C1.99119 61.4715 1.3254 61.9527 0.832224 62.6005C0.345213 63.2421 0.0554713 64.0132 -1.10617e-05 64.8214C-0.0493287 65.6296 0.135612 66.4316 0.542483 67.1288C0.949354 67.8259 1.54733 68.3935 2.27477 68.7451C2.99604 69.103 3.80978 69.2325 4.61119 69.1276C5.14135 69.0598 5.65302 68.8809 6.11538 68.6156C6.57773 68.3441 6.9846 67.9863 7.31133 67.5606C7.63806 67.1349 7.87232 66.6476 8.01411 66.1293C8.14973 65.6111 8.18672 65.0682 8.11274 64.5376V64.5438Z" fill="black"/>
<path d="M12.2676 50.0705C12.3416 49.2685 12.1751 48.4541 11.7929 47.7446C11.4107 47.0352 10.825 46.4552 10.1099 46.0789C9.39483 45.7026 8.58726 45.5483 7.78584 45.6286C6.98443 45.7088 6.22617 46.0357 5.60354 46.5478C4.9809 47.066 4.53088 47.7508 4.30279 48.5281C4.07469 49.3055 4.08086 50.126 4.31511 50.9034C4.55554 51.6745 5.01789 52.3593 5.64053 52.8714C6.26933 53.3834 7.02758 53.6919 7.83516 53.7659C8.91398 53.8646 9.98048 53.5315 10.8127 52.8405C11.645 52.1496 12.1689 51.1501 12.2676 50.0705Z" fill="black"/>
<path d="M80.7575 113.066C79.5184 113.701 78.4951 114.688 77.817 115.904C77.1389 117.119 76.8306 118.513 76.9416 119.901C77.0525 121.289 77.5704 122.616 78.4334 123.714C79.2965 124.806 80.4616 125.627 81.7809 126.052C83.1063 126.484 84.5242 126.509 85.8619 126.132C87.1997 125.756 88.3956 124.985 89.3018 123.924C90.208 122.863 90.7752 121.561 90.9416 120.173C91.1081 118.791 90.8553 117.384 90.2265 116.144C89.8073 115.318 89.2278 114.583 88.5251 113.979C87.8223 113.374 87.0085 112.918 86.127 112.634C85.2454 112.35 84.3207 112.239 83.4022 112.313C82.4775 112.387 81.5836 112.64 80.7575 113.06V113.066Z" fill="black"/>
<path d="M96.7858 122.727C95.8611 123.585 95.2138 124.695 94.9179 125.923C94.622 127.15 94.7021 128.434 95.1336 129.618C95.5713 130.803 96.3419 131.827 97.3591 132.573C98.3763 133.314 99.5907 133.739 100.848 133.789C102.106 133.838 103.351 133.511 104.418 132.857C105.49 132.197 106.341 131.235 106.871 130.087C107.395 128.94 107.574 127.663 107.377 126.416C107.179 125.17 106.618 124.01 105.768 123.085C105.201 122.468 104.516 121.974 103.758 121.623C103 121.271 102.18 121.074 101.348 121.043C100.515 121.012 99.6832 121.141 98.8941 121.431C98.1112 121.721 97.3899 122.166 96.7796 122.733L96.7858 122.727Z" fill="black"/>
<path d="M114.164 118.988C113.665 119.852 113.437 120.845 113.498 121.839C113.56 122.832 113.918 123.788 114.528 124.578C115.132 125.367 115.958 125.96 116.901 126.287C117.845 126.607 118.862 126.638 119.817 126.385C120.779 126.126 121.642 125.59 122.295 124.837C122.955 124.09 123.368 123.159 123.504 122.172C123.633 121.185 123.467 120.179 123.029 119.284C122.591 118.39 121.895 117.643 121.032 117.15C120.458 116.817 119.83 116.601 119.176 116.514C118.523 116.428 117.857 116.471 117.216 116.644C116.575 116.817 115.977 117.113 115.453 117.514C114.929 117.915 114.491 118.421 114.158 118.994L114.164 118.988Z" fill="black"/>
<path d="M97.9632 40.0021C97.396 41.2791 97.2172 42.6919 97.4577 44.0677C97.6919 45.4434 98.3269 46.7205 99.2886 47.7323C100.244 48.744 101.483 49.4473 102.839 49.7558C104.196 50.0643 105.614 49.9594 106.914 49.4597C108.215 48.96 109.337 48.0839 110.138 46.9426C110.94 45.8013 111.39 44.4502 111.427 43.0559C111.464 41.6616 111.088 40.2859 110.342 39.1075C109.596 37.9292 108.523 36.9914 107.253 36.43C106.409 36.0537 105.503 35.8439 104.578 35.8192C103.653 35.7946 102.735 35.955 101.872 36.2881C101.009 36.6213 100.219 37.121 99.5475 37.7564C98.8756 38.3919 98.3392 39.1569 97.9632 40.0021Z" fill="black"/>
<path d="M119.114 42.1922C118.282 43.1423 117.758 44.3145 117.592 45.5668C117.425 46.8192 117.635 48.0901 118.196 49.2191C118.751 50.3481 119.632 51.292 120.717 51.9213C121.808 52.5505 123.06 52.8467 124.311 52.7603C125.569 52.6801 126.771 52.2236 127.763 51.4586C128.756 50.6936 129.508 49.6448 129.915 48.4479C130.316 47.2511 130.359 45.9678 130.032 44.7463C129.705 43.5248 129.027 42.4328 128.084 41.5999C126.814 40.4833 125.156 39.9219 123.473 40.0329C121.79 40.144 120.218 40.9213 119.108 42.1922H119.114Z" fill="black"/>
<path d="M131.216 60.9594C131.758 61.7984 132.535 62.4524 133.447 62.8472C134.36 63.2421 135.371 63.3531 136.351 63.1742C137.331 62.9953 138.231 62.5264 138.946 61.8293C139.661 61.1321 140.148 60.2376 140.358 59.2628C140.568 58.2881 140.481 57.2701 140.111 56.3447C139.742 55.4193 139.107 54.6235 138.287 54.0559C137.467 53.4883 136.499 53.1798 135.5 53.1675C134.508 53.1552 133.528 53.439 132.695 53.9819C132.14 54.3397 131.66 54.8085 131.29 55.3515C130.914 55.8944 130.655 56.5113 130.513 57.1591C130.377 57.8069 130.365 58.4731 130.488 59.1271C130.612 59.781 130.858 60.398 131.216 60.9532V60.9594Z" fill="black"/>
<path d="M143.81 70.1888C144.118 70.9353 144.642 71.5707 145.314 72.0211C145.986 72.4653 146.775 72.7059 147.577 72.7059C148.384 72.7059 149.167 72.4653 149.839 72.0149C150.511 71.5645 151.029 70.9291 151.337 70.1764C151.645 69.4299 151.726 68.6094 151.565 67.8136C151.405 67.0239 151.017 66.2959 150.449 65.7222C149.876 65.1484 149.155 64.7659 148.36 64.6055C147.571 64.4513 146.751 64.5315 146.005 64.8399C145.006 65.2594 144.217 66.0553 143.804 67.0547C143.391 68.0603 143.391 69.1832 143.804 70.1826L143.81 70.1888Z" fill="black"/>
<path d="M38.9486 75.1982C38.517 73.8718 37.7033 72.7058 36.6121 71.8421C35.521 70.9784 34.1956 70.4602 32.8085 70.3491C31.4215 70.2381 30.0344 70.5465 28.82 71.2252C27.6055 71.91 26.6192 72.9341 25.9904 74.1741C25.3616 75.4203 25.1088 76.8208 25.2753 78.2027C25.4355 79.5847 26.0089 80.8926 26.9089 81.9537C27.8151 83.0148 29.0111 83.7798 30.3488 84.1623C31.6865 84.5386 33.1106 84.514 34.4298 84.0821C35.3114 83.7983 36.1251 83.3418 36.8279 82.7372C37.5307 82.1326 38.1102 81.3984 38.5294 80.5779C38.9486 79.7512 39.2013 78.8505 39.2753 77.9313C39.3493 77.0059 39.2383 76.0805 38.9547 75.1982H38.9486Z" fill="black"/>
<path d="M27.4699 89.8567C26.7733 88.8079 25.7807 87.9873 24.6156 87.5061C23.4566 87.0249 22.1744 86.8954 20.9414 87.1421C19.7085 87.3889 18.5742 87.9935 17.6865 88.8881C16.7988 89.7765 16.1885 90.9178 15.9419 92.1517C15.6953 93.3855 15.8186 94.6688 16.2994 95.8348C16.7803 97.0008 17.594 97.994 18.642 98.6973C19.69 99.4007 20.9168 99.7708 22.1744 99.777C23.432 99.777 24.6588 99.4068 25.7068 98.7035C27.1062 97.7658 28.0802 96.3036 28.4131 94.6441C28.7398 92.9845 28.4007 91.2633 27.4637 89.8567H27.4699Z" fill="black"/>
<path d="M27.8336 114.719C28.4624 113.942 28.8446 112.998 28.9309 112.005C29.0234 111.011 28.82 110.012 28.3453 109.136C27.8706 108.26 27.1493 107.544 26.2678 107.081C25.3862 106.619 24.3875 106.428 23.4012 106.532C22.4087 106.637 21.4778 107.032 20.7134 107.674C19.949 108.309 19.388 109.161 19.1044 110.117C18.8208 111.073 18.827 112.091 19.1229 113.047C19.4188 113.997 19.986 114.843 20.7627 115.472C21.2744 115.891 21.8662 116.2 22.5012 116.391C23.1361 116.576 23.8019 116.638 24.4554 116.57C25.115 116.502 25.7499 116.305 26.3294 115.984C26.9089 115.669 27.4206 115.237 27.8398 114.725" fill="black"/>
<path d="M40.1754 138.422C40.4035 137.644 40.3973 136.824 40.1569 136.047C39.9165 135.275 39.4541 134.591 38.8253 134.085C38.1965 133.579 37.4321 133.27 36.6307 133.196C35.8293 133.122 35.0217 133.289 34.3128 133.678C33.6038 134.066 33.0305 134.652 32.6545 135.368C32.2784 136.084 32.1243 136.898 32.2106 137.7C32.2969 138.502 32.6175 139.261 33.1353 139.884C33.6531 140.507 34.3374 140.957 35.1142 141.186C36.1498 141.488 37.2657 141.371 38.215 140.853C39.1644 140.334 39.8672 139.458 40.1754 138.422Z" fill="black"/>
<path d="M27.1061 129.248C27.5006 128.545 27.6794 127.737 27.6178 126.928C27.5561 126.12 27.254 125.355 26.7547 124.72C26.2554 124.084 25.5834 123.615 24.8128 123.362C24.0484 123.116 23.2223 123.097 22.4456 123.313C21.6688 123.529 20.9784 123.973 20.4544 124.59C19.9304 125.201 19.5975 125.96 19.505 126.762C19.4125 127.564 19.5543 128.378 19.918 129.1C20.2818 129.822 20.8551 130.414 21.5579 130.809C22.5011 131.339 23.6169 131.469 24.6525 131.179C25.6944 130.883 26.5759 130.192 27.1061 129.248Z" fill="black"/>
<path d="M93.4816 24.2641C93.3028 25.5103 93.4939 26.7873 94.0364 27.9225C94.5789 29.0638 95.442 30.0139 96.5269 30.6555C97.6058 31.3033 98.8572 31.6118 100.109 31.5439C101.366 31.476 102.575 31.038 103.579 30.2854C104.59 29.5327 105.349 28.4962 105.768 27.3056C106.187 26.1149 106.249 24.8317 105.94 23.6101C105.632 22.3886 104.966 21.2843 104.036 20.4391C103.099 19.5939 101.94 19.0448 100.694 18.8659C99.0236 18.6253 97.3284 19.0571 95.9783 20.0689C94.6282 21.0807 93.7282 22.586 93.4877 24.2641" fill="black"/>
<path d="M88.5991 13.0482C88.445 12.0611 88.0012 11.148 87.323 10.4139C86.6449 9.67974 85.7695 9.16768 84.8017 8.93324C83.8338 8.69881 82.8166 8.7605 81.8858 9.10599C80.9549 9.45147 80.1412 10.0684 79.5555 10.8766C78.9699 11.6848 78.637 12.6472 78.6 13.6466C78.563 14.6461 78.8157 15.627 79.3397 16.4784C79.8576 17.3297 80.622 18.0084 81.5221 18.4217C82.4221 18.8412 83.4331 18.977 84.4133 18.8227C85.0668 18.7178 85.6894 18.4896 86.2565 18.1441C86.8175 17.7986 87.3107 17.3421 87.6991 16.8053C88.0875 16.2686 88.3649 15.664 88.519 15.0162C88.6731 14.3746 88.6978 13.7022 88.593 13.0482H88.5991Z" fill="black"/>
<path d="M60.2105 4.10262C59.7913 3.41166 59.1749 2.86875 58.4413 2.52944C57.7077 2.19012 56.8939 2.07907 56.0987 2.20863C55.3034 2.33819 54.5637 2.69601 53.9719 3.24508C53.38 3.79416 52.967 4.5098 52.7759 5.29331C52.591 6.07682 52.6403 6.90351 52.9177 7.66234C53.1951 8.42117 53.6944 9.07512 54.3479 9.55016C55.0014 10.0252 55.7781 10.2905 56.5857 10.3213C57.3933 10.3522 58.1885 10.1424 58.8728 9.71674C59.329 9.43295 59.7235 9.06895 60.0379 8.63093C60.3523 8.1929 60.5804 7.70553 60.7037 7.18113C60.827 6.65674 60.8455 6.12 60.7654 5.58944C60.6791 5.05887 60.4941 4.55299 60.2105 4.09645V4.10262Z" fill="black"/>
<path d="M71.3131 0.215896C70.5487 0.475009 69.8829 0.956219 69.3897 1.59783C68.8966 2.23944 68.6068 3.01061 68.5575 3.8188C68.502 4.62699 68.6931 5.429 69.0938 6.13231C69.4945 6.83561 70.0987 7.39702 70.82 7.75485C71.5412 8.11267 72.355 8.2484 73.1564 8.14352C73.9578 8.03864 74.7037 7.69932 75.314 7.16259C75.9182 6.63202 76.3559 5.92872 76.5655 5.14521C76.7751 4.3617 76.7442 3.54118 76.4853 2.77001C76.3127 2.26412 76.0415 1.79525 75.6901 1.38807C75.3387 0.987066 74.9072 0.65392 74.4325 0.419485C73.9516 0.185049 73.4338 0.0431543 72.8975 0.00613814C72.3611 -0.030878 71.831 0.0431543 71.3193 0.215896H71.3131Z" fill="black"/>
<path d="M52.2457 116.015C52.0978 117.403 52.369 118.803 53.0163 120.037C53.6636 121.271 54.6623 122.283 55.8829 122.949C57.1035 123.615 58.4967 123.899 59.8838 123.776C61.2708 123.646 62.5839 123.109 63.6689 122.233C64.7477 121.357 65.5491 120.173 65.956 118.84C66.369 117.508 66.3752 116.083 65.9807 114.744C65.5861 113.405 64.8032 112.214 63.7305 111.326C62.6579 110.431 61.351 109.882 59.9701 109.734C59.0515 109.636 58.1207 109.722 57.2391 109.987C56.3514 110.253 55.5253 110.684 54.8102 111.27C54.0951 111.85 53.4971 112.572 53.0533 113.387C52.6156 114.201 52.3382 115.095 52.2395 116.015H52.2457Z" fill="black"/>
<path d="M70.555 139.137C71.7941 138.922 72.9469 138.348 73.8593 137.478C74.7716 136.608 75.4066 135.491 75.684 134.258C75.9614 133.03 75.869 131.74 75.4189 130.562C74.9689 129.384 74.1798 128.366 73.1503 127.638C72.1208 126.91 70.9064 126.503 69.6488 126.472C68.3912 126.441 67.1521 126.78 66.0856 127.453C65.0191 128.125 64.1807 129.1 63.669 130.254C63.1573 131.407 62.9971 132.684 63.2128 133.931C63.3546 134.757 63.6567 135.547 64.1005 136.256C64.5444 136.966 65.1239 137.577 65.8082 138.064C66.4924 138.545 67.263 138.891 68.0768 139.076C68.8905 139.261 69.7351 139.286 70.555 139.144" fill="black"/>
<path d="M91.3484 135.399C90.8984 134.51 90.1894 133.776 89.3264 133.289C88.4572 132.801 87.4646 132.586 86.4721 132.66C85.4796 132.74 84.5364 133.11 83.7535 133.727C82.9706 134.344 82.3911 135.183 82.0828 136.127C81.7746 137.077 81.7561 138.095 82.0274 139.057C82.2986 140.02 82.8473 140.877 83.5994 141.525C84.3576 142.173 85.2885 142.58 86.2748 142.697C87.2612 142.814 88.2599 142.635 89.1476 142.185C90.3374 141.58 91.2374 140.519 91.6505 139.248C92.0635 137.978 91.9525 136.589 91.3484 135.399Z" fill="black"/>
<path d="M112.013 134.492C111.489 135.109 111.162 135.862 111.069 136.67C110.977 137.472 111.119 138.286 111.489 139.008C111.859 139.73 112.426 140.322 113.135 140.717C113.837 141.112 114.645 141.284 115.446 141.223C116.248 141.155 117.018 140.853 117.647 140.353C118.282 139.853 118.751 139.175 118.997 138.403C119.244 137.632 119.262 136.812 119.04 136.028C118.818 135.251 118.375 134.554 117.764 134.029C116.938 133.326 115.872 132.98 114.793 133.067C113.714 133.153 112.715 133.665 112.013 134.492Z" fill="black"/>
<path d="M98.0188 141.463C97.3715 141.945 96.8845 142.611 96.6132 143.376C96.342 144.141 96.305 144.961 96.5023 145.745C96.6995 146.528 97.1249 147.238 97.7229 147.775C98.3209 148.318 99.0668 148.669 99.862 148.78C100.657 148.897 101.477 148.774 102.205 148.429C102.932 148.083 103.542 147.528 103.955 146.831C104.368 146.14 104.566 145.338 104.523 144.53C104.479 143.721 104.202 142.944 103.721 142.296C103.401 141.864 103 141.5 102.538 141.229C102.075 140.951 101.57 140.772 101.039 140.692C100.509 140.618 99.9668 140.643 99.449 140.772C98.9312 140.902 98.4442 141.136 98.0126 141.457L98.0188 141.463Z" fill="black"/>
<path d="M35.5086 106.557C36.5875 107.433 37.9067 107.97 39.2938 108.099C40.6808 108.229 42.0679 107.939 43.2947 107.273C44.5153 106.606 45.5139 105.595 46.1612 104.361C46.8085 103.127 47.0798 101.726 46.9318 100.338C46.7839 98.9503 46.2352 97.6362 45.3475 96.5689C44.4598 95.4954 43.27 94.7119 41.9384 94.3171C40.6068 93.9222 39.1828 93.9284 37.8574 94.3418C36.5258 94.7551 35.3545 95.551 34.4791 96.6368C33.8996 97.3586 33.4619 98.1853 33.1969 99.0737C32.9318 99.962 32.8455 100.894 32.9441 101.819C33.0427 102.738 33.3202 103.633 33.7579 104.447C34.2017 105.262 34.7935 105.983 35.5148 106.563L35.5086 106.557Z" fill="black"/>
<path d="M37.4935 126.015C38.6463 126.515 39.9286 126.657 41.1615 126.429C42.4006 126.2 43.5411 125.608 44.4412 124.726C45.3412 123.844 45.9638 122.715 46.2228 121.481C46.4817 120.247 46.3769 118.964 45.9084 117.791C45.4398 116.619 44.6384 115.614 43.6028 114.898C42.5671 114.182 41.3403 113.794 40.0827 113.775C38.8251 113.757 37.5922 114.115 36.538 114.806C35.4838 115.49 34.6516 116.477 34.1584 117.637C33.4926 119.192 33.468 120.95 34.0968 122.517C34.7194 124.09 35.94 125.349 37.4935 126.015Z" fill="black"/>
<path d="M52.0609 128.946C51.0745 128.841 50.0758 129.032 49.1943 129.501C48.3127 129.964 47.5915 130.679 47.1168 131.555C46.6421 132.431 46.4387 133.431 46.525 134.424C46.6174 135.417 46.9996 136.361 47.6223 137.139C48.2511 137.916 49.0895 138.484 50.0388 138.78C50.9882 139.076 52.0054 139.082 52.9609 138.798C53.9164 138.514 54.761 137.953 55.4021 137.188C56.0371 136.423 56.4316 135.485 56.5364 134.492C56.6782 133.159 56.2837 131.827 55.4453 130.79C54.6069 129.748 53.3863 129.088 52.0609 128.946Z" fill="black"/>
<path d="M74.5435 144.998C73.7729 145.227 73.0824 145.683 72.5708 146.306C72.0591 146.929 71.7385 147.688 71.6522 148.496C71.5721 149.298 71.7262 150.113 72.1022 150.828C72.4783 151.544 73.0578 152.13 73.7667 152.513C74.4757 152.895 75.2832 153.062 76.0846 152.988C76.886 152.914 77.6505 152.599 78.2731 152.093C78.8957 151.581 79.3581 150.896 79.5985 150.125C79.8389 149.354 79.8389 148.527 79.6108 147.75C79.3026 146.713 78.5937 145.837 77.6443 145.325C76.6949 144.807 75.5791 144.696 74.5435 145.004V144.998Z" fill="black"/>
<path d="M63.4902 147.152C63.4347 146.343 63.1449 145.572 62.6579 144.931C62.1709 144.289 61.499 143.808 60.7345 143.549C59.9701 143.289 59.1502 143.265 58.3735 143.468C57.5967 143.678 56.8939 144.11 56.3638 144.721C55.8336 145.332 55.4945 146.078 55.3897 146.88C55.2849 147.682 55.4206 148.496 55.772 149.218C56.1295 149.946 56.6905 150.545 57.3871 150.952C58.0837 151.353 58.8851 151.544 59.6927 151.495C60.7715 151.421 61.7764 150.927 62.4915 150.113C63.2066 149.298 63.5641 148.231 63.4963 147.152" fill="black"/>
<path d="M111.489 26.2814C111.082 27.1945 110.958 28.2063 111.125 29.1872C111.291 30.1681 111.747 31.0812 112.432 31.803C113.116 32.5248 113.998 33.0307 114.972 33.2528C115.939 33.4749 116.957 33.4009 117.881 33.0431C118.812 32.6852 119.614 32.0621 120.187 31.2478C120.76 30.4334 121.081 29.4648 121.105 28.4716C121.13 27.4721 120.859 26.4912 120.329 25.646C119.799 24.8008 119.028 24.1345 118.122 23.7273C117.518 23.4559 116.87 23.3078 116.211 23.2955C115.551 23.277 114.891 23.3942 114.275 23.6286C113.659 23.8631 113.091 24.2209 112.617 24.6774C112.136 25.1339 111.754 25.6769 111.482 26.2876L111.489 26.2814Z" fill="black"/>
<path d="M93.7775 7.15026C93.759 7.95844 93.9747 8.75429 94.4063 9.43909C94.8378 10.1239 95.4604 10.6606 96.2002 10.9876C96.9338 11.3146 97.7537 11.4133 98.5489 11.2776C99.3442 11.1418 100.078 10.7655 100.663 10.2103C101.249 9.65501 101.65 8.9332 101.829 8.14352C102.007 7.35384 101.946 6.53332 101.656 5.77449C101.366 5.02183 100.861 4.36788 100.201 3.90517C99.5415 3.44247 98.7585 3.18336 97.9571 3.15868C97.4208 3.14634 96.8906 3.23888 96.3913 3.43013C95.892 3.62138 95.4358 3.91134 95.0474 4.28151C94.659 4.65167 94.3508 5.09586 94.1289 5.58324C93.9131 6.07679 93.796 6.60118 93.7836 7.13792L93.7775 7.15026Z" fill="black"/>
<path d="M128.411 28.2433C127.955 28.9096 127.708 29.6993 127.702 30.5075C127.696 31.3156 127.924 32.1053 128.361 32.784C128.799 33.4626 129.434 33.9931 130.174 34.3078C130.914 34.6224 131.734 34.715 132.523 34.5669C133.312 34.4188 134.045 34.0363 134.619 33.4749C135.192 32.9073 135.593 32.1855 135.759 31.3959C135.926 30.6062 135.852 29.7856 135.556 29.033C135.254 28.2803 134.742 27.6387 134.076 27.1822C133.632 26.8799 133.139 26.664 132.615 26.5529C132.091 26.4419 131.549 26.4357 131.025 26.5344C130.501 26.6331 129.995 26.8367 129.545 27.1267C129.095 27.4228 128.713 27.7991 128.411 28.2433Z" fill="black"/>
<path d="M108.523 13.2517C108.326 14.0353 108.363 14.8619 108.634 15.6208C108.905 16.3796 109.392 17.0459 110.04 17.5333C110.687 18.0145 111.458 18.2983 112.265 18.3415C113.067 18.3847 113.868 18.1872 114.559 17.7739C115.249 17.3605 115.804 16.7498 116.155 16.0218C116.5 15.2938 116.624 14.4794 116.513 13.6774C116.396 12.8754 116.05 12.1289 115.508 11.5305C114.972 10.9321 114.263 10.5002 113.486 10.3028C112.438 10.0375 111.328 10.1979 110.397 10.7532C109.466 11.3084 108.795 12.2091 108.529 13.2579L108.523 13.2517Z" fill="black"/>
<path d="M137.38 47.3189C137.929 47.9112 138.638 48.3307 139.421 48.522C140.204 48.7132 141.024 48.6639 141.782 48.3862C142.54 48.1086 143.194 47.6089 143.668 46.955C144.143 46.301 144.414 45.5237 144.445 44.7155C144.476 43.9073 144.273 43.1115 143.847 42.4205C143.428 41.7295 142.812 41.1804 142.078 40.8411C141.344 40.5018 140.531 40.3908 139.735 40.5142C138.94 40.6375 138.2 41.0015 137.609 41.5444C136.813 42.2786 136.345 43.3027 136.302 44.3823C136.258 45.4681 136.647 46.5231 137.38 47.3189Z" fill="black"/>
<path d="M40.5082 46.4923C39.1643 46.1283 37.7402 46.1776 36.4271 46.628C35.1079 47.0783 33.9551 47.905 33.1044 49.0155C32.2598 50.1198 31.7543 51.4586 31.6618 52.8467C31.5693 54.2348 31.8899 55.6291 32.5865 56.8383C33.2831 58.0475 34.3188 59.0222 35.5702 59.6391C36.8155 60.2561 38.2211 60.4905 39.602 60.3054C40.9829 60.1265 42.2774 59.5343 43.3254 58.615C44.3734 57.6958 45.1255 56.4866 45.4831 55.1355C45.9639 53.3279 45.7173 51.4031 44.7803 49.7805C43.8494 48.158 42.3083 46.9735 40.5082 46.4923Z" fill="black"/>
<path d="M21.8475 67.6038C23.1051 67.5853 24.3319 67.1966 25.3676 66.4809C26.4032 65.7653 27.2047 64.7597 27.6732 63.5875C28.1417 62.4153 28.2465 61.1321 27.9876 59.8982C27.7287 58.6644 27.106 57.5354 26.206 56.6532C25.3059 55.7709 24.1655 55.1787 22.9263 54.9504C21.6872 54.7222 20.4111 54.864 19.2583 55.3638C18.0994 55.8635 17.1192 56.6902 16.4349 57.7513C15.7506 58.8063 15.3931 60.0463 15.4116 61.311C15.4362 63.0014 16.1267 64.6116 17.335 65.7961C18.5432 66.9745 20.1707 67.6284 21.8537 67.6038H21.8475Z" fill="black"/>
<path d="M17.7358 76.1052C17.4275 75.1551 16.8481 74.3222 16.0651 73.6991C15.2822 73.0822 14.339 72.712 13.3465 72.6318C12.354 72.5516 11.3615 72.7737 10.4922 73.2611C9.62302 73.7485 8.92024 74.4826 8.47022 75.371C8.0202 76.2594 7.84142 77.265 7.95855 78.2521C8.07568 79.2454 8.48255 80.177 9.12984 80.9358C9.77714 81.6946 10.634 82.2437 11.5896 82.5151C12.5451 82.7866 13.5623 82.7681 14.5116 82.4596C15.7816 82.0463 16.8357 81.1455 17.4399 79.9549C18.044 78.7642 18.155 77.3761 17.7419 76.1052H17.7358Z" fill="black"/>
<path d="M12.6006 103.293C12.0766 102.677 11.38 102.232 10.6032 102.016C9.82647 101.8 9.0004 101.813 8.23598 102.066C7.47155 102.319 6.79344 102.788 6.2941 103.423C5.79475 104.058 5.49885 104.83 5.4372 105.638C5.37555 106.446 5.55433 107.248 5.94887 107.958C6.34341 108.661 6.94139 109.235 7.6565 109.599C8.37777 109.963 9.18534 110.111 9.98675 110.012C10.7882 109.913 11.5403 109.58 12.1506 109.056C12.5574 108.704 12.8903 108.278 13.1308 107.803C13.3712 107.328 13.5191 106.804 13.5623 106.267C13.6054 105.73 13.5376 105.194 13.3712 104.682C13.2047 104.17 12.9396 103.701 12.5944 103.293H12.6006Z" fill="black"/>
<path d="M8.03248 88.851C7.65643 88.1354 7.07695 87.5493 6.37418 87.1606C5.66523 86.7719 4.85766 86.6054 4.05625 86.6794C3.25483 86.7534 2.49041 87.0619 1.86161 87.5739C1.23281 88.0798 0.770457 88.7646 0.530034 89.5358C0.28961 90.307 0.283445 91.1337 0.511539 91.911C0.739634 92.6883 1.19582 93.3731 1.81229 93.8914C2.43493 94.4096 3.19319 94.7304 3.9946 94.8168C4.79601 94.9031 5.60359 94.7427 6.31869 94.3664C7.27422 93.8605 7.98933 92.9968 8.30989 91.9604C8.63046 90.9239 8.53182 89.8072 8.02632 88.8448L8.03248 88.851Z" fill="black"/>
<path d="M88.6422 31.6365C88.4265 30.2607 87.8038 28.9775 86.8606 27.9472C85.9174 26.9169 84.6907 26.2013 83.3344 25.8743C81.9782 25.5473 80.5603 25.6337 79.2534 26.1149C77.9465 26.5961 76.8122 27.4598 75.9923 28.5888C75.1724 29.7178 74.71 31.0627 74.6545 32.457C74.599 33.8513 74.9566 35.2332 75.684 36.4239C76.4115 37.6146 77.4718 38.5585 78.7356 39.1446C79.9993 39.7307 81.411 39.9219 82.7858 39.706C83.6981 39.5641 84.5735 39.2371 85.3626 38.7559C86.1517 38.2747 86.836 37.6392 87.3785 36.8866C87.921 36.1339 88.3155 35.2887 88.5313 34.388C88.747 33.4873 88.784 32.5495 88.6361 31.6365H88.6422Z" fill="black"/>
<path d="M73.8037 17.8973C73.2797 16.7498 72.4228 15.7874 71.3501 15.1334C70.2775 14.4733 69.0322 14.1525 67.7807 14.2018C66.5231 14.2512 65.3087 14.6707 64.2915 15.4172C63.2744 16.1575 62.4976 17.1878 62.0661 18.3662C61.6284 19.5507 61.5544 20.8339 61.8503 22.0616C62.1462 23.2893 62.7935 24.3998 63.7182 25.2573C64.6429 26.1149 65.7957 26.6763 67.041 26.8737C68.2801 27.0711 69.5562 26.8922 70.6967 26.3678C71.4549 26.0162 72.1392 25.5226 72.7064 24.9057C73.2735 24.2887 73.7112 23.5669 74.0009 22.7834C74.2907 21.9999 74.4201 21.1609 74.3893 20.328C74.3585 19.489 74.1612 18.6685 73.8098 17.9096L73.8037 17.8973Z" fill="black"/>
<path d="M51.913 23.1659C52.6528 22.4996 53.1768 21.6236 53.4234 20.6612C53.6699 19.6926 53.6206 18.6746 53.2877 17.7369C52.9548 16.7991 52.3507 15.9786 51.5554 15.3802C50.7602 14.7818 49.8047 14.4363 48.8121 14.3869C47.8196 14.3376 46.8333 14.5782 45.9764 15.0902C45.1195 15.6023 44.4352 16.355 44.0098 17.2495C43.5783 18.1502 43.4304 19.1558 43.5721 20.1429C43.7139 21.13 44.1455 22.0554 44.8113 22.7958C45.2551 23.2893 45.7853 23.6903 46.3833 23.9741C46.9812 24.2579 47.6285 24.4245 48.2882 24.4615C48.9478 24.4985 49.6074 24.3998 50.23 24.1777C50.8527 23.9556 51.426 23.6163 51.9192 23.1721L51.913 23.1659Z" fill="black"/>
<path d="M25.3986 29.5944C25.7438 28.8664 25.8671 28.0459 25.75 27.25C25.6328 26.448 25.2815 25.7015 24.739 25.1031C24.1965 24.5047 23.4937 24.079 22.7108 23.8816C21.9279 23.6842 21.1079 23.7212 20.3497 23.9926C19.5914 24.2641 18.9256 24.7515 18.4448 25.4054C17.9639 26.0532 17.6865 26.8305 17.6434 27.6387C17.6002 28.4469 17.8037 29.2489 18.2167 29.9399C18.6297 30.6309 19.24 31.1923 19.9675 31.5378C20.4483 31.766 20.9723 31.9017 21.5087 31.9264C22.045 31.9511 22.5813 31.8771 23.0807 31.6982C23.5862 31.5192 24.0485 31.2416 24.4492 30.8776C24.8438 30.5198 25.1705 30.0818 25.3986 29.5944Z" fill="black"/>
<path d="M36.8834 19.8592C37.3828 19.2237 37.6849 18.4587 37.7465 17.6506C37.8081 16.8424 37.6355 16.0403 37.241 15.3309C36.8465 14.6214 36.2546 14.0538 35.5334 13.6837C34.8121 13.3135 34.0045 13.1716 33.2031 13.2641C32.4017 13.3567 31.6496 13.6898 31.0331 14.2142C30.4167 14.7386 29.979 15.4358 29.757 16.2131C29.5351 16.9904 29.5536 17.8171 29.8064 18.5883C30.0529 19.3595 30.5276 20.0319 31.1564 20.5378C31.5756 20.871 32.0565 21.1177 32.5743 21.2596C33.0921 21.4077 33.6285 21.4509 34.1586 21.383C34.6888 21.3213 35.2066 21.1547 35.669 20.8895C36.1375 20.6303 36.5444 20.2725 36.8773 19.853L36.8834 19.8592Z" fill="black"/>
<path d="M114.096 57.8501C112.931 58.6089 112.013 59.7009 111.464 60.9841C110.915 62.2673 110.755 63.6801 111.014 65.0559C111.267 66.4255 111.92 67.6902 112.894 68.6896C113.862 69.689 115.107 70.3738 116.47 70.6638C117.832 70.9538 119.244 70.8365 120.538 70.3183C121.833 69.8001 122.943 68.9117 123.732 67.7642C124.521 66.6167 124.952 65.2594 124.971 63.8652C124.989 62.4709 124.595 61.1013 123.837 59.9291C122.819 58.3621 121.223 57.2578 119.398 56.8691C117.573 56.4805 115.668 56.8321 114.102 57.8501H114.096Z" fill="black"/>
<path d="M130.876 71.2252C129.668 71.5707 128.583 72.2617 127.763 73.2179C126.95 74.1803 126.432 75.3587 126.284 76.6111C126.136 77.8634 126.358 79.1343 126.931 80.2571C127.504 81.38 128.392 82.3115 129.489 82.9285C130.587 83.5454 131.844 83.823 133.096 83.7243C134.347 83.6256 135.549 83.1567 136.536 82.3732C137.522 81.5959 138.256 80.5348 138.65 79.3379C139.039 78.1411 139.063 76.8517 138.724 75.6363C138.496 74.8281 138.114 74.0755 137.596 73.4215C137.078 72.7614 136.437 72.2123 135.71 71.8051C134.982 71.398 134.181 71.1327 133.349 71.034C132.516 70.9353 131.678 71.0031 130.876 71.2314V71.2252Z" fill="black"/>
<path d="M143.299 85.8774C143.434 86.6733 143.804 87.4136 144.359 87.9997C144.914 88.5858 145.629 88.993 146.418 89.1719C147.207 89.3508 148.027 89.2891 148.779 88.9991C149.531 88.7092 150.185 88.2033 150.647 87.5432C151.109 86.883 151.374 86.0995 151.393 85.2914C151.411 84.4832 151.196 83.6873 150.764 83.0025C150.332 82.3177 149.71 81.781 148.976 81.4479C148.243 81.1209 147.423 81.016 146.628 81.1517C146.097 81.2443 145.592 81.4355 145.142 81.7193C144.692 82.0093 144.297 82.3794 143.989 82.8174C143.681 83.2555 143.459 83.749 143.342 84.2734C143.225 84.7978 143.212 85.3407 143.299 85.8713V85.8774Z" fill="black"/>
<path d="M100.004 104.515C99.3071 105.724 98.9865 107.112 99.0728 108.507C99.1653 109.901 99.6647 111.233 100.515 112.344C101.366 113.448 102.519 114.281 103.838 114.731C105.157 115.182 106.575 115.225 107.919 114.867C109.263 114.503 110.471 113.751 111.39 112.702C112.308 111.653 112.894 110.351 113.079 108.969C113.258 107.587 113.03 106.181 112.413 104.928C111.797 103.676 110.823 102.633 109.621 101.936C108.006 100.998 106.082 100.746 104.282 101.233C102.482 101.72 100.941 102.899 100.01 104.521L100.004 104.515Z" fill="black"/>
<path d="M117.006 106.193C116.636 107.396 116.624 108.686 116.981 109.895C117.339 111.104 118.048 112.184 119.016 112.986C119.984 113.794 121.167 114.293 122.419 114.423C123.67 114.553 124.934 114.312 126.043 113.726C127.159 113.14 128.072 112.233 128.67 111.122C129.268 110.012 129.527 108.753 129.416 107.495C129.298 106.236 128.818 105.046 128.022 104.065C127.227 103.084 126.167 102.362 124.965 101.986C123.356 101.486 121.611 101.646 120.119 102.436C118.627 103.226 117.505 104.571 117.006 106.187V106.193Z" fill="black"/>
<path d="M127.326 121.45C127.005 122.19 126.913 123.011 127.061 123.807C127.209 124.602 127.585 125.337 128.146 125.917C128.707 126.496 129.428 126.891 130.217 127.064C131.006 127.231 131.826 127.163 132.572 126.86C133.318 126.558 133.965 126.046 134.421 125.38C134.877 124.713 135.124 123.924 135.136 123.116C135.149 122.307 134.921 121.512 134.483 120.839C134.045 120.16 133.416 119.63 132.677 119.309C132.183 119.099 131.659 118.982 131.123 118.976C130.587 118.97 130.057 119.069 129.557 119.266C129.058 119.463 128.608 119.759 128.226 120.136C127.844 120.512 127.535 120.956 127.326 121.45Z" fill="black"/>
</g>
</svg>
