<svg width="1595" height="464" viewBox="0 0 1595 464" fill="none" xmlns="http://www.w3.org/2000/svg">
<path d="M226.724 439.065C229.874 438.131 233.267 438.468 236.155 440.037C239.041 441.587 241.198 444.24 242.135 447.378C242.829 449.731 242.828 452.234 242.097 454.569C241.366 456.904 239.96 458.978 238.067 460.528C236.173 462.06 233.848 463.013 231.411 463.237C228.974 463.461 226.518 462.957 224.362 461.799C222.206 460.641 220.444 458.866 219.3 456.699C218.157 454.532 217.688 452.067 217.932 449.639C218.194 447.192 219.169 444.893 220.725 443.007C222.281 441.12 224.381 439.738 226.724 439.047V439.065ZM177.557 434.425C179.919 433.808 182.413 433.883 184.738 434.668C187.062 435.452 189.105 436.91 190.586 438.852C191.975 440.674 192.836 442.839 193.077 445.119L193.136 445.577C193.342 448.846 192.255 452.078 190.08 454.544C187.906 457.009 184.849 458.503 181.569 458.727C179.113 458.877 176.675 458.298 174.557 457.084C172.439 455.851 170.733 454.039 169.646 451.835C168.577 449.649 168.164 447.183 168.483 444.755C168.801 442.326 169.832 440.066 171.445 438.217C173.057 436.367 175.195 435.06 177.557 434.425ZM302.467 426.248C304.042 425.856 305.692 425.781 307.304 426.005C308.916 426.248 310.454 426.789 311.86 427.63C313.266 428.452 314.484 429.554 315.459 430.861C316.922 432.823 317.765 435.177 317.896 437.624C318.027 440.071 317.427 442.5 316.171 444.592C314.915 446.702 313.059 448.384 310.847 449.43C308.635 450.476 306.141 450.849 303.723 450.494C301.304 450.158 299.036 449.093 297.217 447.449C295.399 445.824 294.105 443.676 293.505 441.304C292.905 438.931 293.018 436.447 293.843 434.131C294.668 431.814 296.149 429.797 298.117 428.34L298.099 428.321C299.411 427.35 300.892 426.64 302.467 426.248ZM262.991 401.692C266.01 401.468 269.029 402.122 271.672 403.598C274.297 405.073 276.453 407.296 277.822 409.986C279.659 413.591 279.996 417.794 278.74 421.642C277.483 425.491 274.746 428.703 271.128 430.534C268.429 431.898 265.391 432.44 262.392 432.085C259.392 431.73 256.561 430.496 254.255 428.535C251.968 426.574 250.3 423.977 249.475 421.063C248.65 418.149 248.706 415.067 249.644 412.19C250.581 409.332 252.343 406.792 254.724 404.924C257.105 403.056 259.973 401.935 262.991 401.692ZM104.377 404.771C106.533 403.595 108.989 403.09 111.426 403.314C113.863 403.539 116.189 404.473 118.101 406.005C120.013 407.537 121.419 409.61 122.15 411.945C122.881 414.299 122.9 416.783 122.206 419.137C121.269 422.275 119.132 424.928 116.244 426.497C113.357 428.066 109.964 428.421 106.815 427.506C104.453 426.815 102.371 425.451 100.796 423.564C99.2214 421.678 98.2471 419.379 97.9847 416.951C97.7222 414.523 98.1907 412.057 99.3343 409.891C100.478 407.724 102.221 405.948 104.377 404.771ZM349.124 402.929C352.405 402.667 355.649 403.713 358.161 405.843C360.017 407.43 361.366 409.542 362.041 411.895C362.716 414.268 362.66 416.752 361.91 419.087C361.161 421.422 359.736 423.477 357.805 424.99C355.893 426.503 353.549 427.418 351.112 427.624C348.675 427.811 346.218 427.287 344.081 426.092C341.925 424.896 340.2 423.103 339.075 420.918C337.951 418.732 337.52 416.266 337.801 413.838C338.082 411.391 339.076 409.112 340.669 407.244C342.806 404.741 345.844 403.19 349.124 402.929ZM211.838 382.959C215.663 383.052 219.357 384.285 222.488 386.489C225.618 388.693 228.017 391.776 229.386 395.344C230.755 398.912 231.036 402.816 230.193 406.533C229.349 410.269 227.417 413.65 224.643 416.284C222.042 418.753 218.798 420.435 215.298 421.174L214.594 421.327C212.101 421.757 209.532 421.682 207.058 421.122C204.583 420.562 202.239 419.516 200.158 418.058C198.078 416.583 196.316 414.733 194.966 412.585C193.616 410.437 192.697 408.046 192.266 405.543C191.61 401.77 192.098 397.902 193.654 394.409C195.21 390.916 197.759 387.965 201.002 385.929C204.245 383.893 208.014 382.866 211.838 382.959ZM149.626 392.12C152.307 390.7 155.344 390.121 158.344 390.438C162.375 390.868 166.086 392.867 168.636 396.024C171.186 399.163 172.386 403.197 171.954 407.232C171.636 410.24 170.436 413.079 168.505 415.395C166.555 417.712 163.987 419.411 161.081 420.27C158.175 421.13 155.082 421.111 152.195 420.215C149.308 419.318 146.758 417.6 144.846 415.246C142.952 412.892 141.789 410.034 141.508 407.026C141.246 404.019 141.865 400.993 143.308 398.341C144.751 395.688 146.945 393.521 149.626 392.12ZM1004.57 304.891L1048.04 186.365H1075.47L991.161 417.559H963.726L991.623 340.495L936.291 186.365H964.651L1004.57 304.891ZM300.788 367.687C303.188 366.81 305.719 366.417 308.249 366.511C310.78 366.604 313.274 367.202 315.579 368.267C317.885 369.331 319.967 370.825 321.692 372.693C324.279 375.495 325.984 379.008 326.584 382.781C327.184 386.554 326.641 390.421 325.047 393.895C323.435 397.37 320.848 400.284 317.586 402.283C314.343 404.263 310.555 405.253 306.731 405.103C302.906 404.954 299.213 403.665 296.119 401.424C293.026 399.163 290.683 396.062 289.352 392.475C288.04 388.889 287.796 385.003 288.696 381.286C289.596 377.569 291.564 374.207 294.376 371.61L294.358 371.629C296.214 369.91 298.407 368.565 300.788 367.687ZM68.2893 373.392C70.6515 372.738 73.1639 372.794 75.4886 373.541C77.8319 374.307 79.8753 375.726 81.3938 377.65C82.9123 379.574 83.8313 381.891 84.0188 384.338C84.2063 386.785 83.6619 389.232 82.4622 391.361C80.8499 394.219 78.1695 396.312 75.0013 397.209C71.8517 398.087 68.4575 397.694 65.5891 396.088C63.4521 394.892 61.7089 393.098 60.6028 390.913C59.4968 388.728 59.0658 386.262 59.347 383.834C59.6282 381.406 60.6403 379.108 62.2337 377.259C63.8272 375.391 65.9271 374.045 68.2893 373.392ZM398.797 360.257C400.428 360.275 402.022 360.63 403.522 361.266C405.771 362.237 407.684 363.844 409.015 365.898C410.346 367.934 411.04 370.344 411.002 372.791C410.965 375.238 410.215 377.629 408.827 379.646C407.44 381.664 405.472 383.214 403.203 384.13C400.935 385.045 398.441 385.25 396.041 384.746C393.642 384.223 391.448 383.027 389.742 381.271C388.036 379.515 386.893 377.292 386.443 374.883C385.993 372.473 386.274 369.988 387.248 367.747C387.886 366.253 388.823 364.908 389.986 363.768C391.148 362.629 392.517 361.732 394.035 361.135C395.554 360.537 397.166 360.238 398.797 360.257ZM356.502 353.191C358.452 352.668 360.477 352.537 362.464 352.799C364.451 353.06 366.363 353.714 368.107 354.723C370.731 356.217 372.85 358.478 374.181 361.186C375.512 363.895 376.018 366.94 375.624 369.929C375.212 372.917 373.956 375.738 371.95 377.998C369.963 380.277 367.338 381.903 364.413 382.687C361.508 383.453 358.414 383.359 355.546 382.388C352.678 381.398 350.166 379.605 348.328 377.214C346.472 374.823 345.385 371.927 345.198 368.92C345.01 365.912 345.704 362.905 347.222 360.29L347.203 360.308C348.216 358.571 349.546 357.039 351.14 355.825C352.733 354.611 354.552 353.714 356.502 353.191ZM121.934 344.509C125.758 344.565 129.489 345.742 132.639 347.909C135.788 350.076 138.226 353.121 139.651 356.67C141.075 360.219 141.394 364.105 140.607 367.841C139.819 371.576 137.926 374.995 135.189 377.666C132.452 380.337 128.982 382.13 125.214 382.821C121.465 383.512 117.565 383.083 114.06 381.57C109.335 379.553 105.623 375.742 103.73 370.978C101.818 366.234 101.893 360.91 103.917 356.203C105.417 352.691 107.948 349.702 111.154 347.629C114.359 345.537 118.109 344.453 121.934 344.509ZM253.671 340.08C256.464 339.856 259.277 340.192 261.957 341.052C264.638 341.911 267.113 343.293 269.25 345.124C271.388 346.955 273.15 349.177 274.425 351.681C276.337 355.435 277.106 359.695 276.6 363.879C276.094 368.082 274.368 372.023 271.613 375.236C268.857 378.449 265.22 380.784 261.152 381.924C257.083 383.063 252.771 382.988 248.741 381.681C244.729 380.392 241.185 377.908 238.561 374.601C235.936 371.276 234.361 367.26 234.024 363.057C233.686 358.854 234.624 354.632 236.686 350.952C238.748 347.272 241.86 344.283 245.628 342.359V342.341C248.14 341.07 250.859 340.304 253.671 340.08ZM174.098 333.031C176.779 332.228 179.609 331.966 182.403 332.265C186.602 332.713 190.577 334.375 193.839 337.084C197.101 339.774 199.482 343.379 200.682 347.433C201.882 351.486 201.863 355.802 200.607 359.837C199.369 363.871 196.932 367.458 193.652 370.11C190.352 372.763 186.358 374.388 182.14 374.78C177.922 375.154 173.685 374.295 169.973 372.277C166.261 370.26 163.224 367.197 161.255 363.461C159.287 359.725 158.462 355.484 158.912 351.281H158.893C159.193 348.498 160.036 345.789 161.367 343.323C162.717 340.857 164.536 338.672 166.711 336.916C168.886 335.141 171.398 333.834 174.098 333.031ZM71.1878 322.588C74.1873 322.27 77.2247 322.85 79.9056 324.251C82.5863 325.652 84.7794 327.819 86.2229 330.472C87.6664 333.124 88.2853 336.15 88.0042 339.157C87.7581 341.977 86.7212 344.665 85.0169 346.93L84.6858 347.395C83.4111 348.946 81.8552 350.253 80.0931 351.206C78.3309 352.177 76.3996 352.775 74.3938 352.98C72.4067 353.186 70.3814 353 68.4505 352.439C66.5195 351.86 64.7194 350.925 63.1634 349.655C60.8014 347.75 59.0769 345.191 58.177 342.314C57.2772 339.419 57.258 336.337 58.1204 333.441C58.9828 330.546 60.6893 327.968 63.0139 326.044C65.3386 324.101 68.1696 322.905 71.1878 322.588ZM317.167 306.529C322.641 305.053 328.491 305.819 333.403 308.658C337.058 310.769 340.021 313.927 341.896 317.719C343.77 321.511 344.464 325.77 343.92 329.954C343.358 334.138 341.577 338.079 338.783 341.255C335.99 344.43 332.316 346.709 328.229 347.811C324.142 348.895 319.83 348.764 315.818 347.4C311.806 346.037 308.299 343.515 305.712 340.172C303.125 336.809 301.607 332.774 301.325 328.553C301.063 324.331 302.038 320.128 304.157 316.467L304.175 316.485C307.006 311.572 311.693 308.005 317.167 306.529ZM365.328 310.183C369.865 307.792 375.171 307.305 380.064 308.818C383.72 309.958 386.944 312.144 389.363 315.114C391.781 318.084 393.244 321.689 393.6 325.5C393.937 329.31 393.15 333.121 391.331 336.483C389.513 339.846 386.738 342.592 383.345 344.367C379.971 346.142 376.127 346.87 372.322 346.477C368.516 346.085 364.916 344.572 361.973 342.125C359.03 339.697 356.874 336.428 355.786 332.767C354.699 329.105 354.736 325.201 355.861 321.558V321.54C357.379 316.646 360.792 312.574 365.328 310.183ZM655.498 120.706C670.192 120.706 683.961 123.634 696.805 129.491C709.649 135.245 720.952 143.26 730.713 153.535C740.475 163.81 748.079 175.73 753.525 189.294C759.073 202.754 761.847 217.191 761.847 232.603C761.847 248.016 759.073 262.505 753.525 276.068C748.079 289.529 740.475 301.397 730.713 311.673C720.952 321.948 709.649 330.014 696.805 335.871C683.961 341.625 670.192 344.502 655.498 344.502C640.907 344.502 627.189 341.625 614.345 335.871C601.501 330.014 590.198 321.948 580.437 311.673C570.675 301.397 563.02 289.529 557.471 276.068C551.922 262.505 549.149 248.016 549.149 232.603C549.149 217.191 551.923 202.754 557.471 189.294C563.02 175.73 570.675 163.81 580.437 153.535C590.198 143.26 601.501 135.245 614.345 129.491C627.189 123.634 640.907 120.706 655.498 120.706ZM1239.18 340.495H1213.29V314.293C1208.05 323.335 1201.01 330.63 1192.18 336.179C1183.34 341.727 1172.96 344.502 1161.04 344.502C1149.84 344.502 1139.36 342.395 1129.6 338.183C1119.84 333.97 1111.21 328.165 1103.7 320.767C1096.31 313.266 1090.5 304.634 1086.29 294.872C1082.08 285.11 1079.97 274.63 1079.97 263.43C1079.97 252.23 1082.08 241.749 1086.29 231.987C1090.5 222.123 1096.31 213.492 1103.7 206.094C1111.21 198.593 1119.84 192.735 1129.6 188.522C1139.36 184.31 1149.84 182.203 1161.04 182.203C1172.96 182.203 1183.34 184.978 1192.18 190.526C1201.01 196.075 1208.05 203.371 1213.29 212.413V109.3H1239.18V340.495ZM1518.14 182.05C1529.75 182.05 1540.39 184.413 1550.05 189.14C1559.81 193.763 1568.13 200.236 1575.02 208.559C1582 216.882 1587.19 226.542 1590.58 237.536C1594.08 248.531 1595.36 260.296 1594.44 272.832H1468.67C1469.9 281.566 1472.78 289.375 1477.3 296.26C1481.82 303.041 1487.57 308.436 1494.56 312.443C1501.65 316.451 1509.51 318.506 1518.14 318.608C1527.39 318.608 1535.76 316.245 1543.27 311.518C1550.77 306.689 1556.83 300.113 1561.45 291.79L1587.81 297.955C1581.64 311.621 1572.34 322.822 1559.91 331.556C1547.48 340.187 1533.56 344.502 1518.14 344.502C1503.96 344.502 1491.02 340.854 1479.3 333.558C1467.69 326.263 1458.39 316.502 1451.4 304.274C1444.52 291.944 1441.08 278.329 1441.08 263.43C1441.08 252.127 1443.08 241.594 1447.09 231.833C1451.1 221.969 1456.59 213.337 1463.58 205.939C1470.67 198.438 1478.89 192.582 1488.24 188.369C1497.59 184.156 1507.56 182.05 1518.14 182.05ZM1374.87 181.125C1387.3 181.125 1398.66 183.796 1408.93 189.14C1419.21 194.483 1426.86 201.727 1431.9 210.872L1411.09 223.048C1409.34 219.349 1406.67 216.112 1403.08 213.338C1399.48 210.461 1395.37 208.2 1390.74 206.556C1386.12 204.912 1381.39 204.038 1376.56 203.935C1370.61 203.73 1365.01 204.501 1359.76 206.248C1354.63 207.995 1350.47 210.666 1347.28 214.263C1344.2 217.756 1342.66 222.123 1342.66 227.363C1342.66 232.501 1344.3 236.405 1347.59 239.077C1350.98 241.749 1355.35 243.907 1360.69 245.551C1366.14 247.092 1372.04 248.89 1378.41 250.945C1387.76 253.925 1396.5 257.368 1404.62 261.272C1412.73 265.177 1419.26 270.057 1424.19 275.914C1429.23 281.771 1431.69 289.015 1431.59 297.646C1431.59 307.1 1428.76 315.372 1423.11 322.462C1417.46 329.449 1410.11 334.792 1401.07 338.491C1392.13 342.19 1382.52 343.834 1372.25 343.423C1363.93 343.114 1355.81 341.574 1347.9 338.8C1340.09 335.923 1333.2 332.069 1327.24 327.239C1321.39 322.307 1317.12 316.656 1314.45 310.285L1336.64 300.729C1338.19 304.223 1340.96 307.511 1344.97 310.594C1348.98 313.676 1353.6 316.143 1358.84 317.992C1364.08 319.842 1369.37 320.766 1374.72 320.767C1380.37 320.767 1385.66 319.892 1390.59 318.145C1395.52 316.399 1399.53 313.83 1402.61 310.439C1405.8 306.946 1407.39 302.784 1407.39 297.955C1407.39 292.817 1405.64 288.81 1402.15 285.933C1398.76 282.953 1394.44 280.641 1389.2 278.997C1384.07 277.25 1378.82 275.606 1373.48 274.064C1362.9 271.393 1353.45 268.208 1345.12 264.509C1336.8 260.707 1330.22 255.929 1325.39 250.175C1320.67 244.318 1318.3 236.868 1318.3 227.826C1318.3 218.27 1320.92 209.998 1326.16 203.011C1331.51 196.024 1338.5 190.629 1347.13 186.827C1355.76 183.025 1365.01 181.125 1374.87 181.125ZM423.637 318.474C425.23 318.137 426.88 318.1 428.474 318.398C430.892 318.828 433.105 319.987 434.867 321.686C436.63 323.405 437.848 325.591 438.354 327.981C438.86 330.372 438.654 332.857 437.754 335.136C436.854 337.415 435.298 339.376 433.274 340.759C431.249 342.141 428.867 342.907 426.411 342.944C423.956 342.982 421.557 342.29 419.494 340.964C417.432 339.619 415.82 337.714 414.845 335.473C413.87 333.231 413.588 330.746 414.038 328.337V328.318C414.338 326.73 414.939 325.198 415.82 323.835C416.719 322.471 417.863 321.294 419.194 320.379C420.543 319.464 422.044 318.81 423.637 318.474ZM852.639 240.927L892.713 186.057H924.618L868.515 263.122L924.926 340.495H893.022L852.639 285.008L812.103 340.495H780.199L836.61 263.122L780.507 186.057H812.411L852.639 240.927ZM1295.89 340.495H1269.99V186.365H1295.89V340.495ZM25.0755 309.058C27.4001 308.292 29.9126 308.254 32.2747 308.908C34.6367 309.562 36.7555 310.906 38.3489 312.774H38.3294C39.3792 314.007 40.1855 315.427 40.6917 316.977C41.1978 318.528 41.4039 320.153 41.2727 321.778C41.1415 323.403 40.6923 324.991 39.9612 326.43C39.2301 327.868 38.2171 329.157 36.9798 330.222C35.1238 331.809 32.8368 332.818 30.3997 333.117C27.9625 333.416 25.5062 332.968 23.3128 331.866C21.1381 330.764 19.3193 329.026 18.1194 326.896C16.9198 324.748 16.3763 322.32 16.5638 319.873C16.7513 317.426 17.6517 315.091 19.1702 313.167C20.6887 311.243 22.7509 309.823 25.0755 309.058ZM115.165 285.666C119.196 284.415 123.526 284.396 127.575 285.592C131.625 286.787 135.244 289.16 137.944 292.41C140.643 295.642 142.311 299.62 142.761 303.823C143.211 308.026 142.387 312.267 140.418 316.003C138.45 319.739 135.412 322.802 131.7 324.819C127.97 326.837 123.752 327.714 119.533 327.322C115.315 326.93 111.303 325.305 108.022 322.652L108.041 322.671C105.848 320.915 104.047 318.729 102.698 316.264C101.367 313.798 100.523 311.09 100.223 308.307C99.923 305.505 100.185 302.684 100.991 299.994C101.798 297.304 103.129 294.801 104.891 292.615C107.553 289.327 111.116 286.917 115.165 285.666ZM1161.35 207.327C1151.18 207.327 1141.93 209.844 1133.61 214.879C1125.39 219.914 1118.81 226.696 1113.88 235.225C1108.95 243.65 1106.48 253.052 1106.48 263.43C1106.48 273.808 1109 283.261 1114.03 291.79C1119.07 300.216 1125.75 306.946 1134.07 311.98C1142.39 316.912 1151.48 319.379 1161.35 319.379C1171.52 319.379 1180.31 316.913 1187.71 311.98C1195.21 306.945 1200.96 300.164 1204.97 291.636C1209.08 283.107 1211.13 273.705 1211.13 263.43C1211.13 252.949 1209.08 243.496 1204.97 235.07C1200.86 226.542 1195.05 219.811 1187.55 214.879C1180.15 209.844 1171.42 207.327 1161.35 207.327ZM655.498 146.6C644.298 146.6 633.817 148.86 624.055 153.381C614.396 157.902 605.868 164.171 598.47 172.185C591.175 180.097 585.42 189.242 581.207 199.62C577.097 209.895 575.042 220.89 575.042 232.603C575.042 244.42 577.149 255.517 581.362 265.895C585.574 276.273 591.329 285.419 598.624 293.331C606.022 301.243 614.551 307.459 624.209 311.98C633.971 316.399 644.401 318.608 655.498 318.608C666.698 318.608 677.128 316.347 686.786 311.826C696.548 307.305 705.076 301.089 712.371 293.177C719.77 285.162 725.524 276.017 729.634 265.742C733.847 255.364 735.953 244.317 735.953 232.603C735.953 220.89 733.847 209.844 729.634 199.466C725.421 188.985 719.616 179.84 712.218 172.031C704.923 164.119 696.394 157.902 686.632 153.381C676.973 148.86 666.595 146.6 655.498 146.6ZM63.7093 263.864C67.4588 263.117 71.3585 263.51 74.8831 264.967C78.4263 266.424 81.4443 268.908 83.5628 272.084H83.5442C86.3937 276.343 87.4245 281.554 86.4309 286.579C85.4186 291.604 82.4571 296.032 78.2014 298.871C75.0145 301 71.2836 302.121 67.4593 302.121C63.6348 302.102 59.9032 300.982 56.7161 298.852C53.5291 296.723 51.0544 293.715 49.5921 290.184C48.1299 286.654 47.7554 282.769 48.5052 279.033C49.2551 275.297 51.1112 271.841 53.8108 269.151C56.5105 266.443 59.9597 264.611 63.7093 263.864ZM411.91 268.842C414.929 268.842 417.891 269.739 420.404 271.42C422.916 273.101 424.865 275.492 426.028 278.275C427.171 281.058 427.471 284.122 426.89 287.092C426.309 290.043 424.846 292.771 422.709 294.9C420.572 297.048 417.835 298.487 414.873 299.085C411.911 299.683 408.837 299.383 406.043 298.225C403.25 297.067 400.868 295.106 399.181 292.602C397.494 290.099 396.594 287.148 396.594 284.122H396.613C396.613 280.069 398.225 276.183 401.093 273.325C403.961 270.448 407.861 268.842 411.91 268.842ZM358.66 247.145C362.879 247.145 367.022 248.396 370.546 250.75C374.052 253.085 376.808 256.429 378.42 260.333C380.032 264.237 380.464 268.534 379.639 272.681C378.814 276.828 376.789 280.638 373.789 283.627C370.79 286.616 366.966 288.652 362.823 289.474C358.661 290.295 354.348 289.866 350.449 288.26C346.549 286.653 343.193 283.907 340.85 280.395C338.506 276.884 337.25 272.755 337.25 268.533L337.269 268.515C337.269 265.713 337.831 262.929 338.9 260.333C339.968 257.736 341.543 255.382 343.531 253.402C345.518 251.422 347.861 249.854 350.467 248.77C353.073 247.706 355.848 247.145 358.66 247.145ZM12.3675 262.466C14.8045 262.242 17.2604 262.746 19.4163 263.923C21.5535 265.1 23.3157 266.875 24.4593 269.042L24.4407 269.022C25.978 271.936 26.2778 275.318 25.303 278.456C24.3281 281.594 22.1532 284.209 19.2473 285.741C17.0727 286.88 14.617 287.367 12.18 287.105C9.74278 286.844 7.43675 285.872 5.54325 284.303C3.66858 282.734 2.28083 280.66 1.58719 278.307C0.893618 275.953 0.912755 273.45 1.64383 271.115C2.37499 268.78 3.78138 266.706 5.69364 265.175C7.60585 263.624 9.93038 262.69 12.3675 262.466ZM445.939 245.733C448.357 245.322 450.851 245.64 453.082 246.63C455.313 247.638 457.207 249.264 458.519 251.337C459.831 253.41 460.487 255.82 460.431 258.267C460.375 260.715 459.568 263.087 458.162 265.086C456.756 267.085 454.769 268.616 452.482 269.494C450.195 270.372 447.702 270.559 445.302 270.017C442.902 269.476 440.728 268.242 439.04 266.468C437.353 264.693 436.228 262.452 435.816 260.042V260.023C435.553 258.417 435.59 256.773 435.947 255.185C436.303 253.598 436.978 252.103 437.915 250.777C438.853 249.451 440.053 248.33 441.421 247.452C442.79 246.593 444.327 246.014 445.939 245.733ZM87.6712 215.673C91.3643 213.618 95.5821 212.684 99.8001 213.02C104.018 213.357 108.049 214.926 111.367 217.541C114.686 220.156 117.161 223.687 118.473 227.703H118.491C119.354 230.374 119.692 233.176 119.467 235.977C119.242 238.761 118.473 241.488 117.199 243.991C115.924 246.476 114.161 248.699 112.024 250.529C109.886 252.36 107.412 253.742 104.731 254.601C100.719 255.909 96.3886 255.984 92.3206 254.845C88.2524 253.686 84.6146 251.37 81.8587 248.157C79.1216 244.944 77.3783 240.984 76.8909 236.8C76.3847 232.615 77.1535 228.375 79.0657 224.601C80.978 220.847 83.978 217.746 87.6712 215.673ZM398.04 215.698C400.477 215.007 403.027 214.802 405.558 215.1C408.089 215.399 410.525 216.203 412.738 217.435C414.95 218.668 416.9 220.33 418.475 222.329C420.05 224.309 421.212 226.588 421.906 229.035C422.937 232.715 422.862 236.619 421.681 240.243C420.481 243.867 418.25 247.08 415.25 249.433C412.251 251.806 408.595 253.226 404.789 253.525C400.984 253.824 397.159 252.983 393.822 251.115C390.485 249.247 387.785 246.426 386.041 243.026C384.298 239.627 383.623 235.779 384.073 231.987C384.522 228.195 386.098 224.627 388.573 221.713C391.066 218.817 394.366 216.726 398.04 215.68V215.698ZM1518.14 205.169C1509.51 205.169 1501.6 207.275 1494.41 211.488C1487.21 215.701 1481.25 221.404 1476.53 228.597C1471.9 235.686 1469.03 243.65 1467.9 252.486H1568.39C1567.57 243.855 1564.79 235.995 1560.07 228.905C1555.34 221.712 1549.33 215.958 1542.03 211.642C1534.74 207.327 1526.77 205.169 1518.14 205.169ZM31.9358 221.842C34.5791 220.366 37.5973 219.694 40.6155 219.936C43.6338 220.179 46.5022 221.3 48.8831 223.168C51.264 225.055 53.0268 227.576 53.9641 230.453H53.9827C55.2387 234.301 54.9019 238.504 53.0647 242.109C51.2275 245.714 48.0213 248.442 44.1595 249.693C41.2723 250.627 38.1786 250.683 35.2727 249.861C32.3669 249.039 29.7607 247.377 27.7923 245.079C25.824 242.782 24.587 239.961 24.2307 236.954C23.8746 233.965 24.418 230.92 25.7864 228.23C27.155 225.54 29.2924 223.317 31.9358 221.842ZM444.04 196.331C446.309 195.397 448.803 195.154 451.202 195.621C453.621 196.107 455.814 197.266 457.558 199.003C459.283 200.74 460.464 202.944 460.951 205.335C461.439 207.745 461.194 210.229 460.257 212.489C459.32 214.768 457.745 216.693 455.701 218.057C453.658 219.42 451.277 220.148 448.822 220.148C446.384 220.148 443.984 219.42 441.941 218.075C439.897 216.712 438.304 214.787 437.366 212.527L437.348 212.508C436.092 209.482 436.092 206.082 437.348 203.037C438.604 200.011 441.003 197.601 444.04 196.331ZM347.024 175.184C351.786 172.102 357.579 171.037 363.128 172.214C368.677 173.391 373.533 176.735 376.626 181.479C378.932 185.029 380.132 189.176 380.075 193.397C380.019 197.619 378.708 201.729 376.308 205.203C373.908 208.678 370.533 211.367 366.596 212.936C362.659 214.505 358.366 214.86 354.223 213.982C350.08 213.104 346.292 211.031 343.349 208.005C340.387 204.979 338.4 201.15 337.631 197.003C336.844 192.837 337.332 188.559 339 184.674C340.669 180.788 343.462 177.482 347.005 175.184H347.024ZM8.4036 185.344C10.7283 184.559 13.2406 184.465 15.6028 185.1C17.9649 185.736 20.1019 187.062 21.7141 188.892C23.3264 190.723 24.3759 193.002 24.6946 195.431V195.412C24.9195 197.018 24.8072 198.662 24.3948 200.231C23.9636 201.8 23.2517 203.276 22.2581 204.565C21.2645 205.854 20.0264 206.938 18.6204 207.76C17.2145 208.563 15.6583 209.104 14.0462 209.309C11.6091 209.627 9.1341 209.235 6.94071 208.151C4.7288 207.087 2.91039 205.368 1.67313 203.258C0.435849 201.147 -0.126189 198.718 0.0237156 196.271C0.192444 193.824 1.07293 191.489 2.55399 189.546C4.05378 187.584 6.07896 186.128 8.4036 185.344ZM58.6009 167.638C62.1066 166.125 65.9879 165.695 69.7561 166.387C73.5243 167.078 76.9927 168.871 79.7298 171.542C82.4669 174.213 84.3603 177.632 85.1477 181.368C85.935 185.104 85.6163 188.989 84.1917 192.538C82.7669 196.087 80.3296 199.133 77.18 201.3C74.0304 203.467 70.2994 204.643 66.4749 204.699H66.4934C61.3754 204.774 56.4257 202.793 52.7513 199.225C49.077 195.639 46.9776 190.764 46.9026 185.645C46.8464 181.816 47.934 178.061 50.0149 174.867C52.0959 171.654 55.0764 169.151 58.6009 167.638ZM412.095 160.999C415.132 161.036 418.075 161.971 420.569 163.689C423.062 165.408 424.994 167.818 426.118 170.62C427.243 173.422 427.506 176.504 426.868 179.455C426.231 182.406 424.749 185.116 422.574 187.226C420.4 189.337 417.663 190.757 414.682 191.299C411.701 191.84 408.626 191.504 405.852 190.308C403.077 189.113 400.715 187.133 399.066 184.593V184.573C397.978 182.892 397.228 181.024 396.853 179.044C396.478 177.064 396.516 175.047 396.928 173.086C397.359 171.124 398.147 169.256 399.29 167.612C400.415 165.968 401.877 164.548 403.565 163.465C406.096 161.821 409.077 160.962 412.095 160.999ZM110.81 141.19C114.803 139.827 119.134 139.677 123.221 140.779C128.695 142.236 133.382 145.823 136.213 150.736C139.063 155.649 139.813 161.477 138.351 166.95C137.264 171.041 134.975 174.702 131.788 177.485C128.601 180.269 124.665 182.062 120.465 182.603C116.266 183.164 111.991 182.455 108.204 180.587C104.399 178.719 101.249 175.767 99.1302 172.105C97.0119 168.444 96.0374 164.222 96.3186 160.019C96.5999 155.817 98.1371 151.763 100.705 148.42C103.292 145.058 106.798 142.554 110.81 141.19ZM23.7034 138.164C26.1406 137.921 28.597 138.388 30.7718 139.527C32.9464 140.667 34.7276 142.423 35.8899 144.571C37.0521 146.719 37.5582 149.185 37.3333 151.613C37.0333 154.882 35.4394 157.909 32.9085 160.001C30.3776 162.093 27.1345 163.101 23.8538 162.803C21.3979 162.578 19.0922 161.644 17.18 160.094C15.2866 158.543 13.8799 156.47 13.1487 154.136C12.4363 151.782 12.4179 149.297 13.1116 146.943C13.8053 144.59 15.1734 142.516 17.0667 140.947C18.9601 139.397 21.2663 138.407 23.7034 138.164ZM1283.1 133.19C1287.1 133.19 1290.49 134.526 1293.27 137.197C1296.04 139.869 1297.43 143.208 1297.43 147.216C1297.43 151.223 1296.04 154.563 1293.27 157.234C1290.6 159.906 1287.26 161.242 1283.25 161.242C1279.14 161.242 1275.7 159.906 1272.92 157.234C1270.15 154.563 1268.76 151.223 1268.76 147.216C1268.76 143.208 1270.15 139.869 1272.92 137.197C1275.7 134.526 1279.09 133.19 1283.1 133.19ZM375.531 121.234C380.649 120.898 385.692 122.597 389.554 125.978C392.422 128.5 394.484 131.807 395.478 135.506C396.471 139.204 396.341 143.09 395.122 146.714C393.885 150.337 391.598 153.513 388.579 155.829C385.561 158.145 381.905 159.528 378.08 159.77C374.275 160.032 370.469 159.136 367.151 157.23C363.851 155.325 361.17 152.467 359.483 149.049C357.777 145.63 357.14 141.782 357.646 137.99C358.152 134.198 359.745 130.649 362.276 127.772H362.257C365.632 123.924 370.413 121.571 375.531 121.234ZM318.061 108.477C320.873 108.552 323.628 109.188 326.197 110.327C330.058 112.027 333.321 114.866 335.589 118.433C337.858 122.001 339.001 126.168 338.889 130.39C338.776 134.611 337.408 138.702 334.971 142.157C332.534 145.613 329.122 148.266 325.166 149.779C321.211 151.292 316.898 151.61 312.774 150.676C308.649 149.742 304.881 147.612 301.975 144.549C299.05 141.485 297.12 137.618 296.408 133.453C295.676 129.287 296.22 125.009 297.945 121.142C299.088 118.583 300.719 116.267 302.762 114.343C304.805 112.419 307.206 110.906 309.83 109.897C312.455 108.889 315.249 108.403 318.061 108.477ZM424.99 122.686C427.408 122.313 429.883 122.649 432.114 123.677C434.345 124.704 436.22 126.367 437.494 128.459C438.788 130.551 439.407 132.961 439.313 135.408C439.219 137.855 438.394 140.208 436.95 142.188C435.507 144.168 433.52 145.682 431.214 146.522C428.908 147.363 426.414 147.513 424.033 146.933C421.653 146.354 419.497 145.084 417.828 143.291C415.597 140.881 414.416 137.687 414.547 134.399C414.678 131.13 416.103 128.029 418.522 125.807C420.322 124.163 422.571 123.06 424.99 122.686ZM65.3782 115.843C68.3777 115.45 71.4148 115.936 74.1331 117.281C76.8515 118.607 79.1009 120.719 80.6194 123.334C82.1379 125.949 82.851 128.956 82.6448 131.964C82.4386 134.971 81.3511 137.867 79.5139 140.258C77.6768 142.667 75.1643 144.46 72.2962 145.432C69.4279 146.403 66.334 146.516 63.4095 145.731C61.4597 145.208 59.6407 144.311 58.0472 143.097C56.4539 141.864 55.1041 140.351 54.1106 138.614C53.117 136.877 52.461 134.953 52.1985 132.973C51.9361 130.992 52.0671 128.975 52.5921 127.032C53.3795 124.118 55.0102 121.503 57.2786 119.504C59.5658 117.505 62.3786 116.235 65.3782 115.843ZM166.684 90.7938C170.677 89.393 174.989 89.1874 179.094 90.2333C183.2 91.2607 186.893 93.5025 189.724 96.6405L189.743 96.6786C193.53 100.881 195.498 106.429 195.199 112.089C194.899 117.749 192.368 123.055 188.15 126.847C185 129.667 181.081 131.516 176.901 132.114C172.72 132.712 168.446 132.058 164.621 130.246C160.797 128.415 157.591 125.502 155.435 121.878C153.26 118.235 152.229 114.051 152.454 109.829C152.661 105.607 154.141 101.535 156.672 98.1542C159.203 94.7731 162.691 92.1948 166.684 90.7938ZM110.432 85.4032C113.919 83.8341 117.8 83.3481 121.569 84.0019C125.355 84.6557 128.842 86.3935 131.616 89.0272C134.391 91.6611 136.323 95.0609 137.166 98.7782C138.01 102.514 137.728 106.4 136.36 109.968C134.991 113.535 132.592 116.617 129.461 118.821C126.349 121.025 122.637 122.259 118.813 122.352C114.988 122.465 111.219 121.418 107.976 119.382C103.627 116.654 100.552 112.302 99.427 107.314C98.3023 102.308 99.2027 97.0777 101.94 92.744C103.983 89.5126 106.945 86.9536 110.432 85.4032ZM241.043 79.0917C245.018 77.6347 249.33 77.3731 253.454 78.3632C257.579 79.3532 261.31 81.52 264.178 84.6396C267.046 87.759 268.94 91.6441 269.596 95.8095H269.577C270.027 98.5741 269.914 101.414 269.258 104.142C268.602 106.869 267.403 109.428 265.753 111.707C264.103 113.986 262.022 115.91 259.622 117.367C257.223 118.824 254.56 119.813 251.785 120.243C247.605 120.897 243.312 120.318 239.469 118.544C235.626 116.769 232.401 113.911 230.189 110.306C227.977 106.7 226.889 102.516 227.058 98.2948C227.227 94.0731 228.633 90.0004 231.126 86.5819C233.62 83.1637 237.069 80.5487 241.043 79.0917ZM398.489 80.3563C400.082 80.0575 401.732 80.0767 403.325 80.413C404.919 80.7492 406.419 81.4029 407.769 82.3183C409.793 83.7005 411.349 85.643 412.268 87.9218C413.168 90.2006 413.393 92.6851 412.887 95.0761C412.381 97.4671 411.162 99.6534 409.418 101.372C407.675 103.072 405.444 104.229 403.044 104.678C400.645 105.126 398.151 104.846 395.902 103.893C393.652 102.941 391.721 101.334 390.39 99.2792C389.059 97.2245 388.365 94.8336 388.384 92.3866C388.403 89.9397 389.152 87.5485 390.539 85.5312C391.458 84.1862 392.621 83.0469 393.99 82.1503C395.358 81.2723 396.895 80.6552 398.489 80.3563ZM353.443 70.5497C355.449 70.5871 357.418 71.0354 359.255 71.8573C362.011 73.0902 364.354 75.1079 365.966 77.6669C367.578 80.2261 368.403 83.1964 368.328 86.2226C368.253 89.23 367.279 92.1631 365.535 94.6288C363.792 97.0945 361.354 98.9809 358.524 100.064C355.712 101.148 352.618 101.372 349.675 100.699C346.713 100.027 344.031 98.495 341.95 96.3095C339.87 94.124 338.482 91.3595 337.976 88.3896C337.47 85.4194 337.845 82.3554 339.082 79.5907L339.064 79.6093C339.889 77.7602 341.051 76.1165 342.513 74.7343C343.956 73.352 345.681 72.2683 347.556 71.5585C349.431 70.8487 351.437 70.4937 353.443 70.5497ZM61.9163 72.6581C64.2222 71.8362 66.716 71.7244 69.097 72.3222C71.4779 72.9199 73.6152 74.2085 75.2649 76.0204C76.9147 77.8324 77.9829 80.093 78.3391 82.5214C78.6953 84.9309 78.3205 87.415 77.2708 89.619C76.5772 91.0947 75.5838 92.4214 74.3841 93.5048C73.1655 94.6069 71.7592 95.4474 70.222 95.9892C68.7034 96.5309 67.0717 96.7553 65.4407 96.6806C63.8098 96.6058 62.2164 96.1949 60.7542 95.5038C58.5421 94.4578 56.6861 92.7579 55.43 90.6659C54.1739 88.5738 53.5556 86.1452 53.6868 83.6981C53.818 81.2511 54.661 78.8968 56.1233 76.9354C57.5856 74.9555 59.6105 73.48 61.9163 72.6581ZM291.906 60.7821C296.011 57.7186 301.167 56.411 306.247 57.1396C310.034 57.6813 313.559 59.3432 316.408 61.9022C319.239 64.4613 321.264 67.8053 322.201 71.5038C323.139 75.2023 322.952 79.0881 321.677 82.6933C320.402 86.2985 318.095 89.4368 315.021 91.7157C311.965 93.9946 308.291 95.3208 304.466 95.5263C300.66 95.7317 296.854 94.7982 293.574 92.8368C290.274 90.8941 287.65 88.0171 286 84.5614C284.454 81.339 283.846 77.739 284.224 74.1923L284.331 73.4843C285.062 68.4034 287.8 63.8456 291.906 60.7821ZM206.153 43.0214C209.958 42.872 213.745 43.8431 217.007 45.8417C220.269 47.8218 222.875 50.7364 224.469 54.2108L224.488 54.2479C225.556 56.5455 226.156 59.0299 226.25 61.5702C226.344 64.092 225.95 66.6334 225.069 69.0058C224.187 71.3779 222.857 73.5637 221.132 75.4315C219.407 77.2995 217.326 78.7935 215.02 79.8583C211.552 81.446 207.671 81.9883 203.903 81.3905C200.116 80.7928 196.61 79.0924 193.798 76.496C190.986 73.8996 189.017 70.5373 188.117 66.8202C187.218 63.103 187.443 59.2173 188.774 55.6308C190.086 52.0629 192.448 48.9427 195.541 46.7011C198.635 44.4409 202.328 43.1708 206.153 43.0214ZM148.465 43.5722C151.483 43.7216 154.389 44.768 156.808 46.58C159.226 48.3919 161.064 50.8764 162.076 53.7157C163.089 56.555 163.238 59.6375 162.489 62.5702C161.739 65.4842 160.144 68.1368 157.895 70.1542L157.914 70.1728C156.415 71.5176 154.671 72.5452 152.778 73.2177C150.884 73.8902 148.877 74.1891 146.871 74.0771C144.865 73.9649 142.897 73.4607 141.078 72.6015C139.26 71.7422 137.648 70.5275 136.298 69.0331C134.273 66.7915 132.961 63.9897 132.53 61.0009C132.098 58.0122 132.548 54.9673 133.861 52.2401C135.154 49.5316 137.235 47.2525 139.841 45.7021C142.447 44.1516 145.447 43.4228 148.465 43.5722ZM100.998 40.1688C103.436 39.8886 105.892 40.3186 108.085 41.4394C110.279 42.5601 112.079 44.2785 113.279 46.4267C114.478 48.5749 115.003 51.004 114.816 53.4511C114.628 55.8979 113.709 58.2137 112.191 60.1376L112.172 60.119C111.16 61.3893 109.922 62.4732 108.497 63.2577C107.091 64.0608 105.517 64.5651 103.905 64.7519C102.292 64.9573 100.661 64.8271 99.0862 64.3788C97.5116 63.9492 96.0494 63.2018 94.7747 62.1933C92.8625 60.6615 91.4191 58.6249 90.6692 56.2899C89.9006 53.955 89.844 51.4521 90.5188 49.0985C91.1937 46.7449 92.5249 44.6336 94.3997 43.0458C96.2743 41.4581 98.5613 40.4491 100.998 40.1688ZM249.06 27.5771C251.891 26.5311 254.984 26.3448 257.927 27.0546C260.87 27.7644 263.533 29.3151 265.595 31.538C267.657 33.7608 269.007 36.525 269.476 39.5136H269.457C269.776 41.4936 269.7 43.5299 269.232 45.4726C268.763 47.4338 267.92 49.2645 266.739 50.8896C265.558 52.5146 264.058 53.8972 262.352 54.9433C260.627 55.9893 258.734 56.6804 256.746 56.9979C253.766 57.4649 250.691 57.0543 247.953 55.7841C245.216 54.5325 242.891 52.478 241.317 49.9003C239.723 47.3225 238.954 44.3521 239.067 41.3261C239.179 38.2999 240.192 35.3855 241.973 32.9384C243.754 30.4913 246.229 28.6231 249.06 27.5771ZM335.759 32.5595C338.59 30.8785 341.965 30.393 345.152 31.1962C347.514 31.794 349.669 33.1021 351.3 34.914C352.95 36.7259 354 38.9857 354.357 41.414C354.694 43.8424 354.319 46.3084 353.269 48.5126C352.2 50.7167 350.513 52.5657 348.413 53.8173C346.314 55.0688 343.876 55.6668 341.439 55.536C338.983 55.4052 336.64 54.5457 334.671 53.0888C332.703 51.6131 331.222 49.5961 330.397 47.2987C329.572 45.0011 329.46 42.4973 330.06 40.1249L330.078 40.1444C330.885 36.9688 332.928 34.2407 335.759 32.5595ZM297.937 9.57803C300.374 9.65274 302.755 10.4369 304.761 11.8378C306.767 13.2388 308.305 15.2191 309.186 17.4979C310.067 19.7956 310.254 22.2807 309.71 24.6718C309.167 27.0626 307.948 29.2485 306.167 30.9296C304.386 32.6107 302.155 33.7501 299.737 34.161C297.318 34.5719 294.825 34.2731 292.594 33.2831C290.345 32.2932 288.451 30.6678 287.139 28.5946C285.827 26.5212 285.17 24.111 285.226 21.664L285.245 21.6269C285.283 20.0017 285.639 18.4132 286.295 16.9188C286.97 15.4433 287.907 14.0981 289.088 12.9774C290.269 11.8568 291.657 10.9794 293.175 10.4003C294.694 9.82124 296.306 9.5407 297.937 9.57803ZM170.619 6.70693C173.038 6.31468 175.513 6.65041 177.743 7.67764C179.974 8.70502 181.849 10.3492 183.124 12.4413V12.4228C183.987 13.8051 184.549 15.3368 184.812 16.9433C185.056 18.5497 184.999 20.1748 184.624 21.7626C184.249 23.3502 183.556 24.8261 182.6 26.1522C181.644 27.4785 180.443 28.5811 179.056 29.4403C176.975 30.7292 174.557 31.3638 172.101 31.2704C169.645 31.177 167.282 30.3738 165.295 28.9354C163.308 27.4971 161.789 25.5171 160.946 23.2196C160.102 20.9221 159.953 18.419 160.515 16.0468C161.096 13.6744 162.352 11.5071 164.152 9.84463C165.951 8.18221 168.201 7.09926 170.619 6.70693ZM216.91 0.662988C218.466 0.139948 220.079 -0.0838578 221.71 0.0282221C223.341 0.1403 224.916 0.569439 226.378 1.2792C227.822 1.98894 229.134 2.99784 230.202 4.21182C231.271 5.44465 232.096 6.8647 232.621 8.39639C233.409 10.7314 233.502 13.2164 232.865 15.5888C232.227 17.9609 230.896 20.0908 229.059 21.6972C227.203 23.3221 224.934 24.3494 222.497 24.6669C220.06 24.9844 217.585 24.5735 215.392 23.4901C213.199 22.4067 211.361 20.7065 210.143 18.5771C208.924 16.4476 208.343 14.0192 208.512 11.5722C208.662 9.12511 209.543 6.79026 211.043 4.84756C212.543 2.90494 214.567 1.44754 216.892 0.662988H216.91Z" fill="white"/>
</svg>
