<?xml version="1.0" encoding="UTF-8"?>
<svg id="Layer_2" data-name="Layer 2" xmlns="http://www.w3.org/2000/svg" xmlns:xlink="http://www.w3.org/1999/xlink" viewBox="0 0 376.47 379">
  <defs>
    <style>
      .cls-1 {
        clip-path: url(#clippath);
      }

      .cls-2 {
        fill: none;
      }

      .cls-2, .cls-3, .cls-4, .cls-5, .cls-6, .cls-7 {
        stroke-width: 0px;
      }

      .cls-8 {
        mask: url(#mask);
      }

      .cls-3 {
        fill: #4040bf;
      }

      .cls-4 {
        fill: #ade4ff;
      }

      .cls-5 {
        fill: #fff;
      }

      .cls-6 {
        fill: #003093;
      }

      .cls-7 {
        fill: #0af;
      }
    </style>
    <clipPath id="clippath">
      <rect class="cls-2" width="376.47" height="379"/>
    </clipPath>
    <mask id="mask" x="0" y="0" width="376.47" height="379" maskUnits="userSpaceOnUse">
      <g id="mask0_3_77" data-name="mask0 3 77">
        <path class="cls-5" d="M376.47,0H0v379h376.47V0Z"/>
      </g>
    </mask>
  </defs>
  <g id="_1" data-name=" 1">
    <g class="cls-1">
      <g class="cls-8">
        <g>
          <path class="cls-4" d="M275.28,219.68c0,3.46,1.03,6.84,2.94,9.71,1.92,2.88,4.65,5.12,7.84,6.44,3.19,1.32,6.7,1.67,10.09.99,3.39-.67,6.5-2.34,8.95-4.78,2.44-2.44,4.11-5.56,4.78-8.95.67-3.39.33-6.9-.99-10.1-1.32-3.2-3.56-5.93-6.43-7.85-2.87-1.92-6.25-2.95-9.71-2.95-2.29,0-4.57.45-6.69,1.33-2.12.88-4.04,2.17-5.67,3.79-1.62,1.62-2.91,3.55-3.79,5.67-.88,2.12-1.33,4.39-1.33,6.69Z"/>
          <path class="cls-4" d="M323.73,232.43c0,2.47.73,4.89,2.11,6.94,1.37,2.05,3.32,3.65,5.6,4.6,2.28.95,4.79,1.19,7.21.71,2.42-.48,4.65-1.67,6.39-3.42,1.75-1.75,2.93-3.97,3.42-6.4.48-2.42.23-4.93-.71-7.22-.94-2.28-2.54-4.23-4.6-5.61-2.05-1.37-4.47-2.11-6.94-2.11-3.31,0-6.49,1.32-8.83,3.66-2.34,2.34-3.66,5.52-3.66,8.84Z"/>
          <path class="cls-4" d="M337.96,268.6c-.36,1.97-.13,4,.66,5.84.79,1.84,2.11,3.4,3.79,4.49,1.68,1.09,3.64,1.65,5.65,1.62,2-.03,3.95-.65,5.59-1.79,1.65-1.14,2.92-2.74,3.66-4.6.74-1.86.91-3.9.49-5.86-.42-1.96-1.41-3.75-2.84-5.14-1.44-1.39-3.25-2.33-5.22-2.69-1.31-.24-2.65-.22-3.95.06-1.3.28-2.53.81-3.62,1.56-1.09.76-2.03,1.72-2.75,2.83-.72,1.12-1.22,2.36-1.46,3.67Z"/>
          <path class="cls-4" d="M154.87,79.06c-2.31-2.57-5.33-4.4-8.68-5.25s-6.88-.69-10.13.46c-3.26,1.15-6.1,3.25-8.17,6.02-2.07,2.77-3.27,6.09-3.45,9.54-.18,3.45.67,6.88,2.43,9.85,1.77,2.97,4.37,5.35,7.49,6.84,3.12,1.49,6.61,2.02,10.03,1.52,3.42-.5,6.61-2,9.18-4.31,3.44-3.1,5.51-7.45,5.75-12.07.24-4.63-1.36-9.16-4.46-12.61Z"/>
          <path class="cls-4" d="M88.12,97.65c2.64,1.67,5.72,2.51,8.84,2.43,3.12-.08,6.15-1.09,8.7-2.89,2.55-1.8,4.51-4.32,5.63-7.24,1.12-2.92,1.35-6.1.66-9.15s-2.27-5.82-4.53-7.97c-2.26-2.15-5.12-3.58-8.19-4.11-3.08-.53-6.24-.13-9.1,1.14-2.85,1.27-5.27,3.36-6.93,6-2.23,3.54-2.97,7.83-2.04,11.91s3.43,7.64,6.97,9.87Z"/>
          <path class="cls-4" d="M51.74,119.21c2.39.64,4.91.56,7.25-.24,2.34-.79,4.39-2.27,5.89-4.23,1.5-1.96,2.39-4.32,2.55-6.79.16-2.47-.41-4.93-1.65-7.07-1.23-2.14-3.08-3.87-5.29-4.96-2.22-1.09-4.7-1.5-7.15-1.18-2.45.32-4.75,1.37-6.6,3-1.86,1.63-3.19,3.77-3.83,6.16-.42,1.58-.53,3.24-.32,4.86.21,1.63.75,3.2,1.57,4.62.82,1.42,1.91,2.67,3.21,3.67,1.3,1,2.79,1.73,4.37,2.16Z"/>
          <path class="cls-4" d="M20.15,159.88c-.26-1.99-1.11-3.85-2.43-5.35-1.32-1.5-3.06-2.58-4.99-3.1-1.93-.51-3.98-.44-5.87.2-1.89.65-3.55,1.84-4.77,3.43-1.21,1.59-1.93,3.51-2.06,5.5-.13,2,.34,3.99,1.34,5.72,1,1.73,2.5,3.13,4.29,4.01,1.8.88,3.81,1.21,5.8.95,1.32-.18,2.59-.61,3.74-1.27,1.15-.67,2.16-1.55,2.96-2.61s1.4-2.26,1.74-3.55c.34-1.29.43-2.62.25-3.94Z"/>
          <path class="cls-4" d="M30.46,124.02c.18-1.99-.23-4-1.18-5.76-.95-1.76-2.41-3.2-4.18-4.13-1.77-.93-3.78-1.32-5.77-1.11-1.99.21-3.88,1-5.42,2.28-1.54,1.28-2.66,2.99-3.23,4.91-.57,1.92-.56,3.97.03,5.88.59,1.91,1.74,3.61,3.29,4.87,1.55,1.26,3.45,2.03,5.44,2.22,2.67.25,5.33-.58,7.4-2.29,2.06-1.72,3.36-4.18,3.61-6.86Z"/>
          <path class="cls-6" d="M200.49,280.08c-3.08,1.57-5.62,4.02-7.3,7.03-1.68,3.02-2.44,6.46-2.17,9.91.27,3.44,1.56,6.73,3.7,9.44,2.14,2.71,5.03,4.73,8.32,5.8,3.28,1.07,6.81,1.14,10.13.2,3.32-.94,6.29-2.84,8.54-5.47,2.24-2.63,3.66-5.86,4.07-9.29.41-3.43-.21-6.9-1.78-9.98-1.04-2.05-2.47-3.87-4.22-5.36s-3.77-2.62-5.95-3.33c-2.18-.71-4.48-.98-6.77-.8-2.29.18-4.52.81-6.56,1.86Z"/>
          <path class="cls-6" d="M240.27,304c-2.29,2.12-3.91,4.87-4.64,7.91-.73,3.04-.54,6.22.54,9.15,1.08,2.93,3,5.48,5.53,7.31,2.53,1.84,5.54,2.88,8.66,3.01,3.12.12,6.21-.68,8.87-2.31,2.66-1.63,4.78-4.02,6.09-6.85,1.31-2.84,1.75-6,1.26-9.08-.49-3.09-1.88-5.96-4-8.25-1.41-1.52-3.1-2.76-4.98-3.62-1.88-.87-3.92-1.36-5.99-1.44-2.07-.08-4.14.24-6.08.96-1.95.72-3.73,1.81-5.25,3.22Z"/>
          <path class="cls-6" d="M283.41,294.75c-1.24,2.14-1.81,4.6-1.65,7.06.16,2.47,1.05,4.83,2.55,6.79,1.5,1.96,3.55,3.43,5.89,4.23,2.34.79,4.86.88,7.24.24,2.39-.64,4.53-1.97,6.16-3.83,1.63-1.86,2.67-4.16,2.99-6.61.32-2.45-.09-4.94-1.18-7.16-1.09-2.22-2.82-4.06-4.96-5.3-1.42-.82-2.99-1.35-4.61-1.57-1.63-.21-3.28-.11-4.86.32-1.58.42-3.07,1.16-4.37,2.16-1.3,1-2.39,2.24-3.21,3.67Z"/>
          <path class="cls-6" d="M243.2,99.09c-1.41,3.16-1.85,6.66-1.26,10.07.58,3.41,2.17,6.57,4.54,9.07,2.38,2.51,5.45,4.25,8.82,5.02,3.37.76,6.89.51,10.12-.73,3.23-1.24,6.01-3.41,8.01-6.23,1.99-2.82,3.11-6.18,3.2-9.63.09-3.46-.85-6.86-2.69-9.79-1.84-2.92-4.51-5.23-7.67-6.64-2.09-.93-4.35-1.45-6.65-1.51-2.29-.06-4.58.33-6.72,1.15-2.14.82-4.1,2.06-5.76,3.64-1.66,1.58-3,3.47-3.93,5.57Z"/>
          <path class="cls-6" d="M295.7,104.5c-2.06,2.35-3.37,5.26-3.78,8.35-.41,3.1.11,6.24,1.49,9.05,1.38,2.8,3.56,5.13,6.27,6.69,2.7,1.56,5.81,2.29,8.92,2.08,3.11-.21,6.1-1.33,8.58-3.23,2.48-1.9,4.33-4.5,5.34-7.45,1-2.96,1.11-6.15.3-9.16-.81-3.02-2.49-5.73-4.84-7.79-3.15-2.76-7.26-4.16-11.44-3.88-4.18.27-8.08,2.2-10.84,5.35Z"/>
          <path class="cls-6" d="M325.74,150.99c1.34,2.07,3.27,3.7,5.54,4.68,2.27.98,4.78,1.26,7.21.81,2.43-.45,4.67-1.61,6.44-3.33,1.77-1.72,2.99-3.94,3.5-6.35.52-2.42.3-4.93-.61-7.23-.92-2.3-2.49-4.27-4.53-5.67-2.04-1.4-4.44-2.17-6.91-2.2-2.47-.03-4.9.67-6.97,2.02-1.38.89-2.56,2.05-3.49,3.4-.93,1.35-1.58,2.87-1.92,4.48-.34,1.6-.36,3.26-.06,4.88.3,1.61.91,3.15,1.81,4.53Z"/>
          <path class="cls-6" d="M357.02,173.86c.77,1.85,2.07,3.42,3.74,4.53,1.67,1.11,3.62,1.7,5.62,1.69s3.95-.6,5.61-1.72c1.66-1.11,2.96-2.7,3.72-4.55.76-1.85.96-3.88.57-5.85-.39-1.96-1.36-3.76-2.77-5.18-1.42-1.41-3.22-2.38-5.18-2.76-1.96-.39-3.99-.19-5.84.58-2.48,1.03-4.45,3.01-5.47,5.49-1.02,2.48-1.02,5.27.01,7.75Z"/>
          <path class="cls-6" d="M96.69,186.27c-1.07-3.29-3.09-6.18-5.8-8.32-2.71-2.14-6-3.42-9.44-3.7-3.44-.27-6.89.49-9.9,2.17-3.01,1.69-5.46,4.23-7.02,7.31-1.57,3.08-2.19,6.55-1.78,9.98.41,3.43,1.82,6.66,4.06,9.29,2.24,2.63,5.21,4.53,8.54,5.47,3.32.94,6.85.87,10.14-.2,2.18-.71,4.2-1.84,5.95-3.33,1.74-1.49,3.18-3.31,4.22-5.35,1.04-2.04,1.67-4.28,1.85-6.56.18-2.29-.09-4.59-.8-6.77Z"/>
          <path class="cls-6" d="M68.2,222.59c-1.73-2.6-4.2-4.62-7.08-5.82-2.88-1.2-6.06-1.51-9.12-.9-3.06.61-5.88,2.11-8.08,4.32-2.21,2.21-3.71,5.02-4.32,8.09-.61,3.06-.3,6.24.89,9.13,1.19,2.89,3.22,5.35,5.81,7.09,2.6,1.74,5.65,2.67,8.77,2.67,3.12,0,6.18-.92,8.77-2.66,3.48-2.33,5.9-5.94,6.72-10.05.82-4.11-.03-8.37-2.35-11.86Z"/>
          <path class="cls-6" d="M69.1,284.17c1.55-1.92,2.5-4.26,2.73-6.72.23-2.46-.28-4.93-1.46-7.11-1.18-2.17-2.97-3.95-5.16-5.1-2.19-1.15-4.66-1.63-7.12-1.37-2.46.26-4.78,1.24-6.68,2.82-1.9,1.58-3.29,3.69-3.99,6.06-.7,2.37-.68,4.89.05,7.25.73,2.36,2.15,4.45,4.07,6.01,1.27,1.03,2.74,1.8,4.31,2.27,1.57.47,3.22.62,4.85.45,1.63-.17,3.21-.66,4.65-1.45,1.44-.78,2.71-1.84,3.75-3.12"/>
          <path class="cls-6" d="M99.74,342.88c.57-1.92.55-3.96-.05-5.88-.6-1.91-1.75-3.6-3.3-4.86-1.56-1.26-3.45-2.03-5.44-2.21-1.99-.18-3.99.24-5.75,1.19-1.76.96-3.19,2.42-4.12,4.19-.93,1.77-1.31,3.78-1.1,5.77.21,1.99,1.01,3.87,2.29,5.41,1.28,1.54,2.99,2.66,4.91,3.23,2.57.76,5.34.46,7.7-.82,2.36-1.29,4.11-3.45,4.87-6.03Z"/>
          <path class="cls-6" d="M67.3,320.16c.98-1.75,1.42-3.74,1.26-5.74-.15-2-.9-3.9-2.14-5.47s-2.91-2.74-4.82-3.36c-1.9-.62-3.95-.66-5.87-.12-1.93.54-3.65,1.64-4.95,3.16-1.3,1.52-2.12,3.39-2.36,5.38-.24,1.99.12,4,1.03,5.79.91,1.79,2.32,3.26,4.07,4.24,2.34,1.31,5.11,1.64,7.69.91,2.58-.73,4.77-2.45,6.09-4.79Z"/>
          <path class="cls-6" d="M232.07,60.11c-.45,3.09.03,6.25,1.37,9.07,1.34,2.82,3.49,5.18,6.17,6.78,2.68,1.6,5.78,2.36,8.9,2.2,3.12-.16,6.12-1.25,8.62-3.11,2.5-1.87,4.4-4.44,5.44-7.38,1.04-2.94,1.19-6.13.42-9.16-.77-3.03-2.41-5.76-4.73-7.85-2.32-2.09-5.21-3.45-8.3-3.9-4.14-.6-8.36.47-11.71,2.98-3.35,2.51-5.58,6.24-6.18,10.39"/>
          <path class="cls-6" d="M219.96,32.33c-.39-2.44-1.49-4.71-3.17-6.53s-3.85-3.09-6.26-3.67c-2.4-.58-4.92-.43-7.24.43-2.32.86-4.33,2.38-5.78,4.38-1.45,2-2.28,4.39-2.38,6.85-.1,2.47.54,4.91,1.83,7.02,1.29,2.11,3.18,3.78,5.42,4.82,2.24,1.03,4.74,1.38,7.18.99,1.62-.26,3.17-.83,4.57-1.69,1.4-.86,2.62-1.98,3.58-3.31.96-1.33,1.66-2.83,2.04-4.43.38-1.6.45-3.25.19-4.87Z"/>
          <path class="cls-6" d="M149.48,10.15c-1.05-1.71-2.58-3.06-4.4-3.9-1.82-.84-3.84-1.11-5.82-.8-1.98.32-3.81,1.21-5.28,2.57-1.47,1.36-2.5,3.13-2.96,5.07-.46,1.95-.34,3.99.36,5.87.7,1.88,1.93,3.51,3.55,4.68,1.62,1.17,3.55,1.84,5.55,1.92,2,.08,3.98-.44,5.68-1.49,1.13-.7,2.11-1.61,2.89-2.68.78-1.08,1.34-2.3,1.65-3.59.31-1.29.36-2.63.15-3.95-.21-1.31-.68-2.57-1.37-3.7Z"/>
          <path class="cls-6" d="M177.04.53c-1.9.64-3.56,1.83-4.78,3.42-1.22,1.59-1.94,3.5-2.07,5.5-.13,2,.33,3.99,1.33,5.73,1,1.73,2.49,3.13,4.29,4.02,1.8.89,3.81,1.22,5.8.96,1.98-.26,3.85-1.11,5.35-2.43,1.51-1.32,2.58-3.06,3.1-4.99s.45-3.98-.19-5.88c-.43-1.26-1.1-2.42-1.97-3.42-.88-1-1.94-1.82-3.13-2.41-1.19-.59-2.49-.94-3.81-1.02-1.33-.09-2.65.09-3.91.52Z"/>
          <path class="cls-3" d="M129.71,287.38c-.36,3.44.31,6.9,1.92,9.96,1.61,3.06,4.09,5.57,7.12,7.22,3.04,1.65,6.49,2.36,9.93,2.04,3.44-.32,6.71-1.65,9.39-3.82,2.68-2.17,4.66-5.1,5.69-8.4,1.02-3.3,1.04-6.83.06-10.14s-2.92-6.26-5.58-8.47c-2.66-2.21-5.91-3.58-9.34-3.94-2.28-.24-4.59-.03-6.79.63-2.2.65-4.25,1.73-6.03,3.18-1.78,1.44-3.26,3.23-4.35,5.24-1.09,2.02-1.78,4.23-2.02,6.51Z"/>
          <path class="cls-3" d="M175.16,344.66c3.08-.53,5.93-1.96,8.2-4.11,2.27-2.15,3.85-4.92,4.54-7.97.69-3.05.46-6.23-.66-9.15-1.12-2.92-3.08-5.44-5.63-7.24-2.55-1.8-5.58-2.81-8.7-2.89-3.12-.08-6.2.76-8.84,2.43-2.64,1.67-4.73,4.08-6,6.94-1.27,2.85-1.67,6.02-1.14,9.1.35,2.04,1.1,4,2.21,5.75,1.11,1.75,2.55,3.27,4.24,4.47,1.69,1.2,3.6,2.05,5.63,2.51,2.02.46,4.11.51,6.16.16"/>
          <path class="cls-3" d="M226.77,335.39c-1.12-2.2-2.87-4.02-5.03-5.23-2.15-1.21-4.62-1.75-7.08-1.55-2.46.19-4.81,1.11-6.75,2.64-1.94,1.53-3.38,3.6-4.15,5.95s-.81,4.87-.14,7.25c.67,2.38,2.03,4.5,3.91,6.11s4.19,2.62,6.64,2.91c2.45.29,4.94-.15,7.14-1.27,2.95-1.51,5.18-4.12,6.21-7.27,1.02-3.15.76-6.58-.75-9.53Z"/>
          <path class="cls-3" d="M278.08,333.14c-1.3,1.53-2.11,3.4-2.35,5.39-.23,1.99.13,4,1.04,5.79.91,1.78,2.33,3.26,4.08,4.23,1.75.97,3.74,1.41,5.74,1.25,1.99-.16,3.9-.91,5.47-2.15,1.57-1.24,2.74-2.92,3.35-4.83.61-1.9.65-3.95.11-5.88-.54-1.93-1.65-3.65-3.17-4.95-2.04-1.74-4.69-2.6-7.37-2.38-2.67.21-5.15,1.48-6.9,3.52Z"/>
          <path class="cls-3" d="M243.33,350.42c-1.6,1.2-2.82,2.84-3.49,4.73-.67,1.89-.76,3.93-.27,5.87.49,1.94,1.55,3.69,3.03,5.03,1.49,1.34,3.34,2.21,5.32,2.5,1.98.29,4-.02,5.81-.88,1.81-.86,3.32-2.24,4.34-3.96s1.52-3.71,1.41-5.71c-.1-2-.8-3.92-1.99-5.53-.79-1.07-1.79-1.96-2.93-2.64-1.14-.68-2.41-1.13-3.72-1.32-1.32-.19-2.66-.12-3.94.2-1.29.33-2.5.9-3.56,1.7Z"/>
          <path class="cls-3" d="M88.15,263.95c2.68,2.17,5.95,3.5,9.39,3.82,3.44.32,6.89-.4,9.93-2.04,3.03-1.65,5.51-4.16,7.12-7.22,1.61-3.06,2.27-6.52,1.91-9.96-.36-3.44-1.73-6.69-3.94-9.35-2.21-2.66-5.15-4.6-8.46-5.58-3.31-.98-6.84-.96-10.14.06-3.3,1.02-6.22,3-8.39,5.68-1.45,1.78-2.52,3.83-3.18,6.04-.65,2.2-.86,4.51-.62,6.79.24,2.28.93,4.5,2.02,6.51s2.58,3.8,4.36,5.24Z"/>
          <path class="cls-3" d="M93.08,312.14c2.87,1.23,6.04,1.59,9.11,1.02,3.07-.57,5.9-2.04,8.14-4.22s3.78-4.97,4.43-8.03c.65-3.06.38-6.24-.78-9.14-1.16-2.9-3.15-5.4-5.72-7.17-2.57-1.77-5.61-2.74-8.74-2.78-3.12-.04-6.19.84-8.81,2.54-2.62,1.7-4.68,4.14-5.91,7.01-1.65,3.85-1.71,8.2-.16,12.09,1.55,3.89,4.58,7.01,8.43,8.66Z"/>
          <path class="cls-3" d="M129.25,319.41c-2.46-.26-4.93.22-7.12,1.37-2.18,1.15-3.98,2.92-5.16,5.1-1.18,2.17-1.69,4.64-1.46,7.11.22,2.46,1.17,4.8,2.73,6.72,1.55,1.92,3.64,3.34,6,4.07,2.36.73,4.88.75,7.25.05,2.37-.7,4.48-2.09,6.06-3.99,1.58-1.9,2.56-4.23,2.82-6.68.35-3.3-.63-6.6-2.71-9.17-2.08-2.58-5.11-4.22-8.4-4.57Z"/>
          <path class="cls-3" d="M185.06,359.17c-1.92.57-3.62,1.7-4.9,3.24-1.28,1.54-2.07,3.43-2.28,5.42-.21,1.99.18,4,1.12,5.77.93,1.77,2.37,3.22,4.13,4.18,1.76.95,3.76,1.36,5.76,1.18,1.99-.19,3.88-.96,5.44-2.22,1.55-1.26,2.7-2.96,3.29-4.87.59-1.91.6-3.96.03-5.88-.77-2.57-2.52-4.74-4.88-6.01-2.36-1.28-5.13-1.57-7.7-.8Z"/>
          <path class="cls-3" d="M157.61,364.5c-.13-2-.85-3.91-2.07-5.5-1.22-1.59-2.88-2.78-4.77-3.42-1.89-.64-3.94-.71-5.87-.19-1.93.52-3.67,1.6-4.99,3.1-1.32,1.5-2.16,3.37-2.43,5.35-.26,1.98.07,4,.95,5.8s2.28,3.29,4.01,4.29c1.73,1,3.72,1.47,5.72,1.34,2.68-.18,5.18-1.41,6.95-3.43,1.77-2.02,2.67-4.66,2.5-7.34"/>
          <path class="cls-3" d="M276.77,65.1c-1,2.26-1.32,4.76-.9,7.2.42,2.44,1.55,4.69,3.25,6.48,1.7,1.79,3.89,3.04,6.3,3.58s4.92.36,7.23-.52c2.31-.89,4.3-2.44,5.72-4.45s2.22-4.41,2.29-6.88c.06-2.47-.61-4.9-1.92-6.99-1.32-2.09-3.23-3.74-5.48-4.75-1.5-.67-3.11-1.03-4.75-1.08-1.64-.04-3.27.24-4.8.83-1.53.59-2.93,1.47-4.12,2.6-1.19,1.13-2.15,2.48-2.81,3.98Z"/>
          <path class="cls-3" d="M232.8,17.71c-.05,2,.49,3.97,1.57,5.66,1.07,1.69,2.62,3.03,4.45,3.84,1.83.81,3.86,1.06,5.83.72s3.8-1.26,5.25-2.64c1.45-1.38,2.46-3.16,2.9-5.11.44-1.95.29-3.99-.43-5.86-.72-1.87-1.98-3.48-3.61-4.63-1.64-1.15-3.58-1.79-5.58-1.84-1.33-.03-2.65.2-3.89.67-1.24.48-2.37,1.2-3.33,2.11-.96.92-1.73,2.01-2.27,3.23-.54,1.22-.83,2.53-.86,3.85Z"/>
          <path class="cls-3" d="M318.78,69.96c-1.13,1.65-1.74,3.6-1.76,5.6-.02,2,.55,3.96,1.64,5.64,1.09,1.68,2.66,2.99,4.5,3.78,1.84.79,3.87,1.01,5.84.64,1.97-.37,3.78-1.31,5.21-2.71,1.43-1.4,2.41-3.19,2.83-5.15.41-1.96.24-4-.51-5.85-.74-1.86-2.02-3.45-3.67-4.58-1.1-.75-2.33-1.28-3.63-1.55-1.3-.27-2.64-.29-3.95-.04-1.31.24-2.55.74-3.67,1.47-1.11.73-2.07,1.67-2.82,2.76Z"/>
          <path class="cls-3" d="M269.41,32.82c-.49,1.94-.4,3.98.27,5.87.67,1.89,1.88,3.53,3.48,4.73,1.6,1.2,3.52,1.89,5.52,2,2,.11,3.98-.38,5.7-1.41,1.72-1.02,3.1-2.53,3.96-4.34.86-1.81,1.17-3.83.88-5.81-.29-1.98-1.15-3.83-2.49-5.32-1.34-1.49-3.09-2.55-5.02-3.04-2.6-.66-5.36-.26-7.67,1.11-2.31,1.37-3.97,3.61-4.64,6.21Z"/>
          <path class="cls-3" d="M341.05,117.22c1.36,1.47,3.12,2.5,5.07,2.97,1.95.47,3.99.35,5.86-.34,1.88-.69,3.51-1.93,4.68-3.54,1.18-1.62,1.85-3.55,1.93-5.55.08-2-.43-3.98-1.48-5.69-1.04-1.71-2.57-3.07-4.39-3.91-1.82-.84-3.84-1.12-5.82-.81-1.98.31-3.82,1.2-5.29,2.56-1.97,1.82-3.14,4.35-3.25,7.04-.11,2.68.85,5.3,2.67,7.27Z"/>
          <path class="cls-7" d="M100.56,115.16c-3.34-.9-6.86-.78-10.14.33s-6.14,3.17-8.24,5.91c-2.1,2.74-3.35,6.05-3.58,9.5-.23,3.45.57,6.89,2.3,9.88,1.73,2.99,4.3,5.41,7.4,6.94,3.1,1.53,6.58,2.11,10.01,1.66,3.43-.45,6.64-1.9,9.24-4.18,2.6-2.28,4.46-5.28,5.36-8.61,1.2-4.48.57-9.25-1.74-13.27-2.32-4.02-6.13-6.95-10.61-8.15Z"/>
          <path class="cls-7" d="M54.24,167.47c3.12-.04,6.16-1.01,8.74-2.77,2.57-1.77,4.57-4.26,5.72-7.17,1.16-2.9,1.43-6.08.78-9.14-.65-3.06-2.19-5.85-4.43-8.03-2.24-2.18-5.07-3.65-8.14-4.22-3.07-.57-6.24-.21-9.11,1.02-2.87,1.23-5.31,3.29-7.01,5.91-1.7,2.62-2.59,5.69-2.54,8.81.06,4.19,1.77,8.18,4.77,11.1,3,2.92,7.03,4.54,11.22,4.48Z"/>
          <path class="cls-7" d="M44.03,188.52c-.76-2.35-2.21-4.42-4.15-5.95-1.94-1.53-4.29-2.45-6.75-2.64-2.46-.19-4.93.35-7.08,1.55-2.15,1.21-3.9,3.03-5.03,5.23-1.12,2.2-1.56,4.69-1.27,7.14.29,2.45,1.3,4.77,2.9,6.65,1.6,1.88,3.73,3.24,6.11,3.91,2.38.67,4.9.62,7.25-.14,3.15-1.03,5.76-3.26,7.27-6.21,1.5-2.95,1.77-6.38.75-9.53Z"/>
          <path class="cls-7" d="M31.29,255.87c-1.3-1.52-3.03-2.62-4.95-3.16-1.93-.54-3.97-.5-5.87.13-1.9.62-3.58,1.79-4.81,3.37-1.24,1.57-1.98,3.48-2.13,5.48-.15,2,.29,3.99,1.27,5.74.98,1.74,2.46,3.16,4.24,4.07s3.8,1.26,5.79,1.02c1.99-.24,3.86-1.06,5.38-2.37,1.01-.87,1.84-1.92,2.44-3.11.6-1.19.96-2.48,1.07-3.8.1-1.33-.06-2.66-.47-3.92-.41-1.26-1.07-2.43-1.94-3.44Z"/>
          <path class="cls-7" d="M19.95,220.09c-.93-1.77-2.37-3.23-4.12-4.19s-3.76-1.37-5.75-1.19c-1.99.18-3.89.95-5.44,2.21-1.56,1.26-2.7,2.95-3.3,4.86-.6,1.91-.61,3.96-.04,5.88.57,1.92,1.69,3.63,3.23,4.91,1.54,1.28,3.42,2.08,5.41,2.29,1.99.21,4-.18,5.77-1.11,2.37-1.25,4.15-3.39,4.95-5.95.8-2.56.54-5.34-.7-7.71Z"/>
          <path class="cls-7" d="M220.06,78.36c-.54-3.42-2.08-6.59-4.42-9.13-2.35-2.54-5.39-4.33-8.75-5.13-3.36-.81-6.88-.6-10.13.59-3.24,1.2-6.06,3.33-8.09,6.12-2.03,2.8-3.19,6.13-3.33,9.59-.14,3.45.75,6.87,2.56,9.82,1.8,2.95,4.44,5.29,7.58,6.74,3.14,1.45,6.63,1.93,10.05,1.39,2.27-.36,4.44-1.16,6.4-2.36,1.96-1.2,3.66-2.77,5.01-4.63,1.35-1.86,2.32-3.96,2.86-6.19.54-2.23.63-4.55.27-6.82Z"/>
          <path class="cls-7" d="M183.21,44.32c-1.31-2.84-3.43-5.22-6.09-6.85-2.66-1.63-5.75-2.44-8.87-2.31-3.12.12-6.13,1.17-8.66,3.01-2.53,1.84-4.45,4.38-5.53,7.31-1.08,2.93-1.27,6.12-.54,9.15.73,3.04,2.34,5.79,4.63,7.91,2.29,2.12,5.16,3.51,8.25,4,3.08.49,6.24.05,9.08-1.26,1.88-.87,3.58-2.1,4.98-3.62,1.41-1.52,2.5-3.31,3.22-5.26.72-1.95,1.04-4.02.96-6.09-.08-2.07-.57-4.11-1.44-5.99Z"/>
          <path class="cls-7" d="M128.87,57.38c1.83-1.65,3.14-3.82,3.74-6.21s.49-4.92-.33-7.25c-.82-2.33-2.32-4.36-4.3-5.84-1.98-1.48-4.35-2.34-6.82-2.47-2.47-.13-4.91.47-7.04,1.74-2.12,1.26-3.82,3.13-4.89,5.36-1.06,2.23-1.44,4.73-1.09,7.17.35,2.45,1.42,4.73,3.07,6.57,1.1,1.22,2.43,2.21,3.91,2.92,1.48.71,3.09,1.12,4.73,1.2,1.64.09,3.28-.15,4.83-.7s2.97-1.4,4.19-2.49Z"/>
          <path class="cls-7" d="M63.05,73.31c.86-1.81,1.16-3.83.87-5.81-.29-1.98-1.16-3.83-2.5-5.32-1.34-1.49-3.09-2.54-5.03-3.03-1.94-.49-3.98-.39-5.87.28-1.89.67-3.53,1.89-4.72,3.49-1.19,1.61-1.89,3.53-1.99,5.53-.1,2,.39,3.98,1.42,5.7,1.03,1.72,2.54,3.1,4.34,3.95,1.2.57,2.5.9,3.83.97s2.66-.13,3.91-.57c1.25-.45,2.4-1.14,3.39-2.03.99-.89,1.79-1.97,2.36-3.17Z"/>
          <path class="cls-7" d="M91.56,49.18c1.24-1.57,1.98-3.48,2.14-5.47.16-2-.28-3.99-1.26-5.74-.98-1.75-2.45-3.17-4.23-4.08-1.78-.91-3.8-1.27-5.78-1.03-1.99.23-3.86,1.05-5.38,2.35-1.52,1.3-2.62,3.02-3.17,4.95-.54,1.93-.5,3.97.11,5.88.62,1.9,1.79,3.58,3.36,4.82,1.04.82,2.24,1.43,3.52,1.79,1.28.36,2.62.47,3.93.31,1.32-.16,2.6-.57,3.75-1.22,1.16-.65,2.18-1.52,3-2.56Z"/>
          <path class="cls-7" d="M283.24,143.3c-2.9,1.88-5.17,4.58-6.53,7.76-1.36,3.18-1.75,6.68-1.12,10.08.63,3.4,2.25,6.53,4.66,9.01,2.41,2.47,5.5,4.18,8.88,4.9,3.38.72,6.89.42,10.1-.86,3.21-1.28,5.96-3.48,7.92-6.33,1.96-2.85,3.03-6.21,3.07-9.66.05-3.46-.93-6.85-2.81-9.74-2.52-3.89-6.49-6.61-11.02-7.58-4.53-.96-9.26-.09-13.15,2.44Z"/>
          <path class="cls-7" d="M324.9,176.42c-3.01.85-5.69,2.57-7.72,4.94s-3.31,5.3-3.68,8.4c-.37,3.1.19,6.24,1.61,9.03,1.42,2.78,3.63,5.09,6.35,6.61,2.72,1.53,5.84,2.21,8.95,1.97,3.11-.24,6.08-1.41,8.54-3.34,2.45-1.93,4.28-4.55,5.24-7.52.96-2.97,1.03-6.16.18-9.17-.56-2-1.51-3.86-2.8-5.49-1.28-1.63-2.88-2.99-4.68-4-1.81-1.01-3.8-1.66-5.86-1.91-2.06-.24-4.15-.08-6.14.48Z"/>
          <path class="cls-7" d="M355.74,212.72c.34,1.97,1.26,3.8,2.63,5.25,1.38,1.45,3.15,2.46,5.1,2.9,1.95.44,3.99.29,5.86-.42,1.87-.72,3.48-1.97,4.64-3.61,1.16-1.64,1.8-3.58,1.85-5.58.05-2-.49-3.97-1.56-5.67-1.07-1.69-2.61-3.03-4.44-3.85-1.83-.81-3.86-1.07-5.83-.73-1.31.23-2.56.71-3.69,1.41-1.12.71-2.1,1.63-2.86,2.72-.77,1.09-1.31,2.31-1.61,3.61-.29,1.3-.33,2.64-.1,3.95Z"/>
          <path class="cls-7" d="M248.26,258.9c-1.73,2.99-2.53,6.43-2.3,9.88.23,3.45,1.47,6.76,3.57,9.5,2.1,2.74,4.97,4.8,8.24,5.91,3.27,1.11,6.8,1.23,10.14.33,3.34-.89,6.34-2.76,8.61-5.36s3.73-5.82,4.19-9.24c.45-3.43-.12-6.91-1.65-10.01-1.53-3.1-3.94-5.68-6.93-7.41-4.01-2.32-8.78-2.94-13.26-1.74-4.48,1.2-8.29,4.13-10.61,8.14Z"/>
          <path class="cls-7" d="M290.47,263.05c-.93,2.98-.95,6.18-.06,9.17.89,3,2.64,5.66,5.04,7.66,2.4,2,5.34,3.24,8.45,3.57,3.11.33,6.24-.28,9-1.73,2.76-1.46,5.03-3.7,6.52-6.45,1.49-2.75,2.13-5.87,1.85-8.98-.29-3.11-1.49-6.07-3.46-8.5-1.97-2.43-4.61-4.22-7.59-5.14-4-1.24-8.33-.84-12.03,1.11-3.71,1.95-6.48,5.3-7.73,9.3Z"/>
          <path class="cls-7" d="M316.08,300.84c-.79,1.84-1.02,3.87-.65,5.84.36,1.97,1.3,3.79,2.7,5.22,1.4,1.43,3.18,2.42,5.14,2.84,1.96.42,3.99.24,5.85-.5,1.86-.74,3.46-2.02,4.59-3.67,1.13-1.65,1.75-3.6,1.78-5.6.03-2-.54-3.97-1.63-5.65-1.09-1.68-2.65-3-4.49-3.79-1.22-.53-2.53-.81-3.86-.83-1.33-.02-2.65.23-3.88.72s-2.36,1.22-3.31,2.15c-.95.93-1.71,2.03-2.23,3.26Z"/>
        </g>
      </g>
    </g>
  </g>
</svg>