<svg width="1956" height="569" viewBox="0 0 1956 569" fill="none" xmlns="http://www.w3.org/2000/svg">
<g clip-path="url(#clip0_471_204)">
<path d="M413.941 329.788C413.941 334.973 415.483 340.044 418.36 344.357C421.236 348.671 425.355 352.044 430.142 354.017C434.928 355.99 440.221 356.518 445.329 355.508C450.415 354.499 455.109 351.998 458.791 348.327C462.473 344.656 464.958 339.975 465.971 334.882C466.984 329.788 466.454 324.511 464.475 319.716C462.496 314.921 459.113 310.814 454.81 307.946C450.484 305.055 445.398 303.518 440.221 303.518C436.769 303.518 433.363 304.206 430.165 305.514C426.966 306.844 424.09 308.772 421.65 311.204C419.211 313.636 417.278 316.527 415.966 319.716C414.655 322.905 413.964 326.324 413.964 329.765L413.941 329.788Z" fill="black"/>
<path d="M486.783 348.934C486.783 352.651 487.888 356.276 489.959 359.35C492.03 362.425 494.952 364.834 498.381 366.256C501.81 367.679 505.584 368.046 509.22 367.312C512.856 366.578 516.215 364.811 518.839 362.173C521.462 359.557 523.257 356.207 523.97 352.582C524.684 348.934 524.315 345.171 522.912 341.753C521.485 338.334 519.092 335.397 516.008 333.332C512.925 331.267 509.289 330.166 505.584 330.166C500.613 330.166 495.827 332.139 492.306 335.672C488.785 339.183 486.806 343.955 486.806 348.934H486.783Z" fill="black"/>
<path d="M508.196 403.24C507.643 406.2 507.989 409.251 509.185 412.005C510.382 414.758 512.361 417.098 514.892 418.75C517.423 420.379 520.369 421.228 523.383 421.182C526.398 421.136 529.32 420.196 531.806 418.498C534.291 416.8 536.201 414.391 537.306 411.592C538.41 408.793 538.663 405.741 538.042 402.804C537.421 399.867 535.925 397.183 533.762 395.072C531.599 392.984 528.883 391.562 525.915 391.034C523.959 390.667 521.934 390.713 519.978 391.126C518.022 391.539 516.181 392.342 514.524 393.466C512.89 394.59 511.486 396.036 510.382 397.711C509.3 399.386 508.564 401.267 508.196 403.217V403.24Z" fill="black"/>
<path d="M232.861 118.661C229.386 114.806 224.853 112.053 219.813 110.791C214.774 109.506 209.481 109.759 204.579 111.479C199.678 113.2 195.398 116.366 192.291 120.519C189.184 124.672 187.366 129.674 187.113 134.859C186.837 140.044 188.103 145.184 190.772 149.658C193.419 154.109 197.354 157.688 202.048 159.936C206.742 162.162 211.989 162.965 217.121 162.231C222.252 161.497 227.062 159.225 230.928 155.761C236.105 151.103 239.212 144.587 239.58 137.635C239.948 130.683 237.532 123.869 232.884 118.707L232.861 118.661Z" fill="black"/>
<path d="M132.519 146.592C136.5 149.093 141.125 150.377 145.82 150.24C150.514 150.125 155.071 148.611 158.89 145.903C162.733 143.196 165.679 139.41 167.359 135.028C169.039 130.646 169.384 125.874 168.348 121.285C167.313 116.719 164.943 112.543 161.537 109.308C158.131 106.073 153.851 103.939 149.203 103.136C144.577 102.333 139.814 102.93 135.534 104.857C131.253 106.761 127.617 109.905 125.109 113.874C121.749 119.197 120.645 125.621 122.026 131.77C123.406 137.896 127.18 143.242 132.519 146.592Z" fill="black"/>
<path d="M77.8147 178.954C81.4045 179.917 85.2015 179.78 88.7223 178.587C92.2431 177.394 95.3267 175.191 97.5818 172.231C99.837 169.294 101.172 165.738 101.425 162.044C101.678 158.35 100.803 154.656 98.9395 151.444C97.0755 148.232 94.3141 145.639 90.9774 144.01C87.6407 142.358 83.9128 141.762 80.2309 142.244C76.5491 142.726 73.0973 144.286 70.2899 146.741C67.5054 149.196 65.5034 152.408 64.5369 155.987C63.8926 158.373 63.7315 160.851 64.0537 163.283C64.3758 165.715 65.1812 168.078 66.4009 170.212C67.6205 172.346 69.2773 174.204 71.2333 175.719C73.1893 177.21 75.4215 178.311 77.8147 178.954Z" fill="black"/>
<path d="M30.295 239.999C29.9038 237.016 28.6152 234.217 26.6362 231.968C24.6571 229.72 22.0338 228.091 19.1343 227.311C16.2348 226.531 13.1513 226.645 10.2978 227.609C7.44434 228.573 4.95907 230.362 3.11813 232.771C1.3002 235.158 0.218649 238.026 0.0115433 241.031C-0.172551 244.037 0.517802 247.019 2.03658 249.612C3.55536 252.205 5.7875 254.316 8.50288 255.623C11.1953 256.954 14.2328 257.436 17.2243 257.046C19.2034 256.793 21.1133 256.128 22.8392 255.142C24.5651 254.132 26.0839 252.801 27.3035 251.218C28.5231 249.635 29.3976 247.822 29.9268 245.895C30.4331 243.968 30.5712 241.949 30.295 239.976V239.999Z" fill="black"/>
<path d="M45.8068 186.18C46.083 183.198 45.4616 180.169 44.0349 177.53C42.6082 174.892 40.4221 172.735 37.7527 171.336C35.0833 169.936 32.0688 169.362 29.0773 169.661C26.0857 169.959 23.2553 171.175 20.9311 173.079C18.6069 175.007 16.9271 177.553 16.0756 180.444C15.2242 183.335 15.2472 186.387 16.1216 189.278C17.0191 192.146 18.745 194.692 21.0692 196.597C23.4164 198.501 26.2468 199.648 29.2614 199.924C33.2884 200.291 37.2695 199.052 40.376 196.482C43.4826 193.912 45.4386 190.195 45.8068 186.18Z" fill="black"/>
<path d="M301.479 420.464C296.854 422.827 293.034 426.498 290.503 431.018C287.971 435.538 286.821 440.723 287.235 445.886C287.649 451.048 289.582 455.981 292.804 460.065C296.026 464.126 300.375 467.178 305.299 468.761C310.247 470.367 315.539 470.458 320.533 469.059C325.527 467.659 329.991 464.791 333.374 460.845C336.756 456.899 338.873 452.058 339.495 446.895C340.116 441.756 339.173 436.525 336.825 431.913C335.261 428.839 333.097 426.108 330.474 423.86C327.851 421.611 324.813 419.913 321.523 418.858C318.232 417.803 314.78 417.39 311.351 417.665C307.9 417.94 304.563 418.881 301.479 420.441V420.464Z" fill="black"/>
<path d="M361.316 456.392C357.864 459.581 355.448 463.711 354.343 468.276C353.239 472.842 353.538 477.614 355.149 482.02C356.782 486.425 359.659 490.234 363.456 493.01C367.253 495.763 371.786 497.346 376.48 497.53C381.175 497.713 385.823 496.497 389.804 494.065C393.808 491.61 396.984 488.031 398.963 483.763C400.919 479.496 401.586 474.747 400.85 470.112C400.114 465.477 398.019 461.164 394.844 457.722C392.727 455.428 390.172 453.592 387.342 452.285C384.512 450.977 381.451 450.243 378.344 450.128C375.238 450.013 372.131 450.495 369.186 451.573C366.263 452.652 363.571 454.304 361.293 456.414L361.316 456.392Z" fill="black"/>
<path d="M426.18 442.486C424.316 445.698 423.465 449.392 423.695 453.086C423.925 456.78 425.26 460.336 427.538 463.273C429.793 466.21 432.877 468.412 436.398 469.628C439.918 470.822 443.715 470.936 447.282 469.996C450.872 469.032 454.094 467.036 456.533 464.237C458.995 461.461 460.537 457.996 461.043 454.325C461.526 450.654 460.905 446.914 459.271 443.587C457.637 440.261 455.037 437.484 451.815 435.649C449.675 434.41 447.328 433.607 444.889 433.286C442.45 432.964 439.964 433.125 437.571 433.767C435.178 434.41 432.946 435.511 430.99 437.002C429.034 438.494 427.4 440.375 426.157 442.509L426.18 442.486Z" fill="black"/>
<path d="M365.696 148.754C363.579 153.504 362.911 158.758 363.809 163.874C364.683 168.991 367.053 173.74 370.643 177.503C374.21 181.266 378.835 183.881 383.898 185.029C388.961 186.176 394.253 185.786 399.109 183.927C403.964 182.069 408.152 178.811 411.144 174.566C414.135 170.322 415.815 165.297 415.953 160.112C416.091 154.926 414.688 149.81 411.903 145.428C409.119 141.045 405.115 137.558 400.374 135.47C397.222 134.071 393.839 133.29 390.387 133.199C386.936 133.107 383.507 133.703 380.285 134.942C377.064 136.181 374.118 138.04 371.61 140.403C369.101 142.766 367.099 145.611 365.696 148.754Z" fill="black"/>
<path d="M444.659 156.896C441.552 160.429 439.596 164.789 438.975 169.446C438.354 174.104 439.136 178.83 441.23 183.029C443.301 187.228 446.592 190.738 450.642 193.078C454.715 195.419 459.386 196.52 464.058 196.199C468.752 195.9 473.239 194.203 476.944 191.358C480.649 188.513 483.457 184.612 484.975 180.161C486.471 175.71 486.632 170.938 485.413 166.395C484.193 161.852 481.662 157.791 478.141 154.694C473.4 150.541 467.21 148.453 460.928 148.866C454.646 149.279 448.778 152.17 444.636 156.896H444.659Z" fill="black"/>
<path d="M489.817 226.686C491.842 229.807 494.741 232.239 498.147 233.707C501.553 235.176 505.327 235.589 508.986 234.923C512.644 234.258 516.004 232.514 518.674 229.921C521.343 227.329 523.161 224.002 523.943 220.377C524.726 216.752 524.404 212.966 523.023 209.524C521.642 206.083 519.272 203.123 516.211 201.012C513.151 198.902 509.538 197.754 505.81 197.708C502.105 197.663 498.446 198.718 495.34 200.737C493.269 202.068 491.474 203.811 490.093 205.831C488.689 207.85 487.723 210.144 487.194 212.553C486.687 214.962 486.641 217.44 487.101 219.872C487.562 222.304 488.482 224.599 489.817 226.663V226.686Z" fill="black"/>
<path d="M536.83 260.997C537.98 263.773 539.936 266.137 542.445 267.811C544.953 269.463 547.898 270.358 550.89 270.358C553.904 270.358 556.827 269.463 559.335 267.788C561.844 266.114 563.777 263.75 564.927 260.951C566.078 258.175 566.377 255.124 565.779 252.164C565.18 249.227 563.73 246.52 561.613 244.386C559.473 242.252 556.781 240.83 553.812 240.233C550.867 239.659 547.806 239.958 545.022 241.105C541.294 242.665 538.349 245.625 536.807 249.342C535.265 253.082 535.265 257.257 536.807 260.974L536.83 260.997Z" fill="black"/>
<path d="M145.402 279.636C143.791 274.703 140.754 270.366 136.681 267.154C132.608 263.942 127.66 262.015 122.482 261.602C117.305 261.189 112.127 262.336 107.594 264.86C103.061 267.407 99.3787 271.215 97.0315 275.827C94.6843 280.462 93.7408 285.67 94.3621 290.809C94.9604 295.949 97.1005 300.813 100.46 304.759C103.843 308.705 108.307 311.55 113.301 312.973C118.294 314.373 123.61 314.281 128.535 312.675C131.825 311.619 134.863 309.921 137.486 307.673C140.109 305.424 142.273 302.694 143.837 299.643C145.402 296.568 146.346 293.218 146.622 289.8C146.898 286.358 146.484 282.917 145.425 279.636H145.402Z" fill="black"/>
<path d="M102.553 334.148C99.9522 330.247 96.2473 327.196 91.8981 325.406C87.5719 323.616 82.7854 323.135 78.1831 324.052C73.5807 324.97 69.3466 327.219 66.0329 330.545C62.7192 333.849 60.441 338.094 59.5205 342.683C58.6001 347.271 59.0603 352.044 60.8552 356.38C62.6501 360.716 65.6877 364.41 69.5997 367.026C73.5117 369.641 78.091 371.018 82.7854 371.041C87.4798 371.041 92.0592 369.664 95.9712 367.049C101.195 363.561 104.831 358.124 106.073 351.952C107.293 345.78 106.027 339.379 102.53 334.148H102.553Z" fill="black"/>
<path d="M103.907 426.627C106.254 423.736 107.681 420.225 108.003 416.531C108.348 412.837 107.588 409.121 105.817 405.863C104.045 402.605 101.352 399.943 98.0616 398.222C94.7709 396.502 91.043 395.79 87.3611 396.18C83.6562 396.57 80.1815 398.039 77.328 400.425C74.4745 402.788 72.3805 405.954 71.3219 409.511C70.2634 413.067 70.2864 416.853 71.391 420.409C72.4955 423.942 74.6126 427.085 77.5121 429.426C79.4221 430.986 81.6312 432.133 84.0014 432.844C86.3716 433.533 88.8569 433.762 91.2961 433.51C93.7584 433.257 96.1286 432.523 98.2917 431.33C100.455 430.16 102.365 428.554 103.93 426.65" fill="black"/>
<path d="M149.984 514.767C150.836 511.876 150.813 508.824 149.915 505.933C149.018 503.065 147.292 500.519 144.945 498.637C142.598 496.756 139.744 495.609 136.753 495.333C133.761 495.058 130.747 495.677 128.1 497.123C125.454 498.568 123.314 500.748 121.91 503.41C120.506 506.071 119.931 509.1 120.253 512.082C120.575 515.065 121.772 517.887 123.705 520.204C125.638 522.522 128.192 524.197 131.092 525.045C134.958 526.17 139.123 525.734 142.667 523.806C146.21 521.879 148.834 518.621 149.984 514.767Z" fill="black"/>
<path d="M101.201 480.65C102.673 478.035 103.341 475.029 103.111 472.023C102.881 469.018 101.753 466.173 99.889 463.81C98.025 461.446 95.5168 459.703 92.6403 458.762C89.7868 457.844 86.7033 457.775 83.8038 458.578C80.9043 459.381 78.327 461.033 76.371 463.328C74.415 465.599 73.1723 468.421 72.8272 471.404C72.482 474.387 73.0113 477.415 74.3689 480.1C75.7266 482.784 77.8667 484.987 80.4901 486.455C84.0109 488.428 88.176 488.91 92.042 487.832C95.931 486.73 99.2217 484.161 101.201 480.65Z" fill="black"/>
<path d="M348.964 90.2183C348.296 94.8529 349.01 99.6023 351.035 103.824C353.06 108.068 356.281 111.602 360.331 113.988C364.358 116.397 369.03 117.544 373.701 117.292C378.396 117.039 382.906 115.41 386.657 112.611C390.431 109.812 393.261 105.958 394.826 101.53C396.391 97.1014 396.621 92.3291 395.47 87.7862C394.32 83.2434 391.835 79.1365 388.36 75.9932C384.862 72.8499 380.536 70.8079 375.887 70.1425C369.651 69.2477 363.323 70.8538 358.283 74.6165C353.244 78.3793 349.884 83.9776 348.987 90.2183" fill="black"/>
<path d="M330.75 48.4939C330.175 44.8229 328.518 41.4273 325.987 38.697C323.456 35.9667 320.188 34.0623 316.575 33.1905C312.962 32.3186 309.165 32.548 305.691 33.8329C302.216 35.1177 299.178 37.4121 296.992 40.4177C294.806 43.4234 293.563 47.0026 293.425 50.7195C293.287 54.4364 294.231 58.0844 296.187 61.2506C298.12 64.4169 300.973 66.9407 304.333 68.4779C307.693 70.0381 311.467 70.5429 315.125 69.9693C317.565 69.5792 319.889 68.7303 322.006 67.4455C324.1 66.1606 325.941 64.4628 327.391 62.4667C328.84 60.4706 329.876 58.2221 330.451 55.813C331.027 53.4268 331.119 50.926 330.727 48.4939H330.75Z" fill="black"/>
<path d="M224.76 15.2412C223.195 12.6715 220.894 10.6524 218.156 9.39051C215.417 8.12861 212.38 7.71562 209.411 8.19744C206.443 8.67926 203.681 10.01 201.472 12.052C199.263 14.094 197.721 16.7554 197.008 19.6693C196.317 22.5832 196.502 25.6576 197.537 28.4797C198.573 31.3018 200.437 33.7338 202.876 35.5005C205.315 37.2671 208.215 38.2537 211.229 38.3684C214.244 38.4832 217.212 37.7031 219.766 36.12C221.469 35.0645 222.942 33.7109 224.116 32.0819C225.289 30.4529 226.141 28.6403 226.601 26.6901C227.061 24.7399 227.13 22.7438 226.831 20.7706C226.509 18.7974 225.819 16.9161 224.76 15.2182V15.2412Z" fill="black"/>
<path d="M266.208 0.775655C263.355 1.73929 260.869 3.5289 259.028 5.91505C257.188 8.3012 256.106 11.1692 255.922 14.1748C255.715 17.1804 256.428 20.1631 257.924 22.7787C259.42 25.3943 261.675 27.4822 264.367 28.8129C267.06 30.1436 270.097 30.6484 273.089 30.2583C276.08 29.8683 278.865 28.6064 281.143 26.6103C283.398 24.6371 285.032 22.0215 285.814 19.1077C286.597 16.1938 286.481 13.1423 285.515 10.2744C284.871 8.39297 283.858 6.64925 282.546 5.13496C281.235 3.64362 279.624 2.40466 277.852 1.5328C276.057 0.660937 274.124 0.133231 272.122 -0.00443146C270.12 -0.142094 268.141 0.133231 266.231 0.775655H266.208Z" fill="black"/>
<path d="M195.04 431.422C194.487 436.584 195.5 441.793 197.916 446.381C200.332 450.97 204.06 454.733 208.617 457.211C213.173 459.689 218.374 460.744 223.551 460.285C228.729 459.803 233.63 457.807 237.68 454.549C241.708 451.291 244.699 446.886 246.218 441.93C247.76 436.974 247.783 431.674 246.31 426.696C244.837 421.717 241.915 417.289 237.911 413.985C233.907 410.658 229.028 408.616 223.873 408.065C220.445 407.698 216.97 408.019 213.679 409.006C210.365 409.993 207.282 411.599 204.613 413.778C201.943 415.935 199.711 418.619 198.054 421.648C196.42 424.676 195.385 428.003 195.017 431.422H195.04Z" fill="black"/>
<path d="M263.387 517.433C268.012 516.63 272.315 514.496 275.721 511.261C279.127 508.026 281.497 503.873 282.532 499.284C283.568 494.719 283.223 489.923 281.543 485.541C279.863 481.159 276.918 477.373 273.075 474.666C269.232 471.958 264.698 470.444 260.004 470.329C255.31 470.215 250.684 471.477 246.703 473.977C242.722 476.478 239.592 480.103 237.683 484.394C235.773 488.684 235.174 493.434 235.98 498.068C236.509 501.143 237.637 504.08 239.293 506.718C240.95 509.357 243.113 511.628 245.668 513.441C248.222 515.23 251.098 516.515 254.136 517.203C257.173 517.892 260.326 517.984 263.387 517.456" fill="black"/>
<path d="M340.995 503.527C339.315 500.223 336.669 497.493 333.447 495.68C330.202 493.868 326.498 493.065 322.793 493.34C319.088 493.638 315.567 495.015 312.644 497.309C309.722 499.604 307.559 502.724 306.408 506.234C305.258 509.768 305.189 513.553 306.201 517.133C307.214 520.712 309.262 523.901 312.069 526.31C314.9 528.719 318.374 530.233 322.056 530.669C325.738 531.105 329.466 530.44 332.78 528.765C337.221 526.517 340.581 522.57 342.123 517.844C343.664 513.117 343.25 507.955 340.995 503.527Z" fill="black"/>
<path d="M418.139 500.159C416.183 502.453 414.963 505.253 414.618 508.258C414.273 511.241 414.802 514.269 416.183 516.954C417.564 519.638 419.681 521.841 422.327 523.309C424.95 524.778 427.965 525.42 430.956 525.191C433.948 524.938 436.824 523.814 439.172 521.956C441.542 520.097 443.291 517.573 444.211 514.705C445.132 511.837 445.201 508.786 444.372 505.872C443.544 502.981 441.887 500.388 439.609 498.438C436.525 495.823 432.544 494.538 428.517 494.859C424.49 495.18 420.762 497.085 418.139 500.159Z" fill="black"/>
<path d="M365.907 526.07C363.491 527.86 361.673 530.338 360.661 533.183C359.648 536.028 359.51 539.08 360.246 541.993C360.983 544.907 362.571 547.546 364.803 549.542C367.035 551.561 369.819 552.869 372.788 553.282C375.756 553.718 378.817 553.259 381.532 551.974C384.248 550.689 386.526 548.624 388.068 546.032C389.609 543.462 390.346 540.479 390.185 537.474C390.024 534.468 388.988 531.577 387.193 529.168C385.997 527.562 384.501 526.208 382.775 525.199C381.049 524.166 379.162 523.501 377.183 523.203C375.204 522.927 373.179 523.019 371.246 523.501C369.313 523.983 367.495 524.854 365.884 526.048L365.907 526.07Z" fill="black"/>
<path d="M132.574 396.258C136.601 399.516 141.526 401.512 146.703 401.994C151.881 402.476 157.059 401.398 161.638 398.92C166.194 396.442 169.922 392.679 172.338 388.09C174.755 383.502 175.767 378.293 175.215 373.131C174.663 367.969 172.615 363.082 169.301 359.112C165.987 355.12 161.546 352.206 156.575 350.738C151.605 349.269 146.289 349.292 141.342 350.83C136.371 352.367 131.999 355.327 128.731 359.365C126.568 362.049 124.934 365.124 123.945 368.427C122.955 371.731 122.633 375.196 123.001 378.637C123.369 382.056 124.405 385.383 126.039 388.411C127.696 391.44 129.905 394.124 132.597 396.281L132.574 396.258Z" fill="black"/>
<path d="M139.986 468.624C144.289 470.483 149.076 471.011 153.678 470.162C158.303 469.313 162.561 467.11 165.92 463.829C169.28 460.548 171.604 456.35 172.571 451.761C173.537 447.172 173.146 442.4 171.397 438.04C169.648 433.681 166.657 429.941 162.791 427.28C158.925 424.618 154.345 423.173 149.651 423.104C144.957 423.035 140.354 424.366 136.419 426.936C132.484 429.482 129.378 433.153 127.537 437.467C125.051 443.249 124.959 449.788 127.307 455.615C129.631 461.466 134.187 466.147 139.986 468.624Z" fill="black"/>
<path d="M194.342 479.518C190.66 479.128 186.932 479.839 183.642 481.583C180.351 483.304 177.659 485.965 175.887 489.223C174.115 492.481 173.356 496.198 173.678 499.892C174.023 503.586 175.45 507.096 177.774 509.987C180.121 512.878 183.251 514.989 186.794 516.09C190.338 517.192 194.135 517.215 197.702 516.159C201.269 515.104 204.421 513.016 206.815 510.171C209.185 507.326 210.658 503.838 211.049 500.144C211.578 495.189 210.105 490.233 206.976 486.378C203.846 482.501 199.29 480.046 194.342 479.518Z" fill="black"/>
<path d="M278.276 539.219C275.399 540.068 272.822 541.766 270.912 544.083C269.002 546.401 267.805 549.223 267.483 552.229C267.184 555.211 267.759 558.24 269.163 560.901C270.567 563.563 272.73 565.742 275.376 567.165C278.023 568.587 281.037 569.207 284.029 568.932C287.02 568.656 289.874 567.486 292.198 565.605C294.522 563.7 296.248 561.154 297.145 558.286C298.043 555.418 298.043 552.343 297.191 549.452C296.041 545.598 293.394 542.34 289.851 540.435C286.307 538.508 282.142 538.095 278.276 539.242V539.219Z" fill="black"/>
<path d="M237.025 547.241C236.817 544.235 235.736 541.367 233.918 538.981C232.1 536.595 229.592 534.805 226.738 533.842C223.885 532.878 220.824 532.786 217.925 533.544C215.025 534.324 212.402 535.93 210.423 538.201C208.444 540.473 207.178 543.249 206.787 546.231C206.396 549.214 206.902 552.243 208.214 554.927C209.548 557.634 211.643 559.86 214.243 561.374C216.843 562.866 219.835 563.577 222.849 563.393C226.876 563.118 230.627 561.282 233.297 558.254C235.966 555.225 237.301 551.256 237.048 547.241" fill="black"/>
<path d="M416.19 97.7173C414.672 101.113 414.211 104.876 414.833 108.524C415.454 112.172 417.157 115.568 419.711 118.252C422.266 120.936 425.556 122.818 429.192 123.644C432.805 124.47 436.602 124.194 440.054 122.864C443.528 121.533 446.52 119.216 448.66 116.187C450.8 113.158 451.997 109.556 452.089 105.862C452.181 102.145 451.168 98.4974 449.189 95.3541C447.21 92.2108 444.334 89.7329 440.951 88.2186C438.696 87.2091 436.28 86.6584 433.817 86.6125C431.355 86.5437 428.893 86.9796 426.592 87.8515C424.291 88.7234 422.173 90.0541 420.402 91.7519C418.607 93.4498 417.18 95.4688 416.167 97.7402L416.19 97.7173Z" fill="black"/>
<path d="M350.084 26.5693C350.015 29.575 350.821 32.5347 352.431 35.0815C354.042 37.6282 356.366 39.6243 359.128 40.8403C361.866 42.0564 364.927 42.4235 367.895 41.9187C370.864 41.4139 373.602 40.0144 375.788 37.9494C377.974 35.8845 379.47 33.2001 380.138 30.2633C380.805 27.3265 380.575 24.275 379.493 21.4529C378.412 18.6538 376.525 16.2217 374.062 14.5009C371.6 12.7802 368.678 11.8165 365.686 11.7248C363.684 11.6789 361.705 12.023 359.841 12.7343C357.977 13.4455 356.274 14.5239 354.825 15.9005C353.375 17.2771 352.224 18.9291 351.396 20.7416C350.59 22.5771 350.153 24.5274 350.107 26.5235L350.084 26.5693Z" fill="black"/>
<path d="M479.352 105.015C477.649 107.493 476.729 110.43 476.706 113.435C476.683 116.441 477.534 119.378 479.168 121.902C480.802 124.425 483.172 126.398 485.933 127.569C488.695 128.739 491.755 129.083 494.701 128.532C497.646 127.982 500.385 126.559 502.525 124.471C504.665 122.36 506.161 119.676 506.782 116.739C507.403 113.802 507.127 110.751 506.023 107.952C504.895 105.153 502.985 102.766 500.5 101.069C498.843 99.9444 497.002 99.1413 495.046 98.7284C493.09 98.3154 491.065 98.2924 489.109 98.6595C487.153 99.0266 485.266 99.7838 483.586 100.862C481.906 101.963 480.479 103.363 479.352 105.015Z" fill="black"/>
<path d="M405.115 49.2442C404.379 52.1581 404.517 55.2326 405.53 58.0546C406.542 60.8767 408.36 63.3546 410.776 65.1672C413.193 66.9568 416.069 68.0122 419.084 68.1728C422.075 68.3334 425.067 67.5992 427.644 66.062C430.221 64.5248 432.292 62.2533 433.604 59.546C434.893 56.8386 435.353 53.8101 434.939 50.8274C434.502 47.8447 433.213 45.0685 431.188 42.843C429.186 40.6174 426.539 39.0113 423.64 38.2771C419.728 37.2906 415.586 37.8871 412.111 39.952C408.636 42.017 406.128 45.3668 405.138 49.2672L405.115 49.2442Z" fill="black"/>
<path d="M512.846 175.957C514.894 178.16 517.54 179.72 520.463 180.431C523.385 181.143 526.446 180.959 529.276 179.927C532.107 178.894 534.546 177.036 536.318 174.604C538.09 172.172 539.102 169.281 539.217 166.275C539.332 163.269 538.573 160.31 536.985 157.74C535.42 155.17 533.119 153.128 530.381 151.866C527.642 150.604 524.605 150.191 521.636 150.65C518.668 151.109 515.906 152.463 513.697 154.482C510.729 157.212 508.98 161.021 508.819 165.036C508.658 169.074 510.107 172.997 512.846 175.957Z" fill="black"/>
<path d="M151.23 172.873C146.214 171.519 140.898 171.702 135.997 173.377C131.072 175.052 126.769 178.127 123.593 182.257C120.441 186.364 118.554 191.342 118.209 196.505C117.863 201.667 119.06 206.852 121.66 211.349C124.261 215.846 128.127 219.471 132.798 221.766C137.446 224.06 142.693 224.932 147.848 224.244C153.002 223.578 157.835 221.376 161.747 217.957C165.659 214.538 168.466 210.041 169.801 205.017C171.596 198.294 170.675 191.136 167.178 185.102C163.703 179.067 157.95 174.662 151.23 172.873Z" fill="black"/>
<path d="M81.5776 251.383C86.272 251.314 90.8514 249.869 94.7173 247.207C98.5833 244.546 101.575 240.806 103.324 236.447C105.073 232.088 105.464 227.315 104.497 222.726C103.531 218.138 101.207 213.939 97.8469 210.658C94.4872 207.377 90.23 205.175 85.6047 204.326C80.9793 203.477 76.2159 204.004 71.9127 205.863C67.5865 207.721 63.9276 210.796 61.3733 214.742C58.819 218.665 57.4843 223.277 57.5533 227.981C57.6454 234.267 60.2227 240.255 64.733 244.661C69.2433 249.043 75.3184 251.475 81.6006 251.383H81.5776Z" fill="black"/>
<path d="M66.2209 283.014C65.0703 279.481 62.9072 276.383 59.9847 274.066C57.0623 271.772 53.5415 270.395 49.8366 270.097C46.1317 269.799 42.4268 270.624 39.1821 272.437C35.9375 274.25 33.3141 276.98 31.6342 280.284C29.9544 283.588 29.287 287.328 29.7243 290.999C30.1615 294.692 31.6803 298.157 34.0965 300.979C36.5127 303.801 39.7114 305.843 43.2782 306.853C46.845 307.862 50.642 307.793 54.1858 306.646C58.9262 305.109 62.8612 301.759 65.1164 297.331C67.3715 292.903 67.7857 287.741 66.2439 283.014H66.2209Z" fill="black"/>
<path d="M47.0537 384.127C45.0977 381.832 42.4973 380.18 39.5978 379.377C36.6984 378.574 33.6148 378.62 30.7613 379.561C27.9079 380.502 25.3766 382.245 23.5126 384.609C21.6487 386.972 20.5441 389.84 20.314 392.845C20.0839 395.851 20.7512 398.834 22.224 401.472C23.6967 404.088 25.9289 406.222 28.5982 407.575C31.2906 408.929 34.3051 409.48 37.2967 409.113C40.2882 408.745 43.0956 407.506 45.3738 405.556C46.8926 404.248 48.1352 402.665 49.0327 400.899C49.9301 399.132 50.4824 397.182 50.6435 395.186C50.8046 393.19 50.5514 391.193 49.9301 389.289C49.3088 387.385 48.3193 385.641 47.0306 384.127H47.0537Z" fill="black"/>
<path d="M30.0047 330.411C28.601 327.75 26.4379 325.57 23.8146 324.125C21.1682 322.679 18.1537 322.06 15.1621 322.335C12.1706 322.611 9.31714 323.758 6.96994 325.662C4.62274 327.543 2.89686 330.09 1.9994 332.958C1.10194 335.826 1.07893 338.901 1.93037 341.792C2.7818 344.682 4.48467 347.229 6.78585 349.156C9.11004 351.084 11.9405 352.277 14.932 352.598C17.9235 352.919 20.9381 352.323 23.6074 350.923C27.1743 349.042 29.8436 345.83 31.0402 341.975C32.2369 338.121 31.8687 333.968 29.9817 330.389L30.0047 330.411Z" fill="black"/>
<path d="M330.899 117.64C330.093 112.523 327.769 107.751 324.248 103.919C320.727 100.088 316.148 97.4261 311.086 96.2101C306.023 94.9941 300.73 95.3153 295.852 97.1049C290.973 98.8946 286.739 102.107 283.679 106.305C280.618 110.504 278.892 115.506 278.685 120.691C278.478 125.876 279.813 131.016 282.528 135.444C285.243 139.872 289.201 143.382 293.919 145.562C298.636 147.742 303.906 148.453 309.037 147.65C312.443 147.122 315.711 145.906 318.656 144.117C321.602 142.327 324.156 139.964 326.181 137.165C328.206 134.366 329.679 131.222 330.484 127.872C331.29 124.523 331.428 121.035 330.876 117.64H330.899Z" fill="black"/>
<path d="M275.507 66.5449C273.551 62.2773 270.352 58.6981 266.348 56.2661C262.344 53.8111 257.696 52.618 253.024 52.8016C248.33 52.9851 243.796 54.5453 240 57.3215C236.203 60.0748 233.303 63.9064 231.692 68.2886C230.058 72.6938 229.782 77.4661 230.887 82.0319C231.991 86.5977 234.408 90.7276 237.859 93.9167C241.311 97.1059 245.614 99.1938 250.263 99.928C254.888 100.662 259.652 99.9968 263.909 98.0466C266.739 96.7388 269.294 94.9033 271.411 92.6089C273.528 90.3146 275.162 87.6302 276.243 84.7163C277.325 81.8025 277.808 78.6821 277.693 75.5847C277.578 72.4644 276.841 69.4128 275.53 66.5908L275.507 66.5449Z" fill="black"/>
<path d="M193.792 86.1275C196.554 83.6495 198.51 80.3915 199.43 76.8123C200.351 73.2102 200.167 69.4244 198.924 65.937C197.681 62.4495 195.426 59.398 192.458 57.1725C189.489 54.947 185.922 53.6621 182.217 53.4786C178.513 53.295 174.831 54.1898 171.632 56.0941C168.433 57.9985 165.879 60.7976 164.291 64.1244C162.68 67.4742 162.128 71.2141 162.657 74.885C163.187 78.556 164.798 81.9976 167.283 84.7508C168.94 86.5863 170.919 88.0777 173.151 89.1331C175.383 90.1885 177.799 90.808 180.261 90.9457C182.724 91.0833 185.186 90.7162 187.51 89.8902C189.834 89.0643 191.974 87.8024 193.815 86.1504L193.792 86.1275Z" fill="black"/>
<path d="M94.8294 110.036C96.1181 107.328 96.5783 104.277 96.1411 101.317C95.7039 98.3345 94.3922 95.5583 92.3672 93.3327C90.3421 91.1072 87.7188 89.5241 84.7963 88.7899C81.8738 88.0557 78.8132 88.1933 75.9828 89.2029C73.1523 90.2124 70.6671 92.0249 68.8721 94.457C67.0772 96.8661 66.0417 99.757 65.8806 102.763C65.7195 105.768 66.4789 108.751 68.0207 111.321C69.5625 113.89 71.8407 115.978 74.556 117.263C76.351 118.112 78.307 118.617 80.309 118.708C82.311 118.8 84.313 118.525 86.177 117.86C88.0639 117.194 89.7898 116.162 91.2856 114.808C92.7584 113.477 93.978 111.848 94.8294 110.036Z" fill="black"/>
<path d="M137.691 73.8242C139.555 71.461 140.683 68.616 140.913 65.6104C141.143 62.6047 140.499 59.6221 139.026 56.9835C137.553 54.345 135.344 52.2342 132.652 50.8576C129.959 49.4809 126.945 48.9532 123.953 49.2974C120.962 49.6415 118.154 50.8805 115.853 52.8307C113.552 54.7809 111.918 57.3736 111.089 60.2645C110.261 63.1554 110.33 66.2298 111.274 69.0978C112.194 71.9658 113.966 74.4666 116.313 76.348C117.878 77.587 119.673 78.5047 121.606 79.0324C123.539 79.5831 125.541 79.7437 127.52 79.4913C129.499 79.2619 131.432 78.6424 133.158 77.6558C134.907 76.6922 136.425 75.3614 137.668 73.8013L137.691 73.8242Z" fill="black"/>
<path d="M425.914 215.13C421.565 217.953 418.136 222.014 416.088 226.786C414.04 231.558 413.442 236.812 414.408 241.929C415.352 247.022 417.791 251.726 421.427 255.443C425.04 259.159 429.688 261.706 434.774 262.785C439.859 263.863 445.129 263.427 449.961 261.5C454.794 259.572 458.936 256.269 461.881 252.001C464.827 247.734 466.438 242.686 466.507 237.501C466.576 232.315 465.103 227.222 462.273 222.863C458.476 217.035 452.516 212.928 445.704 211.482C438.893 210.037 431.782 211.345 425.937 215.13H425.914Z" fill="black"/>
<path d="M488.558 264.869C484.048 266.154 479.998 268.724 476.937 272.28C473.9 275.859 471.967 280.241 471.414 284.899C470.862 289.557 471.69 294.283 473.83 298.459C475.971 302.635 479.284 306.099 483.38 308.393C487.476 310.688 492.171 311.72 496.842 311.353C501.514 310.986 506.001 309.242 509.683 306.328C513.365 303.438 516.103 299.491 517.576 295.04C519.026 290.589 519.118 285.794 517.852 281.274C517.001 278.268 515.574 275.469 513.641 273.037C511.708 270.582 509.315 268.54 506.599 267.026C503.884 265.512 500.892 264.525 497.786 264.158C494.679 263.791 491.55 264.043 488.558 264.892V264.869Z" fill="black"/>
<path d="M534.924 319.358C535.431 322.318 536.811 325.071 538.882 327.251C540.953 329.431 543.623 330.945 546.568 331.61C549.514 332.276 552.574 332.046 555.382 330.968C558.189 329.89 560.629 328.008 562.354 325.553C564.08 323.098 565.07 320.184 565.139 317.179C565.208 314.173 564.402 311.213 562.792 308.667C561.181 306.12 558.857 304.124 556.118 302.885C553.38 301.669 550.319 301.279 547.351 301.783C545.372 302.128 543.485 302.839 541.805 303.894C540.125 304.973 538.652 306.349 537.502 307.978C536.351 309.607 535.523 311.443 535.085 313.393C534.648 315.343 534.602 317.362 534.924 319.335V319.358Z" fill="black"/>
<path d="M373.321 388.661C370.721 393.158 369.524 398.321 369.846 403.506C370.191 408.691 372.055 413.647 375.231 417.777C378.407 421.884 382.71 424.981 387.634 426.656C392.559 428.331 397.852 428.492 402.868 427.161C407.885 425.807 412.395 423.008 415.824 419.108C419.253 415.207 421.439 410.366 422.129 405.227C422.796 400.087 421.945 394.856 419.644 390.198C417.343 385.541 413.707 381.663 409.219 379.071C403.19 375.583 396.011 374.643 389.291 376.455C382.572 378.268 376.819 382.65 373.344 388.684L373.321 388.661Z" fill="black"/>
<path d="M436.786 394.916C435.405 399.39 435.359 404.185 436.694 408.682C438.028 413.179 440.675 417.194 444.287 420.177C447.9 423.183 452.319 425.041 456.99 425.523C461.661 426.005 466.379 425.11 470.521 422.93C474.686 420.751 478.092 417.378 480.324 413.248C482.556 409.118 483.523 404.438 483.108 399.757C482.671 395.077 480.876 390.649 477.908 387.001C474.939 383.352 470.981 380.668 466.494 379.268C460.488 377.41 453.975 378.007 448.407 380.943C442.838 383.88 438.65 388.882 436.786 394.893V394.916Z" fill="black"/>
<path d="M475.312 451.647C474.116 454.4 473.77 457.451 474.323 460.411C474.875 463.371 476.279 466.101 478.373 468.258C480.467 470.415 483.159 471.883 486.105 472.526C489.05 473.145 492.111 472.893 494.895 471.768C497.68 470.644 500.096 468.74 501.799 466.262C503.502 463.784 504.422 460.847 504.468 457.842C504.514 454.836 503.663 451.876 502.029 449.375C500.395 446.851 498.048 444.878 495.286 443.685C493.445 442.905 491.489 442.469 489.487 442.446C487.485 442.423 485.506 442.79 483.642 443.525C481.778 444.259 480.099 445.36 478.672 446.76C477.245 448.159 476.095 449.811 475.312 451.647Z" fill="black"/>
<path d="M1873.91 418.025C1856.09 418.025 1840.26 413.964 1826.41 405.865C1812.79 397.537 1802.11 386.363 1794.42 372.321C1786.74 358.073 1782.89 342.196 1782.89 324.644C1782.89 307.092 1786.74 290.779 1794.42 276.967C1802.34 263.155 1812.9 252.303 1826.09 244.41C1839.27 236.311 1854.23 232.25 1870.94 232.25C1884.35 232.25 1896.32 234.544 1906.88 239.156C1917.44 243.768 1926.33 250.123 1933.6 258.222C1940.85 266.115 1946.35 275.201 1950.1 285.502C1954.06 295.804 1956.04 306.771 1956.04 318.381C1956.04 321.226 1955.92 324.185 1955.71 327.26C1955.48 330.334 1955.05 333.179 1954.4 335.795H1812.28V306.198H1933.3L1915.49 319.689C1917.7 308.951 1916.92 299.406 1913.19 291.078C1909.67 282.52 1904.17 275.843 1896.69 271.025C1889.44 265.977 1880.86 263.453 1870.96 263.453C1861.07 263.453 1852.28 265.977 1844.59 271.025C1836.9 275.843 1830.97 282.864 1826.78 292.064C1822.59 301.058 1820.96 312.002 1821.83 324.943C1820.73 336.988 1822.38 347.519 1826.78 356.513C1831.4 365.507 1837.78 372.505 1845.9 377.553C1854.25 382.6 1863.71 385.124 1874.25 385.124C1884.79 385.124 1894.13 382.715 1901.61 377.897C1909.3 373.079 1915.35 366.838 1919.75 359.152L1950.07 373.95C1946.55 382.279 1941.05 389.85 1933.58 396.642C1926.33 403.227 1917.54 408.481 1907.2 412.427C1897.1 416.144 1885.99 418.025 1873.91 418.025Z" fill="black"/>
<path d="M1687.35 418.033C1669.11 418.033 1653.07 413.536 1639.21 404.542C1625.59 395.548 1616.02 383.502 1610.52 368.382L1639.21 354.892C1644.05 364.964 1650.65 372.971 1659 378.891C1667.59 384.81 1677.02 387.77 1687.35 387.77C1696.14 387.77 1703.28 385.797 1708.78 381.85C1714.28 377.904 1717.02 372.535 1717.02 365.744C1717.02 361.362 1715.8 357.851 1713.38 355.213C1710.96 352.368 1707.88 350.073 1704.15 348.307C1700.63 346.563 1697.02 345.232 1693.27 344.36L1665.24 336.468C1649.84 332.085 1638.32 325.501 1630.61 316.736C1623.13 307.742 1619.4 297.349 1619.4 285.51C1619.4 274.772 1622.14 265.457 1627.64 257.564C1633.14 249.465 1640.71 243.201 1650.4 238.819C1660.06 234.437 1670.95 232.234 1683.05 232.234C1699.32 232.234 1713.82 236.295 1726.57 244.395C1739.31 252.287 1748.34 263.346 1753.6 277.594L1724.91 291.085C1721.39 282.527 1715.8 275.736 1708.09 270.711C1700.61 265.663 1692.14 263.14 1682.71 263.14C1674.58 263.14 1668.09 265.113 1663.26 269.059C1658.43 272.776 1656.01 277.709 1656.01 283.858C1656.01 288.011 1657.12 291.521 1659.3 294.366C1661.51 297.005 1664.37 299.184 1667.89 300.951C1671.41 302.488 1675.04 303.796 1678.77 304.897L1707.79 313.455C1722.52 317.608 1733.84 324.193 1741.75 333.187C1749.67 341.951 1753.63 352.482 1753.63 364.757C1753.63 375.288 1750.77 384.604 1745.04 392.703C1739.54 400.595 1731.86 406.836 1721.96 411.448C1712.07 415.83 1700.52 418.033 1687.33 418.033H1687.35Z" fill="black"/>
<path d="M1540.58 414.072V236.212H1577.83V414.072H1540.58ZM1540.58 211.869V169.125H1577.83V211.869H1540.58Z" fill="black"/>
<path d="M1402.13 418.031C1384.98 418.031 1369.59 413.97 1355.96 405.871C1342.55 397.542 1331.89 386.368 1323.98 372.327C1316.29 358.308 1312.45 342.523 1312.45 324.994C1312.45 307.465 1316.41 291.68 1324.32 277.661C1332.24 263.642 1342.89 252.561 1356.31 244.462C1369.73 236.362 1384.89 232.301 1401.83 232.301C1416.12 232.301 1428.75 235.146 1439.75 240.859C1450.75 246.549 1459.43 254.442 1465.8 264.537L1460.18 273.095V165.26H1497.12V414.153H1461.84V377.994L1466.12 384.9C1459.95 395.638 1451.16 403.852 1439.75 409.565C1428.31 415.255 1415.8 418.123 1402.15 418.123L1402.13 418.031ZM1405.74 383.5C1416.07 383.5 1425.3 380.977 1433.44 375.929C1441.8 370.881 1448.29 363.975 1452.91 355.211C1457.75 346.217 1460.16 336.145 1460.16 324.971C1460.16 313.797 1457.75 303.817 1452.91 295.052C1448.29 286.288 1441.82 279.382 1433.44 274.334C1425.32 269.287 1416.07 266.763 1405.74 266.763C1395.41 266.763 1386.06 269.287 1377.71 274.334C1369.36 279.382 1362.87 286.288 1358.24 295.052C1353.62 303.817 1351.32 313.797 1351.32 324.971C1351.32 336.145 1353.62 346.24 1358.24 355.211C1362.87 363.975 1369.24 370.881 1377.37 375.929C1385.72 380.977 1395.18 383.5 1405.72 383.5H1405.74Z" fill="black"/>
<path d="M1148.94 486.405C1144.99 486.405 1141.03 486.084 1137.07 485.419C1133.11 484.753 1129.38 483.652 1125.86 482.138V454.857C1128.28 455.293 1131.25 455.729 1134.77 456.165C1138.5 456.831 1142.13 457.152 1145.65 457.152C1155.99 457.152 1163.79 454.857 1169.06 450.246C1174.56 445.864 1179.71 438.2 1184.57 427.233L1195.77 400.596L1195.11 427.233L1119.26 236.869H1152.56L1211.58 388.114H1201.69L1260.39 236.869H1294.36L1214.23 435.126C1210.5 444.556 1205.65 453.091 1199.73 460.777C1194.02 468.67 1186.98 474.91 1178.63 479.522C1170.28 484.134 1160.38 486.428 1148.94 486.428V486.405Z" fill="black"/>
<path d="M950.853 414.086L1013.17 325.317L951.175 236.869H988.109L1041.2 313.799H1022.4L1074.82 236.869H1112.07L1050.08 325.317L1111.75 414.086H1074.82L1022.4 337.156H1040.85L988.431 414.086H950.83H950.853Z" fill="black"/>
<path d="M808.946 418.026C791.572 418.026 775.303 414.951 760.138 408.825C744.973 402.47 731.672 393.591 720.235 382.188C709.029 370.785 700.238 357.432 693.864 342.082C687.49 326.526 684.291 309.64 684.291 291.445C684.291 273.251 687.49 256.158 693.864 240.809C700.238 225.459 709.029 212.106 720.235 200.703C731.672 189.3 744.858 180.535 759.816 174.409C774.98 168.283 791.365 165.209 808.946 165.209C826.527 165.209 842.796 168.398 857.754 174.754C872.918 180.88 886.104 189.667 897.334 201.047C908.771 212.221 917.676 225.482 924.051 240.832C930.655 256.181 933.946 273.044 933.946 291.468C933.946 309.892 930.655 326.526 924.051 342.105C917.676 357.454 908.771 370.808 897.334 382.211C886.127 393.614 872.941 402.493 857.754 408.848C842.796 414.974 826.527 418.049 808.946 418.049V418.026ZM808.946 388.107C822.569 388.107 834.995 385.698 846.202 380.88C857.409 375.832 867.096 368.926 875.22 360.162C883.573 351.168 889.947 340.866 894.342 329.257C898.968 317.418 901.269 304.822 901.269 291.445C901.269 278.069 898.968 265.588 894.342 253.978C889.947 242.369 883.573 232.159 875.22 223.394C867.096 214.4 857.409 207.494 846.202 202.676C834.995 197.628 822.569 195.105 808.946 195.105C795.323 195.105 783.219 197.628 772.012 202.676C760.805 207.494 751.025 214.4 742.672 223.394C734.526 232.159 728.152 242.346 723.549 253.978C718.924 265.588 716.623 278.092 716.623 291.445C716.623 304.799 718.924 317.418 723.549 329.257C728.175 340.866 734.549 351.168 742.672 360.162C751.025 368.926 760.805 375.832 772.012 380.88C783.219 385.698 795.53 388.107 808.946 388.107Z" fill="black"/>
</g>
<defs>
<clipPath id="clip0_471_204">
<rect width="1956" height="569" fill="white"/>
</clipPath>
</defs>
</svg>
